<svg width="55" height="55" viewBox="0 0 55 55" fill="none" xmlns="http://www.w3.org/2000/svg">
<path d="M22.0957 12.8807C23.4711 12.3039 24.0479 10.6623 23.4267 9.3312L21.2527 4.76121C20.6315 3.47496 19.1229 2.89772 17.7919 3.47496C14.0205 5.07224 10.7816 7.15757 8.20823 9.68659C5.05804 12.6589 2.92834 16.0753 1.77475 19.8466C0.621163 23.6628 0 28.8535 0 35.4644V49.0856C0 50.5498 1.19796 51.7478 2.66213 51.7478H20.0991C21.5632 51.7478 22.7612 50.5498 22.7612 49.0856V31.6487C22.7612 30.1841 21.5632 28.9866 20.0991 28.9866H11.7577C11.8465 24.5049 12.9113 20.9114 14.8635 18.2045C16.4608 16.0313 18.8567 14.2566 22.0957 12.8807Z" fill="#EF7006"/>
<path d="M53.4204 12.8811C54.7959 12.3043 55.3722 10.6626 54.7515 9.33155L52.5774 4.80638C51.9563 3.51968 50.4477 2.94289 49.1167 3.51968C45.3897 5.11696 42.1947 7.20229 39.5774 9.68694C36.4267 12.704 34.2531 16.1204 33.0991 19.8918C31.9455 23.6183 31.3691 28.8099 31.3691 35.4652V49.0864C31.3691 50.5506 32.5671 51.7486 34.0313 51.7486H51.4682C52.9324 51.7486 54.1303 50.5506 54.1303 49.0864V31.6495C54.1303 30.1849 52.9324 28.9874 51.4682 28.9874H43.0825C43.1712 24.5057 44.2365 20.9122 46.1883 18.2053C47.7856 16.0317 50.1815 14.2569 53.4204 12.8811Z" fill="#EF7006"/>
</svg>
