<svg width="38" height="38" viewBox="0 0 38 38" fill="none" xmlns="http://www.w3.org/2000/svg">
<path d="M23.75 3.1665H14.25C10.7666 3.1665 7.91663 6.0165 7.91663 9.49984V28.4998C7.91663 31.9832 10.7666 34.8332 14.25 34.8332H23.75C27.2333 34.8332 30.0833 31.9832 30.0833 28.4998V9.49984C30.0833 6.0165 27.2333 3.1665 23.75 3.1665ZM26.9166 28.4998C26.9166 30.2415 25.4916 31.6665 23.75 31.6665H14.25C12.5083 31.6665 11.0833 30.2415 11.0833 28.4998V9.49984C11.0833 7.75817 12.5083 6.33317 14.25 6.33317H23.75C25.4916 6.33317 26.9166 7.75817 26.9166 9.49984V28.4998Z" fill="#92C03D"/>
<path d="M20.5833 7.9165H17.4166C16.4666 7.9165 15.8333 8.54984 15.8333 9.49984C15.8333 10.4498 16.4666 11.0832 17.4166 11.0832H20.5833C21.5333 11.0832 22.1666 10.4498 22.1666 9.49984C22.1666 8.54984 21.5333 7.9165 20.5833 7.9165Z" fill="#EF7006"/>
</svg>
