<svg width="308" height="112" viewBox="0 0 308 112" fill="none" xmlns="http://www.w3.org/2000/svg">
<g clip-path="url(#clip0_234_1251)">
<path d="M63.3875 88.7264C63.0935 91.1597 62.9844 91.658 62.9844 91.658L62.3351 90.998C62.1167 90.7861 61.7308 90.8112 61.4492 90.736C61.1875 90.6661 60.9707 90.487 60.7581 90.3244L60.5386 90.3383C60.4662 90.5621 60.4661 90.6663 60.4735 90.901L60.4336 91.1597L60.5937 91.4187L60.5244 91.4786C60.1987 91.775 60.2291 91.9102 60.1051 92.3061L60.0419 92.438V85.4956L63.3875 88.7264Z" fill="#6E6C6D"/>
<path d="M274.339 0.042077C275.449 -0.0100939 276.512 0.230778 277.46 0.829906C278.608 1.55635 279.507 2.77435 279.798 4.1278C280.125 5.64674 279.918 7.00941 279.085 8.31285C278.137 9.79553 276.831 10.4284 275.177 10.7834C273.899 10.8053 272.763 10.6311 271.689 9.8763C270.359 8.94093 269.645 7.7081 269.383 6.10767C269.17 4.81033 269.599 3.24724 270.364 2.19533C271.373 0.807292 272.73 0.291445 274.339 0.042077Z" fill="#EF7006"/>
<path d="M20.0465 87.0938C20.4183 87.0104 20.5742 87.0566 20.9332 87.092C21.612 87.1589 22.0277 86.9708 22.7029 87.3381L22.7133 87.4374C22.8372 88.6784 22.7712 89.9522 22.8295 91.2C22.9672 94.1438 23.7762 97.0246 25.2804 99.5541C28.0605 104.13 32.0243 107.182 37.1953 108.434C39.07 108.887 40.8511 109.106 42.7746 108.989C46.2949 108.471 49.5312 107.543 52.4349 105.361C56.8698 102.027 59.2663 97.4446 60.0922 91.9593L60.1555 91.8273C60.2794 91.4315 60.3299 91.2391 60.3887 90.94V90.7605V90.6408L60.4475 90.3417C60.4401 90.1069 60.5165 90.0833 60.5889 89.8596L60.8084 89.8457C61.021 90.0083 61.2379 90.1874 61.4995 90.2573C61.7811 90.3325 62.167 90.3073 62.3854 90.5192L62.9825 91.0341C63.0023 91.1167 63.0136 91.1471 63.0128 91.2425C63.0068 92.0224 62.79 92.9232 62.6634 93.6953C61.8758 98.5 59.7615 102.242 56.445 105.705C52.6201 109.698 46.6734 111.91 41.2584 111.954C40.3136 111.963 39.3612 111.786 38.4287 111.643C33.8764 110.948 29.627 108.921 26.3476 105.598C22.9748 102.182 20.6556 97.7784 20.1665 92.9338C19.9734 91.0214 20.0571 89.018 20.0465 87.0938Z" fill="url(#paint0_linear_234_1251)"/>
<path d="M25.2805 99.5542C28.0606 104.13 32.0244 107.182 37.1954 108.434C39.0701 108.888 40.8511 109.107 42.7746 108.989C43.0332 109.028 43.4327 108.908 43.6164 109.05L43.3183 109.185L43.3658 109.366L43.16 109.426C43.019 109.314 42.926 109.238 42.7505 109.187C41.8241 109.548 41.2088 109.351 40.2892 109.318C39.889 109.305 39.3243 109.389 38.9557 109.247L38.9857 109.098C38.8534 109.06 38.7377 109.02 38.6185 108.951C38.368 108.804 37.9945 109.031 37.7098 109.002C37.3661 108.967 37.2075 108.987 36.8675 109.066C36.7502 109.006 36.6765 108.974 36.5441 108.963C36.2198 108.935 35.9244 108.838 35.6547 108.653C35.4521 108.514 35.0431 108.664 34.8103 108.588C34.5672 108.511 34.4024 108.229 34.1882 108.135C34.0753 108.085 33.8244 108.079 33.6954 108.061C33.4239 108.022 33.3014 107.934 33.0796 107.763C32.7968 107.546 32.5618 107.507 32.2236 107.429L32.2824 107.303C32.0906 107.198 31.7253 107.059 31.5774 106.914C31.5065 106.845 31.4398 106.624 31.3657 106.579C31.251 106.51 31.0053 106.559 30.8811 106.497C30.6878 106.401 30.5825 106.169 30.3561 106.084C30.1428 106.004 30.1036 105.713 29.931 105.598C29.8744 105.561 29.6392 105.633 29.577 105.597C29.3522 105.467 29.2094 105.159 28.9532 105.019C28.7576 104.912 28.6299 104.763 28.4598 104.624C27.7548 104.049 26.9821 103.102 26.4215 102.367C26.1388 101.996 26.0223 101.482 25.6484 101.21L25.5909 101.171L25.9313 101.111C25.7294 100.914 25.8062 100.856 25.6881 100.684C25.5743 100.516 25.3856 100.398 25.1901 100.362L25.0682 100.343C24.9496 99.888 25.077 99.9634 25.2805 99.5542Z" fill="#676666"/>
<path d="M3.52858 60.0432C2.72524 59.8358 1.79054 58.9754 1.26768 58.3489C0.303578 57.1935 -0.0239439 55.8231 0.12106 54.3248C0.241014 53.086 0.919814 51.9094 1.86545 51.1331C2.94833 50.2442 4.39696 49.8043 5.78078 49.9816C7.22411 50.1663 8.2696 50.7661 9.15679 51.9477C9.97153 53.0326 10.4151 54.39 10.2089 55.7546C9.98847 57.2126 9.10669 58.521 7.93878 59.3709C7.51365 59.6804 7.07241 59.9302 6.68126 60.2882L6.58471 65.9649C6.56636 68.7521 6.48981 71.5814 7.43956 74.2432C7.70381 74.9835 8.03133 75.7082 8.42024 76.3895L9.38317 77.9446C9.43421 78.0203 9.68282 78.3267 9.6887 78.3971C12.6526 81.7733 16.1882 83.8108 20.6991 84.055C23.0004 84.1797 25.0279 83.6858 27.1641 82.8692C30.8751 80.9785 33.8195 78.1932 35.1698 74.0971C35.9014 71.8779 36.1408 69.5026 36.2233 67.1764C36.2544 66.3004 36.3286 65.3854 36.2448 64.5124C37.179 64.5731 38.0413 64.5687 38.9709 64.4506C39.0159 66.3587 39.0802 68.3636 38.8875 70.2613C38.4637 74.436 36.9054 78.226 34.0353 81.2737C32.3035 83.1126 30.1919 84.5902 27.8818 85.5611C27.0364 85.9163 26.1623 86.2203 25.2799 86.4651L23.4806 86.9072C23.3636 86.9344 23.0403 86.9674 22.9487 87.0295C22.8708 87.0824 22.7665 87.2584 22.703 87.3383C22.0278 86.971 21.612 87.1591 20.9332 87.0922C20.5743 87.0568 20.4184 87.0106 20.0466 87.094C18.0626 86.6842 16.0684 86.2729 14.1987 85.4547C9.08164 83.2149 4.95051 78.1196 4.05238 72.4798C3.84423 71.1729 3.85563 69.8146 3.8347 68.494L3.80154 62.6293C3.8033 61.8708 4.02451 60.6421 3.52858 60.0432Z" fill="#676666"/>
<path d="M247.852 12.5803C249.011 12.4348 250.086 12.5939 251.123 13.1441C252.367 13.8033 253.371 15.1105 253.778 16.465C254.277 18.1291 254.004 20.3764 253.996 22.1366L253.972 30.0607C253.977 33.5608 254.241 37.1972 253.982 40.6836C253.931 41.3672 253.784 41.9997 253.461 42.6074C252.561 44.2932 251.315 45.118 249.542 45.6454C248.343 45.7529 247.427 45.7161 246.338 45.1122C244.978 44.3577 243.935 43.1695 243.505 41.6425C243.053 40.0406 243.281 37.9149 243.284 36.2557L243.297 27.5882L243.288 21.2948C243.287 20.0938 243.222 18.8452 243.332 17.6494C243.407 16.815 243.633 16.0292 244.041 15.2999C244.858 13.8436 246.319 13.0129 247.852 12.5803Z" fill="#EE5F1E"/>
<path d="M214.511 60.2269C216.022 60.1091 217.566 60.1656 219.082 60.1681L226.63 60.18L232.096 60.1628C233.085 60.1593 234.155 60.0761 235.134 60.2005C235.915 60.2998 236.647 60.5525 237.274 61.0404C238.29 61.8311 238.968 63.1315 239.106 64.4207C239.225 65.5251 238.711 66.7073 238.047 67.5546C236.185 69.928 232.933 69.2071 230.316 69.4892C230.112 71.4886 230.269 73.6602 230.272 75.6785L230.287 87.89C230.225 89.1587 229.828 90.2459 229.011 91.219C228.161 92.2337 226.619 93.0117 225.309 93.1058C223.956 93.2028 222.377 92.5987 221.37 91.6775C220.617 90.9905 220.018 89.9093 219.801 88.9079C219.419 87.1554 219.655 84.9547 219.656 83.1404L219.62 69.4105C217.556 69.2717 215.186 69.7385 213.288 68.7435C212.174 68.1597 211.332 67.0481 210.985 65.834C210.688 64.7936 210.798 63.642 211.332 62.7008C212.113 61.3252 213.035 60.6364 214.511 60.2269Z" fill="url(#paint1_linear_234_1251)"/>
<path d="M205.436 82.1656C206.432 83.6328 208.088 86.0491 208.24 87.8245C208.354 89.1455 207.717 90.5674 206.875 91.5475C206.08 92.473 204.571 93.0751 203.382 93.1471C202.258 93.2152 200.891 92.6351 200.067 91.8697C199.046 90.9222 198.338 89.4651 197.64 88.2678L194.844 83.4913C194.522 82.9312 194.043 81.8678 193.554 81.4718C192.992 81.0169 191.576 81.2498 190.874 81.2983C190.794 82.8142 190.86 84.3654 190.866 85.8835C190.874 88.0327 190.952 89.5769 189.484 91.3117C188.58 92.3809 187.077 93.049 185.707 93.1467C184.405 93.2396 182.91 92.5529 181.957 91.6741C180.99 90.7816 180.338 89.3205 180.286 88.0006L180.257 73.4633L180.251 67.8666C180.251 66.7226 180.17 65.4758 180.373 64.352C180.55 63.3793 181.1 62.32 181.775 61.6096C182.808 60.5229 184.265 59.9665 185.74 59.9834C187.052 59.9983 188.343 60.5793 189.256 61.5322C191.015 63.3714 190.874 65.2877 190.856 67.6555L190.818 71.7961C191.607 71.8533 192.395 71.8302 193.185 71.8172C193.268 71.8158 193.673 71.8421 193.731 71.8075C193.841 71.7408 194.238 70.9048 194.321 70.7526L197.282 65.4192C197.955 64.1959 198.582 62.7782 199.498 61.7316C200.098 61.0469 200.726 60.6019 201.566 60.2729C202.804 59.7889 204.109 59.9379 205.297 60.4832C206.446 61.0104 207.295 62.0889 207.726 63.2804C207.917 63.8087 208.146 64.5524 208.102 65.1153C207.959 66.9268 206.823 68.5637 205.901 70.0576C204.641 72.0972 203.122 74.2328 202.149 76.416L203.034 78.1783L203.058 78.2391L205.436 82.1656Z" fill="url(#paint2_linear_234_1251)"/>
<path d="M205.436 82.1652C205.458 82.3628 205.511 82.5803 205.45 82.7733L205.352 82.7243C205.228 82.6472 205.011 82.3962 204.979 82.2522C204.924 82.0038 204.851 81.9214 204.674 81.7342C204.568 81.6226 204.603 81.548 204.598 81.3973C204.538 81.5399 204.47 81.6009 204.354 81.6993L204.133 81.3674L204.216 81.2477C204.177 80.887 204.146 80.622 203.893 80.3497L203.746 80.5884L203.549 80.4977C203.144 80.2527 202.754 79.5088 202.688 79.034C202.661 78.8415 202.738 78.773 202.835 78.6152L202.793 78.4567C202.88 78.3753 202.962 78.309 203.058 78.2388L205.436 82.1652Z" fill="#EF7006"/>
<path d="M213.096 16.8314C213.069 16.4872 213.291 15.8643 213.435 15.5366C213.968 14.3247 215.205 13.3236 216.409 12.8705C217.782 12.3542 219.168 12.4499 220.488 13.0719C221.691 13.6391 222.622 14.7458 223.07 16.0004C223.731 17.873 223.521 20.0798 223.521 22.0496C228.688 22.2048 234.548 21.6424 238.443 25.8246C240.352 27.8746 241.231 31.0112 241.156 33.8035C241.069 36.9882 240.446 40.0399 238.08 42.279C234.263 45.8913 228.996 45.6712 224.136 45.6886L217.598 45.6851C216.391 45.637 214.887 44.6389 214.111 43.7557C213.638 43.2171 213.228 42.5209 213.102 41.8024C212.798 40.0671 212.898 38.1467 212.894 36.3856L212.956 26.9846C212.975 23.9969 212.742 20.9065 212.941 17.936C212.966 17.5694 212.987 17.1826 213.096 16.8314Z" fill="#EE5F1E"/>
<path d="M213.096 16.8314C213.069 16.4872 213.291 15.8643 213.435 15.5366C213.968 14.3247 215.205 13.3236 216.409 12.8705C217.782 12.3542 219.168 12.4499 220.488 13.0719C221.691 13.6391 222.622 14.7458 223.07 16.0004L223.138 17.53L223.003 17.5892C222.918 17.1161 222.614 17.0651 222.563 16.5728L222.827 16.6027C222.827 16.1867 222.666 16.2205 222.503 15.8735L222.308 15.7566L222.209 15.9733L222.19 15.9152C222.038 15.4762 221.672 15.3419 221.433 14.9651C221.36 14.85 221.263 14.7922 221.152 14.7181L221.092 14.5327C220.85 14.4153 220.62 14.0779 220.475 14.0334C220.226 13.9571 220.088 13.8959 219.884 13.7304C219.28 13.2386 218.559 13.6324 217.918 13.1924L218.565 13.1326L218.391 12.9256L218.325 12.9397C218.167 12.9709 218.056 12.9902 217.899 12.9518C217.435 12.8381 216.784 13.093 216.381 13.3261C216.273 13.3882 216.21 13.4056 216.095 13.4372C215.929 13.4822 215.87 13.5288 215.748 13.6436C215.431 13.9424 214.849 14.1382 214.653 14.5685C215.104 14.503 215.095 14.0608 215.64 14.2448L215.567 14.4412C215.185 14.4798 215.191 14.7684 214.858 14.8371V14.9021C214.851 15.0323 214.81 15.1488 214.774 15.2731L214.696 15.3262C214.348 15.5665 214.226 15.7219 214.069 16.1108C213.51 16.5086 213.621 16.6749 213.393 17.2728C213.3 17.5171 213.335 17.7541 213.36 18.0092L213.549 17.995C213.643 18.4192 213.62 18.8209 213.653 19.2483C213.696 19.8176 213.621 20.4528 213.621 21.0323C213.62 21.8205 213.688 22.674 213.585 23.4525C213.529 23.8863 213.489 24.5417 213.575 24.9621C213.634 25.2465 213.555 25.5566 213.545 25.8463L213.516 27.701C213.517 27.9525 213.469 28.2247 213.611 28.4329L213.448 28.6582C213.493 28.8087 213.553 28.9021 213.503 29.0542C213.377 29.446 213.511 29.853 213.377 30.2874L213.27 32.6069L213.204 21.5575C213.19 20.0644 213.331 18.2874 213.096 16.8314Z" fill="#EF7006"/>
<path d="M223.95 30.9316L224.214 30.8925C225.875 30.7965 228.583 30.6487 229.856 31.8737C230.345 32.3452 230.708 33.0803 230.719 33.7747C230.733 34.7298 230.286 35.4684 229.651 36.1318C227.879 37.0643 225.477 37.0331 223.528 36.7286C223.344 35.4433 223.429 34.03 223.431 32.7296C223.431 32.2637 223.353 31.587 223.53 31.1591C223.572 31.0554 223.843 30.9789 223.95 30.9316Z" fill="#FEFEFE"/>
<path d="M283.582 60.0952L284.049 60.0538C285.912 59.9388 287.847 60.0315 289.718 60.0217C294.67 59.9959 300.558 59.646 304.531 63.2239C306.879 65.3399 307.78 68.3506 307.952 71.4487C308.132 74.6718 307.451 77.9616 305.283 80.4155C302.633 83.4169 298.56 84.1663 294.797 84.3606L291.383 84.4248C290.97 84.4355 290.389 84.3845 289.999 84.5106C289.771 84.5843 289.686 84.7201 289.655 84.9573C289.601 85.3664 289.7 85.9101 289.725 86.3279C289.807 87.7725 289.766 88.9772 289.071 90.282C288.358 91.6215 287.109 92.5113 285.69 92.9285C284.384 93.3117 283.043 93.074 281.861 92.417C280.701 91.7719 279.764 90.684 279.399 89.3737C278.946 87.7449 279.158 85.6928 279.164 84.0005L279.177 76.6273L279.175 69.278C279.175 67.7937 279.112 66.273 279.24 64.7949C279.3 64.1063 279.499 63.3697 279.841 62.7695C280.692 61.2791 281.992 60.5081 283.582 60.0952Z" fill="url(#paint3_linear_234_1251)"/>
<path d="M290.28 68.863C291.155 68.7709 292.11 68.814 292.989 68.8478C294.19 68.8939 295.732 68.975 296.596 69.9596C297.166 70.6096 297.428 71.6189 297.378 72.4756C297.319 73.5221 296.987 74.141 296.249 74.8331C294.348 75.8562 291.88 75.6871 289.782 75.4862C289.58 73.9751 289.678 72.3372 289.675 70.8066C289.675 70.3227 289.587 69.5904 289.792 69.1506C289.883 68.9519 290.086 68.936 290.28 68.863Z" fill="#FEFEFE"/>
<path d="M184.027 12.9602C185.756 12.2264 188.376 12.5421 190.25 12.536C192.839 12.5277 195.529 12.3991 198.101 12.7169C199.794 12.9263 201.422 13.2664 203.01 13.9282C205.4 14.9251 207.381 16.8441 208.382 19.2835C209.632 22.3318 209.735 27.0703 208.471 30.1323C207.453 32.5994 205.275 34.6596 202.853 35.6539C200.141 36.7681 197.168 36.9177 194.278 36.9423C193.465 36.9492 192.324 36.8049 191.547 36.9859C191.27 37.0502 191.219 37.1665 191.087 37.3931C191.1 39.7739 191.473 42.095 189.646 43.9835C188.629 45.0355 187.17 45.7221 185.713 45.7074C184.233 45.6925 182.949 44.9726 181.928 43.9147C181.311 43.2734 180.842 42.4343 180.675 41.5497C180.488 40.564 180.548 39.4557 180.546 38.4517L180.551 33.482L180.548 18.9059C180.57 17.4187 180.722 15.9472 181.632 14.7236C182.299 13.9599 183.059 13.2869 184.027 12.9602Z" fill="url(#paint4_linear_234_1251)"/>
<path d="M184.027 12.9602L185.142 12.9102L185.095 13.0269L184.693 13.1024C184.892 13.2166 185.065 13.2908 185.286 13.3537L185.153 13.3791C184.107 13.5869 183.529 14.2848 182.701 14.8711L182.548 14.7477C182.701 14.4691 182.878 14.2776 183.107 14.0597L182.931 14.0523C182.684 14.2942 182.447 14.5477 182.168 14.7512C181.94 14.918 181.785 15.259 181.646 15.5043L181.528 15.4358L181.632 14.7236C182.299 13.9599 183.06 13.2868 184.027 12.9602Z" fill="#EF7006"/>
<path d="M192.299 21.3445C193.446 21.2825 194.701 21.3344 195.837 21.5073C196.772 21.6494 197.727 22.0788 198.294 22.8764C198.786 23.5707 199.03 24.4408 198.872 25.29C198.702 26.2074 198.17 26.9895 197.428 27.5132C196.48 27.9816 195.662 28.0871 194.621 28.1212C193.845 28.1466 191.716 28.3291 191.185 27.8205C190.987 27.0437 190.946 22.2259 191.221 21.6581C191.529 21.4037 191.917 21.3971 192.299 21.3445Z" fill="#FEFEFE"/>
<path d="M284.17 12.4937L285.277 12.5459C286.643 12.7437 287.788 13.5331 288.611 14.6345C289.226 15.4567 289.514 16.353 289.64 17.3721C289.81 18.7472 289.713 20.2148 289.705 21.5998L289.663 29.0333L289.685 36.9359C289.689 38.3457 289.815 39.9195 289.606 41.3102C289.419 42.5518 288.624 43.7921 287.636 44.5334C286.493 45.3915 285.019 45.9005 283.593 45.6593C281.776 45.3524 279.965 43.8516 279.403 42.0599C279.064 40.9825 279.183 39.5467 279.183 38.424L279.253 32.0844C279.26 31.6244 279.396 30.6707 279.151 30.3334C278.488 30.5727 277.394 32.358 276.922 32.9655L272.074 39.1374C270.727 40.8755 269.378 43.0871 267.688 44.4679C266.811 45.1844 265.895 45.5465 264.786 45.7147C263.081 45.679 261.829 45.2276 260.577 43.9763C259.148 42.5479 259.099 40.5221 259.101 38.6163L259.159 24.9916L259.199 20.0158C259.219 18.8547 259.209 17.6514 259.441 16.5096C259.633 15.5604 260.032 14.875 260.713 14.1989C261.708 13.2114 263.204 12.5459 264.604 12.5897C266.05 12.635 267.432 13.2976 268.408 14.3765C268.978 15.0071 269.363 15.7517 269.556 16.5821C269.877 17.9602 269.748 19.5809 269.729 20.9875L269.556 28.193C270.643 27.1372 271.568 25.7349 272.506 24.5302L277.92 17.5587C279.044 16.0942 280.115 14.4055 281.624 13.3358C282.397 12.7881 283.259 12.6191 284.17 12.4937Z" fill="#EE5F1E"/>
<path d="M148.557 12.7032C148.67 12.6345 148.751 12.5787 148.884 12.5583C149.518 12.4609 150.313 12.5508 150.96 12.5519L155.564 12.5673L165.498 12.5723C167.19 12.5735 169.324 12.3362 170.955 12.748C172.094 13.0355 172.85 13.5831 173.528 14.5476C174.039 15.2753 174.366 16.5524 174.224 17.4322C174.041 18.5551 173.417 19.5954 172.497 20.2437C171.978 20.6098 171.42 20.8503 170.798 20.9677C169.788 21.1584 168.618 21.0643 167.589 21.0685L161.59 21.1006C160.979 21.1108 160.099 21.0251 159.527 21.1664C159.205 21.246 159.119 21.6387 159.069 21.9211C158.917 22.7601 159.075 23.6102 159.265 24.4282C164.541 24.7705 170.764 23.5669 174.727 28.0598C176.657 30.2468 177.101 33.3604 176.927 36.2004C176.768 38.7982 175.958 41.1144 173.989 42.8729C172.612 44.1034 170.875 44.8558 169.093 45.2615C166.028 45.9591 162.523 45.6767 159.384 45.6852C157.369 45.6906 155.291 45.7961 153.284 45.6657C152.11 45.5895 150.613 44.8106 149.839 43.9054C149.296 43.2707 148.744 42.2498 148.663 41.4079C148.459 40.6469 148.504 39.7592 148.5 38.9733L148.488 35.0603L148.457 23.3277L148.448 16.4126C148.448 15.2436 148.347 13.9669 148.519 12.8119L148.557 12.7032Z" fill="url(#paint5_linear_234_1251)"/>
<path d="M148.557 12.7031L148.622 12.7152C150.522 13.0537 152.764 12.8501 154.701 12.843L166.495 12.8543C166.02 12.9805 165.481 12.9292 164.993 12.9307L162.405 12.9327L152.404 12.9204C151.508 12.9205 150.118 12.7395 149.279 13.0123L149.178 12.9641L149.237 13.1623L149.796 13.1323L149.884 12.984L150.012 13.0395C150.752 13.3476 152.12 13.1658 152.942 13.1623C153.158 13.0151 153.217 13.0465 153.471 13.1024L153.602 13.1353C153.992 13.2282 154.506 13.1812 154.909 13.1861L154.815 13.3286C154.1 13.4192 153.341 13.333 152.617 13.331L149.187 13.3492L149.178 15.8558L149.219 15.9282C149.478 16.4777 149.04 17.2282 149.285 17.8688L149.231 17.9634C149.061 18.3059 149.134 19.5902 149.202 19.9828C149.228 20.1305 149.235 20.2552 149.238 20.4034C149.249 20.7221 149.248 21.1627 149.06 21.4386C148.884 21.7146 148.954 22.3874 148.944 22.7349L148.848 22.6994L148.814 19.1885C148.808 19.0213 148.707 18.9164 148.702 18.7506C148.676 17.8148 148.911 14.0337 148.649 13.4616C148.554 13.2533 148.543 13.0385 148.519 12.8118L148.557 12.7031Z" fill="#EF7006"/>
<path d="M148.519 12.812C148.543 13.0388 148.554 13.2536 148.649 13.4619C148.911 14.034 148.676 17.815 148.702 18.7509C148.707 18.9166 148.808 19.0215 148.814 19.1887L148.848 22.6996L148.944 22.7351C148.954 22.3877 148.884 21.7148 149.06 21.4389L149.328 22.0968L149.295 22.161C149.187 22.3798 149.16 22.492 149.178 22.7351L149.312 22.862L149.198 23.2987C149.016 23.9431 149.455 24.5983 149.196 25.2166C149.109 25.4247 149.182 25.6409 149.22 25.8545C149.248 26.0213 149.245 26.147 149.211 26.3122C149.14 26.6657 149.129 27.1898 149.314 27.5053L149.178 27.7021L149.197 27.8108C149.256 28.1878 149.174 28.6266 149.175 29.0124C149.176 29.6962 149.255 30.3978 149.189 31.08C149.143 31.5642 149.367 32.1172 149.121 32.5465L149.14 32.6414C149.197 32.9562 149.151 33.3007 149.177 33.6223C149.221 34.1463 149.12 34.6226 149.208 35.1628L149.073 35.4739C148.958 35.2605 148.981 34.9714 148.973 34.7309C148.863 35.1382 148.863 35.7209 148.943 36.1368C148.97 35.983 148.987 35.8396 149.068 35.7036C149.165 35.9502 149.181 35.9487 149.084 36.1846C149.044 36.2815 148.993 36.3562 148.929 36.4379L148.884 39.9061H149.002V38.5898C149.216 38.8562 149.185 40.5532 149.121 40.9765C149.101 41.1054 149.036 41.2308 148.973 41.3426C148.875 41.3553 148.742 41.3478 148.663 41.408C148.459 40.647 148.504 39.7594 148.5 38.9735L148.488 35.0604L148.457 23.3278L148.448 16.4128C148.448 15.2437 148.347 13.9671 148.519 12.812Z" fill="#EE5F1E"/>
<path d="M159.731 32.249L161.938 32.2222C163.101 32.237 164.944 32.2253 165.796 33.1578C166.305 33.7156 166.606 34.4404 166.573 35.2062C166.533 36.157 166.055 36.8332 165.384 37.4412C163.845 38.1498 160.923 37.916 159.227 37.7646C158.96 36.1672 159.05 34.2268 159.151 32.607C159.332 32.3021 159.404 32.3382 159.731 32.249Z" fill="#FEFEFE"/>
<path d="M113.144 60.0933L113.875 60.0475L124.017 60.0342L128.498 60.02C129.405 60.0187 130.38 59.9647 131.275 60.1187C131.97 60.2382 132.713 60.5992 133.224 61.0952C133.881 61.7311 134.317 62.644 134.477 63.5462C134.594 64.2094 134.536 64.9617 134.537 65.6371L134.534 69.4133L134.55 83.796C135.322 84.109 136.199 84.4019 136.87 84.9083C137.993 85.756 138.561 86.8315 138.734 88.2296C138.908 89.6361 138.823 91.1665 138.813 92.5854C138.805 93.6073 138.882 94.7862 138.667 95.7839C138.513 96.4981 138.155 97.2496 137.71 97.8227C136.99 98.7453 135.852 99.4214 134.701 99.547C133.429 99.6858 132.291 99.425 131.284 98.5969C130.104 97.6265 129.53 96.3987 129.365 94.8867L129.387 93.2291C128.044 93.0389 126.677 93.0974 125.325 93.0998L119.276 93.1205L116.192 93.1623C115.846 93.177 115.357 93.1448 115.033 93.2556C114.874 93.3093 114.936 93.5661 114.931 93.7252C114.904 94.7997 114.936 95.8287 114.443 96.8152C113.861 97.9843 112.897 98.9403 111.663 99.3544C110.49 99.748 109.095 99.6212 108.008 99.0468C106.879 98.4497 106.003 97.2795 105.635 96.0523C105.341 95.0704 105.453 93.7657 105.441 92.7365C105.422 91.1256 105.203 89.0185 105.613 87.457C105.827 86.6373 106.338 85.8971 106.951 85.3315C107.477 84.8455 108.085 84.5572 108.733 84.2816C108.912 84.2049 109.624 83.9886 109.729 83.8687C109.916 83.6527 109.811 70.7935 109.809 69.4685L109.818 65.1275C109.831 64.1511 109.81 62.9723 110.303 62.1055C110.952 60.9605 111.921 60.4084 113.144 60.0933Z" fill="url(#paint6_linear_234_1251)"/>
<path d="M121.438 69.1864L122.483 69.1675C123.122 69.2325 123.86 69.6686 124.254 70.1854C124.635 70.6841 124.59 71.4133 124.599 72.0146L124.615 75.3423C124.617 78.1717 124.849 81.1824 124.545 83.9874C124.266 84.1726 123.51 84.1249 123.159 84.1434L119.728 84.0696C119.561 82.786 119.611 81.3999 119.616 80.1054L119.688 73.8386C119.706 72.8745 119.521 71.2244 119.887 70.3816C120.171 69.7323 120.829 69.4258 121.438 69.1864Z" fill="#FEFEFE"/>
<path d="M82.0851 12.6032L93.0244 12.53L97.7356 12.5199C98.5694 12.5202 99.6819 12.4098 100.467 12.7122C101.16 12.9791 101.713 13.2318 102.241 13.7745C102.77 14.3172 103.115 15.0216 103.252 15.7706C103.438 16.7819 103.392 17.8204 103.389 18.8443L103.365 23.1715L103.372 36.4447C104.14 36.6879 104.849 36.8899 105.542 37.3267C106.512 37.9377 107.245 38.867 107.502 40.0091C107.795 41.3087 107.688 42.8164 107.686 44.1498C107.682 45.592 107.783 47.2282 107.485 48.6355C107.375 49.1496 107.126 49.6211 106.843 50.0569C106.143 51.1368 104.887 51.8868 103.646 52.1167C102.417 52.3444 101.333 51.9752 100.328 51.2621C98.961 50.2919 98.4847 48.9764 98.1977 47.3756L98.246 45.7109C95.2071 45.4415 91.9695 45.6658 88.9178 45.6841L85.6743 45.7073C85.1051 45.7127 84.4489 45.6446 83.9091 45.8375C83.4762 46.4132 83.8856 47.7363 83.6386 48.4999L83.3208 49.3611C82.7284 50.6389 81.6622 51.5355 80.3499 51.9731C79.142 52.376 77.9618 52.1536 76.853 51.5648C75.9489 51.0849 75.0214 50.1416 74.7224 49.133C74.3056 47.7274 74.4421 46.0664 74.4369 44.6103C74.4312 42.961 74.1185 40.3256 74.9879 38.8972C76.389 36.5955 78.4224 36.7653 78.5598 36.2766C78.6561 35.9342 78.5923 35.4033 78.5925 35.0432L78.5921 32.538L78.6058 21.9406C78.6051 20.0765 78.4514 18.0472 78.66 16.1999C78.7094 15.7634 78.8366 15.3244 79.0522 14.9418C79.776 13.6575 80.6953 12.9669 82.0851 12.6032Z" fill="#EE5F1E"/>
<path d="M90.3055 21.673L91.1416 21.6025C91.8225 21.6102 92.4917 22.0732 92.9409 22.5571C93.1773 22.8117 93.3114 23.1071 93.3631 23.4535C93.5995 25.0316 93.4408 26.9118 93.4372 28.5164L93.4255 36.5641C92.901 36.7404 92.1836 36.6847 91.6285 36.7088L88.5438 36.5983C88.385 35.3307 88.4332 33.996 88.4309 32.7184L88.4838 26.6558C88.5097 25.5814 88.3886 23.9876 88.7461 22.9946C88.9942 22.3076 89.7081 21.9774 90.3055 21.673Z" fill="#FEFEFE"/>
<path d="M63.2959 84.7752L63.3225 79.0556C63.3482 78.1846 63.3146 77.1598 63.5518 76.3184C65.0137 75.4349 66.2107 74.3462 66.6447 72.6019C66.9886 71.2196 66.8889 69.8194 66.1473 68.5722C65.3883 67.2957 64.3042 66.3955 62.8628 66.0432C61.436 65.6944 60.022 65.967 58.7871 66.7567C57.6148 67.5065 56.8205 68.6883 56.542 70.0631C56.2541 71.4837 56.4833 72.8884 57.2776 74.1011C57.7174 74.7729 58.3306 75.3594 58.9512 75.8532C59.1589 76.0184 59.7064 76.333 59.8379 76.5302C60.1564 77.0075 59.9749 84.3381 60.0431 85.5251L57.0143 82.4143C54.0072 79.4188 51.3241 76.5924 51.3463 71.9871C51.3613 68.9027 52.5733 65.8542 54.7396 63.6953C56.8082 61.6337 59.924 60.2187 62.8449 60.2673C66.638 60.3304 69.4876 62.2801 72.0133 64.9858L73.3971 66.5102C76.5054 63.2856 79.4718 60.2665 84.2396 60.2684C87.1644 60.2696 90.1056 61.5781 92.1402 63.6873C94.4334 66.0644 95.5553 68.8923 95.5165 72.2121C95.493 74.1639 94.8803 76.2775 93.8383 77.9247C92.8258 79.5269 91.471 80.8086 90.1562 82.1479L85.4204 86.9536L73.4649 99.0839L65.9636 91.5093C65.1953 90.7285 63.914 89.7585 63.3791 88.8339L63.2959 84.7752Z" fill="#EE5F1E"/>
<path d="M116.457 14.7408C120.819 11.8461 126.761 11.1669 131.799 12.2599C133.919 12.7199 136.023 13.4613 137.798 14.7594C141.014 16.7738 143.269 20.4895 144.125 24.1752C145.202 28.8195 144.943 34.3623 142.397 38.5077C140.017 42.3825 136.535 44.8716 132.171 45.8756C126.766 47.1189 121.091 46.4931 116.351 43.4724C113.051 41.3697 110.788 37.6681 109.957 33.8453C109.008 29.4836 109.307 24.4087 111.407 20.4293C112.525 18.1065 114.326 16.1374 116.457 14.7408Z" fill="#EE5F1E"/>
<path d="M116.457 14.7408C120.819 11.8461 126.761 11.1669 131.799 12.2599C133.919 12.7199 136.023 13.4613 137.798 14.7594C137.874 14.9766 137.998 15.1532 138.124 15.3431C137.897 15.5428 137.846 15.1002 137.653 15.077C137.605 15.0711 137.215 15.3326 136.97 15.3282C136.894 14.8798 136.264 14.9184 135.956 14.5529C135.802 14.3699 135.58 14.4056 135.361 14.3907C135.052 14.1101 134.744 13.943 134.339 13.8521C134.215 13.8243 134.142 13.6569 134.068 13.5513L134.302 13.5214L134.362 13.4317L134.072 13.3363L133.943 13.3526L133.718 13.368C133.467 13.411 133.212 13.4939 132.95 13.4588C132.648 13.4181 132.488 13.3026 132.304 13.0727L132.626 13.0129C132.458 12.89 132.271 12.7954 132.088 12.6949L132.035 12.8414C131.92 12.9074 131.883 12.9145 131.747 12.9085C131.653 12.9043 131.592 12.9029 131.499 12.9248C131.275 12.9772 131.153 12.9869 130.925 12.935C130.789 12.9039 130.697 12.877 130.555 12.8822C130.304 12.8914 130.06 12.8482 129.81 12.8155L129.775 12.624L130.377 12.4994C130.143 12.4195 129.979 12.4596 129.74 12.5061L129.643 12.5259L129.54 12.3547C129.173 12.1726 128.807 12.2443 128.412 12.2477L126.127 12.2949L127.743 12.3486L127.649 12.4912C127.097 12.5007 126.095 12.6517 125.619 12.3929L125.777 12.2949C125.304 12.159 124.457 12.4675 123.953 12.559C123.527 12.3336 122.886 12.5445 122.424 12.624C122.633 12.6644 122.763 12.7367 122.941 12.8534L122.716 13.0523C122.264 13.0893 122.184 13.0498 121.806 12.8334L121.482 12.9813C121.27 12.9514 121.17 12.9427 120.963 13.0245C120.848 13.1877 120.86 13.2306 120.852 13.4351C120.556 13.5541 120.332 13.7257 120.079 13.9153C119.56 13.944 119.526 14.0872 119.031 13.8135C118.744 13.9293 118.483 14.0437 118.22 14.2094C118.462 14.2291 118.565 14.2024 118.778 14.0813L118.839 14.0454L118.833 14.2957C118.362 14.4455 118.12 14.6615 117.779 15.0159C117.418 15.0025 117.367 14.9563 117.067 14.7431C116.822 14.9221 116.584 15.0946 116.365 15.3058C116.113 15.5473 115.786 15.6657 115.507 15.8727C115.196 16.1036 114.928 16.4102 114.662 16.6923L114.868 16.7223C115.147 16.4387 115.304 16.1778 115.699 16.1008C115.592 16.546 115.12 16.7069 114.93 17.1875C114.794 17.2383 114.632 17.2625 114.548 17.3839C114.419 17.5722 114.319 17.7049 114.132 17.8351L114.118 18.1196C113.958 18.1775 113.811 18.2286 113.661 18.3136L113.721 18.3676L113.898 18.3537C113.718 18.6786 113.456 18.7985 113.106 18.8998L113.045 18.6966L113.486 18.2479L113.427 18.127C113.221 18.2185 112.952 18.5552 112.875 18.7727L112.853 18.8456C112.77 19.1227 112.22 19.8055 112.038 20.1002C111.969 20.2142 111.947 20.2967 111.922 20.4269L112.108 20.7592C111.962 20.9665 111.81 21.1162 111.557 21.1777C111.485 21.1954 111.423 21.1837 111.347 21.1795C111.374 20.9316 111.413 20.6786 111.407 20.4293C112.525 18.1065 114.326 16.1374 116.457 14.7408Z" fill="#EF7006"/>
<path d="M126.131 21.5708C127.903 21.4026 129.573 21.6832 131.064 22.725C132.551 23.7641 133.309 25.4053 133.632 27.1617C134.061 29.4967 133.759 32.2995 132.379 34.282C131.356 35.7507 129.681 36.3244 128.023 36.6356C126.354 36.8009 124.589 36.5044 123.179 35.5426C121.656 34.5042 120.823 32.864 120.485 31.0663C120.06 28.8201 120.38 26.1132 121.657 24.2002C122.733 22.5896 124.317 21.9202 126.131 21.5708Z" fill="#FEFEFE"/>
<path d="M151.714 60.1612C153.949 59.5473 156.183 59.1883 158.506 59.223C163.289 59.2944 167.93 60.7364 171.312 64.2975C174.384 67.5298 175.906 72.2711 175.813 76.7306C175.716 81.4043 174.316 85.9219 170.928 89.205C167.215 92.8035 162.311 94.0241 157.282 93.8871C155.027 93.8256 152.209 93.4365 150.179 92.4053C149.362 91.9897 148.579 91.6675 147.795 91.1622C144.955 89.328 142.711 86.5733 141.612 83.3249C140.542 80.165 140.284 76.7408 140.764 73.4401C140.918 72.3755 141.104 71.299 141.504 70.2972C141.381 69.8368 142.326 68.1547 142.574 67.7129C142.75 67.1619 143.056 66.7458 143.39 66.2822C144.856 64.1836 146.625 62.6041 148.84 61.3638C149.264 61.1261 149.715 60.9858 150.143 60.7703C150.64 60.5211 151.192 60.3528 151.714 60.1612Z" fill="url(#paint7_linear_234_1251)"/>
<path d="M141.504 70.2973C141.381 69.8368 142.326 68.1547 142.574 67.7129L142.847 67.9942C142.803 68.5615 142.87 69.5574 142.651 70.0597L142.622 69.7002L142.424 69.8878L142.153 69.8322C142.088 69.92 141.87 70.161 141.845 70.2535C141.787 70.4596 141.996 70.6498 141.818 70.8313C141.651 71.0015 141.598 71.389 141.541 71.6188L141.418 71.4956C141.488 71.0853 141.554 70.7147 141.504 70.2973Z" fill="#EF7006"/>
<path d="M143.39 66.2821C144.856 64.1834 146.625 62.604 148.84 61.3637C149.264 61.1259 149.715 60.9857 150.143 60.7702C150.64 60.5209 151.192 60.3527 151.714 60.1611L152.449 60.2846C152.386 60.466 152.365 60.434 152.207 60.5169L152.705 60.6066L152.68 60.7569C152.372 60.8252 151.836 60.8748 151.614 61.1013C151.428 61.2891 150.906 61.3604 150.645 61.3565C150.508 61.3544 150.401 61.2953 150.29 61.2235C150.2 61.2464 149.972 61.2748 149.905 61.3224C149.826 61.3794 149.724 61.6528 149.649 61.6823C149.611 61.6972 149.381 61.5513 149.321 61.5537C149.074 61.5636 148.758 62.0422 148.497 62.167C148.268 62.2766 148.079 62.3861 147.883 62.5511L148.242 62.6238L147.655 62.9745L147.399 62.8946L146.83 63.2234L146.652 63.5007C146.302 63.5284 146.218 63.6956 146.004 63.9602L145.851 64.156C145.687 64.3654 145.587 64.4718 145.312 64.5019L145.18 64.7348L145.315 64.8598L144.58 65.9774L144.499 66.0123C144.248 66.1238 144.18 66.2294 143.981 66.3771L143.885 66.4153L143.967 66.5462C143.852 66.7567 143.749 66.8396 143.55 66.9673C143.389 66.7189 143.409 66.5747 143.39 66.2821Z" fill="#EE5F1E"/>
<path d="M157.465 68.9624C159.03 68.8372 160.883 69.2745 162.173 70.2023C163.761 71.3429 164.487 73.0938 164.792 74.9826C165.169 77.2973 164.719 79.9059 163.338 81.8284C162.312 83.2548 160.673 83.8208 159.026 84.0836C157.45 84.3135 155.684 83.9305 154.35 83.0454C152.871 82.0628 152.002 80.5769 151.648 78.8447C151.191 76.6107 151.387 73.6091 152.673 71.6841C153.818 69.9729 155.551 69.3095 157.465 68.9624Z" fill="#FEFEFE"/>
<path d="M256.141 59.2765C260.724 58.9913 265.639 59.9069 269.288 62.8798C272.922 65.8395 274.715 69.8409 275.21 74.49C275.722 79.3008 274.599 84.1995 271.58 88.0002C268.512 91.8615 264.226 93.2832 259.548 93.8021C258.127 93.8571 256.609 93.947 255.197 93.8049C251.691 93.4521 248.352 92.1692 245.622 89.8989C242.667 87.4432 240.64 83.5001 240.271 79.6349C239.765 74.3284 240.358 69.2383 243.834 65.0102C246.955 61.2147 251.459 59.7208 256.141 59.2765Z" fill="url(#paint8_linear_234_1251)"/>
<path d="M257.075 68.9611C258.627 68.8321 260.571 69.327 261.806 70.288C263.47 71.5836 264.226 73.7264 264.473 75.7823C264.718 77.8274 264.01 80.3144 262.748 81.9258C261.657 83.3177 260.077 83.8975 258.4 84.0992C256.741 84.3062 254.98 83.8418 253.61 82.8836C252.284 81.9554 251.476 80.473 251.197 78.8812C250.772 76.4623 250.874 73.5471 252.339 71.4798C253.461 69.8978 255.257 69.2453 257.075 68.9611Z" fill="#FEFEFE"/>
<path d="M36.3658 12.2282L37.2211 12.1548C39.4158 12.0955 41.6552 12.9296 43.2385 14.4753C47.1912 18.3346 45.7601 24.1593 45.8663 29.1368C45.9052 29.2085 45.9869 29.415 46.0413 29.4597C46.5646 29.8892 54.7148 29.4865 56.3208 29.7862C57.5749 30.0201 58.9281 30.6596 59.9216 31.4801C61.8088 33.0385 62.8866 35.431 63.1069 37.8679C63.2901 39.8965 62.3536 42.2084 61.0888 43.7465C57.4078 48.2232 51.2178 46.4866 46.2177 46.892C45.9519 47.1315 45.8486 47.1778 45.7848 47.5453C45.6806 48.1453 45.9185 49.0087 45.9457 49.632L45.9961 53.6767C45.994 55.6831 45.9925 57.5425 45.0849 59.3827C43.7841 62.0203 41.7845 63.2651 39.1205 64.1794C39.1271 63.7408 39.1039 60.3952 39.1791 60.289C39.2656 60.1664 39.6545 59.9578 39.7954 59.8571C41.0284 58.9758 41.929 58.1895 42.4704 56.6952C42.9857 55.2727 42.9169 54.2722 42.2982 52.915C41.5487 51.2712 40.404 50.4518 38.7857 49.8463C37.9983 49.6599 37.312 49.5863 36.5101 49.7532C35.1366 50.0391 33.8666 50.8623 33.0949 52.0591C32.3356 53.2368 32.0697 54.8615 32.3708 56.2329C32.8184 58.2719 34.2745 59.2748 35.9161 60.3179L35.9013 64.1439C34.1019 63.7202 32.5296 62.8126 31.2522 61.4418C28.8355 58.8483 28.9439 55.7819 28.958 52.4449L29.0172 47.2052C28.9918 47.1554 28.9055 46.9423 28.8714 46.9193C28.5782 46.7211 27.6648 46.8053 27.3016 46.8036L22.7081 46.7921C20.2918 46.7858 17.7137 46.8676 15.6457 45.3631C13.7696 43.9981 12.3711 41.9462 12.0044 39.6097C11.6542 37.3786 12.165 35.0394 13.4684 33.2129C14.7159 31.4644 16.5261 30.2276 18.616 29.7769C19.5975 29.5652 20.6619 29.5962 21.6602 29.5945L25.7334 29.6104C26.7977 29.6225 27.8628 29.6832 28.9186 29.514C29.6567 25.1862 27.8996 19.9383 30.4202 16.0705C31.8442 13.8852 33.8813 12.7365 36.3658 12.2282Z" fill="#80A836"/>
</g>
<defs>
<linearGradient id="paint0_linear_234_1251" x1="45.878" y1="111.091" x2="39.0151" y2="82.7936" gradientUnits="userSpaceOnUse">
<stop stop-color="#646363"/>
<stop offset="1" stop-color="#7A7778"/>
</linearGradient>
<linearGradient id="paint1_linear_234_1251" x1="224.72" y1="92.617" x2="224.882" y2="60.5037" gradientUnits="userSpaceOnUse">
<stop stop-color="#FF8118"/>
<stop offset="1" stop-color="#F45F26"/>
</linearGradient>
<linearGradient id="paint2_linear_234_1251" x1="195.097" y1="93.099" x2="193.292" y2="60.154" gradientUnits="userSpaceOnUse">
<stop stop-color="#FF8218"/>
<stop offset="1" stop-color="#F25D24"/>
</linearGradient>
<linearGradient id="paint3_linear_234_1251" x1="292.834" y1="92.8741" x2="293.758" y2="60.5231" gradientUnits="userSpaceOnUse">
<stop stop-color="#FE811A"/>
<stop offset="1" stop-color="#F46025"/>
</linearGradient>
<linearGradient id="paint4_linear_234_1251" x1="193.955" y1="12.5094" x2="195.48" y2="44.7032" gradientUnits="userSpaceOnUse">
<stop stop-color="#F46E14"/>
<stop offset="1" stop-color="#F4572B"/>
</linearGradient>
<linearGradient id="paint5_linear_234_1251" x1="161.372" y1="12.2745" x2="163.114" y2="45.1906" gradientUnits="userSpaceOnUse">
<stop stop-color="#F46D13"/>
<stop offset="1" stop-color="#F65A2C"/>
</linearGradient>
<linearGradient id="paint6_linear_234_1251" x1="121.805" y1="99.2153" x2="122.666" y2="60.4758" gradientUnits="userSpaceOnUse">
<stop stop-color="#FF9314"/>
<stop offset="1" stop-color="#F45B24"/>
</linearGradient>
<linearGradient id="paint7_linear_234_1251" x1="157.963" y1="93.3375" x2="158.16" y2="59.5827" gradientUnits="userSpaceOnUse">
<stop stop-color="#FC8517"/>
<stop offset="1" stop-color="#F35C25"/>
</linearGradient>
<linearGradient id="paint8_linear_234_1251" x1="257.403" y1="93.2437" x2="257.838" y2="59.5738" gradientUnits="userSpaceOnUse">
<stop stop-color="#FD8517"/>
<stop offset="1" stop-color="#F45B25"/>
</linearGradient>
<clipPath id="clip0_234_1251">
<rect width="308" height="112" fill="white"/>
</clipPath>
</defs>
</svg>
