<svg width="14" height="15" viewBox="0 0 14 15" fill="none" xmlns="http://www.w3.org/2000/svg">
<g clip-path="url(#clip0_111_5153)">
<path d="M8.40313 7.50075L13.8426 2.05677C13.8923 2.00716 13.9318 1.9482 13.9587 1.88327C13.9857 1.81835 13.9996 1.74874 13.9996 1.67844C13.9996 1.60814 13.9857 1.53853 13.9587 1.47361C13.9318 1.40868 13.8923 1.34972 13.8426 1.30011L13.1952 0.652254C13.0935 0.55484 12.9581 0.500473 12.8172 0.500473C12.6764 0.500473 12.541 0.55484 12.4392 0.652254L6.99978 6.09623L1.56035 0.652254C1.45879 0.554614 1.3235 0.499947 1.18267 0.499635C1.04184 0.499323 0.906317 0.553391 0.80432 0.65058L0.155335 1.29843C0.0552374 1.39886 -0.000976562 1.53492 -0.000976562 1.67677C-0.000976562 1.81862 0.0552374 1.95468 0.155335 2.0551L5.59643 7.50075L0.157008 12.9447C0.107244 12.9943 0.0677574 13.0533 0.0408146 13.1182C0.0138717 13.1832 2.41003e-06 13.2528 2.41003e-06 13.3231C2.41003e-06 13.3934 0.0138717 13.463 0.0408146 13.5279C0.0677574 13.5928 0.107244 13.6518 0.157008 13.7014L0.80432 14.3493C0.906102 14.4467 1.04151 14.501 1.18234 14.501C1.32317 14.501 1.45857 14.4467 1.56035 14.3493L6.99978 8.90527L12.4392 14.3493C12.541 14.4467 12.6764 14.501 12.8172 14.501C12.9581 14.501 13.0935 14.4467 13.1952 14.3493L13.8426 13.7014C13.9426 13.601 13.9989 13.4649 13.9989 13.3231C13.9989 13.1812 13.9426 13.0452 13.8426 12.9447L8.40313 7.50075Z" fill="white"/>
</g>
<defs>
<clipPath id="clip0_111_5153">
<rect width="14" height="14" fill="white" transform="translate(0 0.5)"/>
</clipPath>
</defs>
</svg>
