<svg width="107" height="38" viewBox="0 0 107 38" fill="none" xmlns="http://www.w3.org/2000/svg">
<g clip-path="url(#clip0_111_5106)">
<path d="M22.0209 30.1036C21.9188 30.9292 21.8809 31.0983 21.8809 31.0983L21.6553 30.8743C21.5795 30.8024 21.4454 30.8109 21.3476 30.7854C21.2567 30.7617 21.1813 30.701 21.1074 30.6458L21.0312 30.6505C21.006 30.7264 21.006 30.7618 21.0086 30.8414L20.9947 30.9292L21.0503 31.0171L21.0263 31.0374C20.9131 31.138 20.9237 31.1838 20.8806 31.3181L20.8586 31.3629V29.0074L22.0209 30.1036Z" fill="#6E6C6D"/>
<path d="M95.306 0.014311C95.6917 -0.00338986 96.061 0.0783345 96.3903 0.28161C96.789 0.528082 97.1016 0.941333 97.2025 1.40054C97.3161 1.91589 97.2441 2.37823 96.9549 2.82046C96.6256 3.32352 96.1717 3.53824 95.5973 3.6587C95.1532 3.66613 94.7585 3.60702 94.3855 3.35092C93.9234 3.03357 93.6754 2.61528 93.5843 2.07228C93.5104 1.63211 93.6595 1.10178 93.9251 0.744878C94.2756 0.273938 94.7471 0.0989178 95.306 0.014311Z" fill="#EF7006"/>
<path d="M6.96413 29.5497C7.09328 29.5214 7.14745 29.5371 7.27214 29.5491C7.50796 29.5718 7.65238 29.508 7.88697 29.6326L7.89057 29.6663C7.93363 30.0874 7.91067 30.5195 7.93093 30.9429C7.97877 31.9417 8.25982 32.9191 8.7824 33.7774C9.74822 35.3298 11.1252 36.3655 12.9217 36.7901C13.5729 36.944 14.1917 37.0183 14.8599 36.9785C16.0829 36.8027 17.2072 36.4877 18.2159 35.7476C19.7566 34.6165 20.5892 33.0616 20.8761 31.2005L20.8981 31.1558C20.9411 31.0215 20.9587 30.9562 20.9791 30.8547V30.7938V30.7532L20.9995 30.6517C20.9969 30.572 21.0235 30.564 21.0487 30.4881L21.1249 30.4834C21.1988 30.5386 21.2741 30.5994 21.365 30.6231C21.4628 30.6486 21.5969 30.64 21.6728 30.7119L21.8802 30.8866C21.8871 30.9146 21.891 30.925 21.8907 30.9573C21.8887 31.2219 21.8133 31.5276 21.7694 31.7895C21.4957 33.4197 20.7612 34.6892 19.609 35.8641C18.2803 37.2189 16.2144 37.9695 14.3332 37.9846C14.005 37.9874 13.6741 37.9273 13.3501 37.879C11.7687 37.6431 10.2924 36.9554 9.15312 35.828C7.98143 34.6689 7.17572 33.1749 7.0058 31.5312C6.93872 30.8823 6.96781 30.2026 6.96413 29.5497Z" fill="url(#paint0_linear_111_5106)"/>
<path d="M8.78247 33.7773C9.74829 35.3298 11.1253 36.3655 12.9217 36.7901C13.573 36.944 14.1918 37.0183 14.86 36.9785C14.9498 36.9915 15.0886 36.9509 15.1524 36.9992L15.0489 37.0451L15.0654 37.1064L14.9939 37.1267C14.9449 37.0885 14.9126 37.063 14.8516 37.0455C14.5297 37.1681 14.316 37.1011 13.9965 37.0902C13.8575 37.0857 13.6613 37.1141 13.5333 37.0658L13.5437 37.0155C13.4977 37.0025 13.4575 36.9891 13.4161 36.9655C13.3291 36.9156 13.1993 36.9927 13.1004 36.983C12.981 36.9708 12.9259 36.9777 12.8078 37.0045C12.7671 36.9842 12.7415 36.9732 12.6955 36.9696C12.5828 36.9603 12.4802 36.9274 12.3865 36.8644C12.3161 36.8173 12.174 36.8681 12.0931 36.8425C12.0087 36.8161 11.9515 36.7207 11.877 36.6886C11.8378 36.6716 11.7507 36.6696 11.7058 36.6635C11.6115 36.6505 11.569 36.6204 11.4919 36.5624C11.3937 36.4889 11.312 36.4755 11.1945 36.4491L11.215 36.4065C11.1483 36.3708 11.0214 36.3237 10.97 36.2745C10.9454 36.251 10.9222 36.1759 10.8965 36.1609C10.8567 36.1373 10.7713 36.154 10.7281 36.1329C10.661 36.1004 10.6244 36.0216 10.5457 35.9928C10.4716 35.9656 10.458 35.8669 10.3981 35.828C10.3784 35.8154 10.2967 35.8397 10.2751 35.8276C10.197 35.7833 10.1474 35.679 10.0584 35.6315C9.99044 35.5953 9.94607 35.5446 9.88695 35.4975C9.64207 35.3022 9.37361 34.9811 9.17885 34.7318C9.08064 34.606 9.04019 34.4314 8.91027 34.3392L8.89029 34.3258L9.00857 34.3055C8.93842 34.2385 8.9651 34.2191 8.92408 34.1606C8.88453 34.1038 8.819 34.0636 8.75105 34.0514L8.70873 34.0449C8.66751 33.8906 8.71179 33.9162 8.78247 33.7773Z" fill="#676666"/>
<path d="M1.22594 20.3719C0.946857 20.3015 0.622139 20.0096 0.440497 19.797C0.105565 19.405 -0.00821711 18.94 0.0421575 18.4317C0.0838298 18.0114 0.319647 17.6122 0.648164 17.3488C1.02436 17.0472 1.52762 16.8979 2.00836 16.9581C2.50978 17.0208 2.87298 17.2243 3.18119 17.6251C3.46424 17.9932 3.61834 18.4538 3.54668 18.9168C3.47012 19.4115 3.16379 19.8554 2.75805 20.1437C2.61036 20.2488 2.45707 20.3335 2.32119 20.455L2.28765 22.381C2.28127 23.3266 2.25468 24.2866 2.58462 25.1897C2.67643 25.4409 2.79021 25.6867 2.92532 25.9179L3.25984 26.4455C3.27757 26.4712 3.36394 26.5752 3.36598 26.5991C4.39566 27.7446 5.62393 28.4359 7.19102 28.5187C7.99051 28.561 8.69486 28.3934 9.43699 28.1164C10.7262 27.4749 11.7491 26.5299 12.2182 25.1401C12.4723 24.3872 12.5555 23.5813 12.5842 22.792C12.595 22.4948 12.6208 22.1844 12.5916 21.8882C12.9162 21.9088 13.2157 21.9073 13.5387 21.8672C13.5543 22.5146 13.5767 23.1948 13.5097 23.8387C13.3625 25.2551 12.8211 26.541 11.824 27.5751C11.2224 28.199 10.4889 28.7003 9.68629 29.0297C9.39263 29.1502 9.08895 29.2533 8.78241 29.3364L8.15732 29.4864C8.11667 29.4956 8.00436 29.5068 7.97254 29.5279C7.94549 29.5459 7.90925 29.6056 7.88719 29.6327C7.6526 29.5081 7.50818 29.5719 7.27236 29.5492C7.14767 29.5372 7.09349 29.5215 6.96435 29.5498C6.27508 29.4107 5.5823 29.2712 4.93278 28.9936C3.15508 28.2337 1.71992 26.5049 1.40791 24.5914C1.3356 24.148 1.33956 23.6872 1.33229 23.2391L1.32077 21.2493C1.32138 20.9919 1.39823 20.5751 1.22594 20.3719Z" fill="#676666"/>
<path d="M86.1045 4.2684C86.507 4.21903 86.8804 4.27303 87.2407 4.4597C87.673 4.68336 88.0219 5.12685 88.1632 5.58643C88.3365 6.15103 88.2417 6.9135 88.2388 7.5107L88.2307 10.1992C88.2323 11.3868 88.3238 12.6206 88.2339 13.8034C88.2164 14.0354 88.1653 14.25 88.0529 14.4562C87.7404 15.0281 87.3073 15.308 86.6916 15.4869C86.2749 15.5234 85.9566 15.5109 85.5783 15.306C85.106 15.05 84.7437 14.6469 84.5941 14.1288C84.4372 13.5853 84.5165 12.8641 84.5173 12.3011L84.5218 9.36036L84.519 7.22509C84.5185 6.81761 84.4961 6.39401 84.5341 5.98827C84.5602 5.70518 84.6387 5.43857 84.7804 5.19112C85.0644 4.69704 85.5718 4.41517 86.1045 4.2684Z" fill="#EE5F1E"/>
<path d="M74.5216 20.4342C75.0466 20.3942 75.583 20.4134 76.1096 20.4142L78.7317 20.4183L80.6307 20.4124C80.9743 20.4113 81.346 20.383 81.686 20.4252C81.9572 20.4589 82.2118 20.5447 82.4295 20.7102C82.7825 20.9785 83.0178 21.4197 83.0661 21.8571C83.1073 22.2318 82.9288 22.6329 82.698 22.9204C82.0512 23.7256 80.9216 23.481 80.0121 23.5768C79.9414 24.2551 79.9958 24.9919 79.997 25.6767L80.0023 29.8199C79.9807 30.2503 79.8426 30.6192 79.559 30.9494C79.2637 31.2936 78.7281 31.5576 78.2729 31.5895C77.8027 31.6224 77.2544 31.4175 76.9043 31.1049C76.6428 30.8718 76.4348 30.505 76.3593 30.1653C76.2265 29.5706 76.3086 28.824 76.309 28.2084L76.2963 23.55C75.5793 23.5029 74.7561 23.6613 74.0967 23.3237C73.7098 23.1257 73.4173 22.7485 73.2967 22.3366C73.1934 21.9836 73.2318 21.5929 73.4173 21.2735C73.6885 20.8068 74.0089 20.5731 74.5216 20.4342Z" fill="url(#paint1_linear_111_5106)"/>
<path d="M71.369 27.8776C71.715 28.3754 72.2903 29.1952 72.3434 29.7975C72.383 30.2457 72.1616 30.7282 71.869 31.0607C71.5929 31.3747 71.0687 31.579 70.6556 31.6034C70.2651 31.6265 69.7903 31.4297 69.5039 31.17C69.1493 30.8485 68.9034 30.3542 68.6607 29.9479L67.6895 28.3273C67.5776 28.1373 67.4113 27.7765 67.2414 27.6422C67.0461 27.4878 66.5542 27.5669 66.3103 27.5833C66.2825 28.0976 66.3054 28.6239 66.3074 29.139C66.3103 29.8682 66.3372 30.3921 65.8274 30.9807C65.5132 31.3435 64.991 31.5701 64.5151 31.6033C64.0628 31.6348 63.5435 31.4018 63.2126 31.1037C62.8764 30.8008 62.65 30.3051 62.6321 29.8573L62.6219 24.925L62.6198 23.0261C62.6198 22.638 62.5916 22.2149 62.6623 21.8336C62.7236 21.5036 62.9148 21.1442 63.1493 20.9032C63.508 20.5345 64.0142 20.3457 64.5265 20.3514C64.9825 20.3565 65.4311 20.5536 65.7481 20.8769C66.3593 21.5009 66.3103 22.1511 66.3041 22.9545L66.2907 24.3593C66.5648 24.3788 66.8385 24.3709 67.1131 24.3665C67.1421 24.366 67.2826 24.3749 67.3026 24.3632C67.341 24.3406 67.4787 24.0569 67.5077 24.0053L68.5365 22.1957C68.7702 21.7807 68.9879 21.2997 69.3062 20.9446C69.5145 20.7123 69.7327 20.5613 70.0248 20.4497C70.4546 20.2855 70.9081 20.336 71.3208 20.521C71.7199 20.6999 72.0149 21.0658 72.1648 21.4701C72.231 21.6493 72.3107 21.9017 72.2952 22.0926C72.2457 22.7072 71.8511 23.2626 71.5308 23.7695C71.0928 24.4615 70.5653 25.1861 70.2271 25.9268L70.5347 26.5247L70.5429 26.5454L71.369 27.8776Z" fill="url(#paint2_linear_111_5106)"/>
<path d="M71.3689 27.8776C71.3767 27.9446 71.395 28.0184 71.3738 28.0839L71.3399 28.0673C71.2966 28.0411 71.2214 27.956 71.2104 27.9071C71.1912 27.8228 71.1658 27.7949 71.1041 27.7314C71.0674 27.6935 71.0796 27.6682 71.078 27.617C71.0572 27.6654 71.0335 27.6861 70.993 27.7195L70.9162 27.6069L70.9452 27.5663C70.9317 27.4439 70.9207 27.354 70.8329 27.2616L70.7818 27.3426L70.7136 27.3118C70.5726 27.2287 70.4374 26.9763 70.4145 26.8152C70.4051 26.7499 70.4317 26.7267 70.4656 26.6731L70.4509 26.6193C70.4811 26.5917 70.5097 26.5692 70.5428 26.5454L71.3689 27.8776Z" fill="#EF7006"/>
<path d="M74.0302 5.71067C74.0208 5.59387 74.0981 5.38252 74.1479 5.27136C74.333 4.86018 74.7628 4.52049 75.1811 4.36679C75.6579 4.1916 76.1396 4.22408 76.598 4.43511C77.0159 4.62755 77.3395 5.00304 77.4952 5.42872C77.7248 6.06404 77.6516 6.81279 77.6516 7.48112C79.4468 7.53378 81.4827 7.34297 82.8358 8.76192C83.4989 9.45745 83.8045 10.5216 83.7783 11.4691C83.7481 12.5496 83.5315 13.585 82.7095 14.3447C81.3838 15.5702 79.5539 15.4956 77.8653 15.5015L75.5942 15.5003C75.175 15.484 74.6525 15.1453 74.3828 14.8457C74.2186 14.663 74.076 14.4267 74.0323 14.183C73.9265 13.5942 73.9612 12.9426 73.96 12.3451L73.9816 9.15548C73.9882 8.14182 73.9073 7.09329 73.9763 6.08543C73.9849 5.96104 73.9922 5.82983 74.0302 5.71067Z" fill="#EE5F1E"/>
<path d="M74.0301 5.71067C74.0207 5.59387 74.0979 5.38252 74.1477 5.27136C74.3328 4.86018 74.7626 4.52049 75.181 4.36679C75.6578 4.1916 76.1394 4.22408 76.5978 4.43511C77.0158 4.62755 77.3394 5.00304 77.495 5.42872L77.5187 5.94768L77.4717 5.96778C77.4423 5.80725 77.3365 5.78996 77.3189 5.6229L77.4104 5.63305C77.4104 5.49193 77.3545 5.50338 77.2981 5.38564L77.2303 5.34598L77.196 5.4195L77.1894 5.39981C77.1363 5.25086 77.0092 5.2053 76.9263 5.07746C76.901 5.0384 76.8671 5.0188 76.8287 4.99362L76.8078 4.93074C76.7237 4.89091 76.644 4.77642 76.5933 4.76132C76.5071 4.73546 76.4589 4.71467 76.3882 4.65853C76.1783 4.49167 75.9278 4.62528 75.7051 4.476L75.9299 4.4557L75.8694 4.38546L75.8465 4.39025C75.7918 4.40085 75.753 4.40739 75.6986 4.39435C75.5372 4.35578 75.3113 4.44226 75.1712 4.52134C75.1336 4.54241 75.1119 4.54834 75.0719 4.55906C75.0143 4.57432 74.9939 4.59012 74.9514 4.62909C74.8411 4.73047 74.6388 4.79688 74.571 4.94288C74.7275 4.92067 74.7246 4.77062 74.9138 4.83306L74.8885 4.89968C74.7557 4.91279 74.7577 5.01072 74.6421 5.03402V5.05606C74.6396 5.10024 74.6253 5.13978 74.6131 5.18196L74.5857 5.19994C74.4648 5.28151 74.4227 5.3342 74.368 5.46615C74.1739 5.60114 74.2123 5.65757 74.133 5.8604C74.1008 5.9433 74.113 6.02372 74.1216 6.11028L74.1874 6.10545C74.2201 6.24937 74.2119 6.38566 74.2233 6.53067C74.2384 6.72384 74.2123 6.93934 74.2123 7.13596C74.2119 7.40338 74.2356 7.69296 74.2 7.9571C74.1804 8.10426 74.1665 8.32666 74.1964 8.46928C74.2168 8.56579 74.1894 8.67098 74.1862 8.76927L74.1759 9.39854C74.1763 9.48388 74.1596 9.57624 74.209 9.64688L74.1522 9.72332C74.1678 9.7744 74.1886 9.80606 74.1714 9.85766C74.1277 9.99062 74.1743 10.1287 74.1277 10.2761L74.0905 11.0631L74.0677 7.31414C74.0628 6.80756 74.1118 6.20467 74.0301 5.71067Z" fill="#EF7006"/>
<path d="M77.8007 10.4946L77.8926 10.4813C78.4695 10.4488 79.4104 10.3986 79.8524 10.8142C80.0224 10.9742 80.1487 11.2236 80.1523 11.4592C80.1572 11.7833 80.002 12.0339 79.7814 12.259C79.1657 12.5753 78.3314 12.5648 77.654 12.4614C77.5903 12.0254 77.6197 11.5459 77.6205 11.1046C77.6205 10.9466 77.5936 10.717 77.6548 10.5718C77.6695 10.5366 77.7635 10.5106 77.8007 10.4946Z" fill="#FEFEFE"/>
<path d="M98.5173 20.3895L98.6794 20.3754C99.3266 20.3364 99.9987 20.3679 100.649 20.3646C102.369 20.3558 104.415 20.2371 105.795 21.451C106.611 22.169 106.924 23.1904 106.983 24.2416C107.046 25.3351 106.809 26.4513 106.056 27.2839C105.135 28.3022 103.721 28.5565 102.413 28.6224L101.227 28.6442C101.084 28.6478 100.882 28.6305 100.746 28.6733C100.667 28.6983 100.638 28.7444 100.627 28.8248C100.608 28.9636 100.643 29.1481 100.651 29.2899C100.68 29.78 100.665 30.1887 100.424 30.6315C100.176 31.0859 99.7425 31.3878 99.2494 31.5294C98.7959 31.6594 98.3297 31.5787 97.9191 31.3558C97.5163 31.137 97.1907 30.7678 97.064 30.3233C96.9067 29.7707 96.9803 29.0744 96.9823 28.5002L96.9868 25.9986L96.986 23.5051C96.986 23.0015 96.9643 22.4855 97.0089 21.984C97.0297 21.7504 97.0988 21.5005 97.2176 21.2969C97.513 20.7912 97.9649 20.5296 98.5173 20.3895Z" fill="url(#paint3_linear_111_5106)"/>
<path d="M100.844 23.3643C101.148 23.333 101.48 23.3476 101.785 23.3591C102.202 23.3747 102.738 23.4023 103.038 23.7363C103.236 23.9568 103.327 24.2993 103.31 24.59C103.29 24.945 103.174 25.155 102.918 25.3898C102.257 25.7369 101.4 25.6796 100.671 25.6114C100.601 25.0987 100.635 24.543 100.634 24.0237C100.634 23.8595 100.603 23.6111 100.674 23.4618C100.706 23.3944 100.777 23.389 100.844 23.3643Z" fill="#FEFEFE"/>
<path d="M63.9317 4.39726C64.5322 4.14831 65.4425 4.25541 66.0933 4.25334C66.993 4.25054 67.9273 4.20689 68.8208 4.31472C69.4091 4.38577 69.9746 4.50115 70.5261 4.7257C71.3567 5.06392 72.0447 5.715 72.3924 6.54268C72.8267 7.57692 72.8626 9.18461 72.4234 10.2235C72.0696 11.0606 71.313 11.7596 70.4718 12.0969C69.5297 12.4749 68.4968 12.5257 67.4926 12.534C67.2103 12.5364 66.814 12.4874 66.544 12.5488C66.4479 12.5707 66.43 12.6101 66.3842 12.687C66.3887 13.4948 66.5182 14.2823 65.8837 14.923C65.5303 15.28 65.0233 15.5129 64.5171 15.5079C64.0032 15.5029 63.557 15.2586 63.2024 14.8997C62.9879 14.6821 62.8249 14.3974 62.7669 14.0973C62.7019 13.7628 62.7228 13.3868 62.7223 13.0462L62.724 11.36L62.7228 6.41455C62.7305 5.90995 62.7832 5.41071 63.0994 4.99556C63.3311 4.73646 63.5954 4.50809 63.9317 4.39726Z" fill="url(#paint4_linear_111_5106)"/>
<path d="M63.9317 4.39722L64.319 4.38025L64.3026 4.41987L64.1629 4.44549C64.2319 4.48422 64.292 4.50939 64.3688 4.53075L64.3226 4.53935C63.9594 4.60987 63.7584 4.84664 63.4708 5.04557L63.4177 5.00372C63.4708 4.90916 63.5325 4.84421 63.6118 4.77028L63.5509 4.76776C63.4651 4.84985 63.3826 4.93584 63.2857 5.00489C63.2065 5.06149 63.1525 5.17719 63.1043 5.26042L63.0635 5.23716L63.0994 4.99552C63.3311 4.73642 63.5954 4.50805 63.9317 4.39722Z" fill="#EF7006"/>
<path d="M66.8054 7.24193C67.2037 7.2209 67.6396 7.23852 68.0343 7.29719C68.3591 7.34538 68.6908 7.49108 68.8878 7.76167C69.0589 7.99726 69.1435 8.29245 69.0888 8.58058C69.0295 8.89185 68.8449 9.1572 68.5871 9.3349C68.2578 9.4938 67.9734 9.52961 67.6118 9.54118C67.3422 9.54978 66.6027 9.6117 66.4181 9.43915C66.3494 9.17559 66.3351 7.54098 66.4307 7.34834C66.5378 7.26203 66.6726 7.2598 66.8054 7.24193Z" fill="#FEFEFE"/>
<path d="M98.7216 4.23889L99.106 4.25663C99.5808 4.32374 99.9783 4.59157 100.264 4.96524C100.478 5.24423 100.578 5.54831 100.622 5.89408C100.681 6.36064 100.647 6.85858 100.644 7.32846L100.63 9.85055L100.637 12.5318C100.639 13.0101 100.683 13.5441 100.61 14.0159C100.545 14.4372 100.269 14.858 99.9256 15.1095C99.5285 15.4007 99.0166 15.5734 98.521 15.4915C97.8898 15.3874 97.2606 14.8782 97.0653 14.2703C96.9477 13.9047 96.9889 13.4176 96.9889 13.0367L97.0134 10.8858C97.0159 10.7297 97.0629 10.4061 96.9779 10.2916C96.7475 10.3728 96.3675 10.9786 96.2037 11.1847L94.5192 13.2788C94.0514 13.8684 93.5828 14.6188 92.9957 15.0873C92.6909 15.3304 92.3727 15.4532 91.9874 15.5103C91.395 15.4982 90.9603 15.345 90.5252 14.9205C90.0288 14.4359 90.0117 13.7486 90.0125 13.1019L90.0325 8.47926L90.0464 6.79106C90.0533 6.3971 90.0501 5.98884 90.1306 5.60145C90.1971 5.27938 90.336 5.04684 90.5726 4.81746C90.9182 4.4824 91.4379 4.25663 91.9241 4.27149C92.4266 4.28684 92.9067 4.51167 93.2458 4.87771C93.4439 5.09166 93.5775 5.3443 93.6445 5.62605C93.7561 6.09362 93.7111 6.64349 93.7046 7.12072L93.6445 9.56547C94.022 9.20723 94.3435 8.73146 94.6696 8.32271L96.5501 5.95738C96.9407 5.46049 97.3129 4.88757 97.8371 4.52462C98.1055 4.3388 98.405 4.28144 98.7216 4.23889Z" fill="#EE5F1E"/>
<path d="M51.6093 4.31005C51.6485 4.28675 51.6767 4.26779 51.7229 4.26089C51.9431 4.22784 52.2193 4.25833 52.444 4.25869L54.0435 4.26393L57.4945 4.26564C58.0824 4.26604 58.8235 4.18553 59.3902 4.32523C59.7861 4.42279 60.0488 4.60857 60.2841 4.93583C60.4618 5.18271 60.5754 5.61602 60.526 5.91453C60.4622 6.29551 60.2457 6.64847 59.9258 6.86843C59.7456 6.99262 59.552 7.07423 59.3359 7.11405C58.9849 7.17877 58.5784 7.14686 58.2209 7.14828L56.1369 7.15916C55.9244 7.16261 55.6188 7.13354 55.4203 7.18149C55.3083 7.20848 55.2785 7.34173 55.261 7.43754C55.2083 7.72221 55.263 8.01062 55.3292 8.28815C57.162 8.40431 59.324 7.99593 60.7008 9.52031C61.3713 10.2623 61.5253 11.3187 61.4648 12.2823C61.4097 13.1637 61.1282 13.9495 60.4443 14.5462C59.9658 14.9637 59.3624 15.219 58.7435 15.3566C57.6788 15.5933 56.4609 15.4975 55.3704 15.5004C54.6706 15.5022 53.9487 15.538 53.2513 15.4937C52.8435 15.4679 52.3235 15.2036 52.0546 14.8965C51.8659 14.6812 51.6743 14.3348 51.6461 14.0491C51.575 13.7909 51.5909 13.4898 51.5893 13.2231L51.5852 11.8955L51.5746 7.91477L51.5713 5.5686C51.5713 5.17195 51.5362 4.73881 51.5958 4.34691L51.6093 4.31005Z" fill="url(#paint5_linear_111_5106)"/>
<path d="M51.6092 4.31006L51.6317 4.31416C52.2919 4.42901 53.0706 4.35991 53.7435 4.35752L57.8408 4.36133C57.6758 4.40417 57.4887 4.38675 57.3191 4.38728L56.4199 4.38797L52.9456 4.38379C52.6342 4.38383 52.1513 4.3224 51.86 4.41497L51.8249 4.3986L51.8453 4.46583L52.0394 4.45568L52.07 4.40534L52.1146 4.42418C52.3715 4.52872 52.8467 4.46705 53.1323 4.46583C53.2074 4.4159 53.2279 4.42658 53.3161 4.44554L53.3619 4.4567C53.4971 4.4882 53.6756 4.47225 53.8158 4.47391L53.7831 4.52227C53.5347 4.553 53.2712 4.52377 53.0195 4.52308L51.8278 4.52925L51.8249 5.3797L51.8392 5.40426C51.9291 5.59073 51.7767 5.84536 51.8621 6.06269L51.8433 6.0948C51.784 6.21099 51.8094 6.64673 51.8331 6.77994C51.8421 6.83008 51.8445 6.87238 51.8457 6.92264C51.8494 7.03079 51.849 7.18028 51.7836 7.2739C51.7228 7.36752 51.7469 7.5958 51.7436 7.7137L51.7101 7.70164L51.6983 6.51045C51.6962 6.45373 51.6611 6.41813 51.6594 6.3619C51.6504 6.04438 51.7322 4.76151 51.6411 4.56741C51.608 4.49673 51.6043 4.42386 51.5957 4.34692L51.6092 4.31006Z" fill="#EF7006"/>
<path d="M51.5958 4.34692C51.6044 4.42386 51.6081 4.49673 51.6412 4.56741C51.7323 4.76151 51.6506 6.04438 51.6596 6.3619C51.6612 6.41813 51.6963 6.45373 51.6984 6.51045L51.7102 7.70164L51.7437 7.7137C51.747 7.5958 51.7229 7.36752 51.7838 7.2739L51.8769 7.49711L51.8655 7.51891C51.8279 7.59312 51.8185 7.6312 51.825 7.7137L51.8716 7.75673L51.832 7.90492C51.7686 8.12354 51.921 8.34585 51.8312 8.55563C51.8009 8.62623 51.8262 8.69959 51.8393 8.77206C51.8491 8.82865 51.8483 8.87128 51.8365 8.92734C51.8115 9.04727 51.8079 9.22509 51.872 9.33215L51.825 9.39893L51.8316 9.4358C51.852 9.56372 51.8234 9.7126 51.8238 9.84348C51.8242 10.0755 51.8516 10.3135 51.8287 10.545C51.8128 10.7093 51.8904 10.8969 51.805 11.0426L51.8115 11.0747C51.8316 11.1816 51.8156 11.2984 51.8246 11.4076C51.8397 11.5854 51.8046 11.7469 51.8352 11.9302L51.7883 12.0358C51.7486 11.9634 51.7564 11.8653 51.7535 11.7837C51.7155 11.9219 51.7155 12.1196 51.7433 12.2607C51.7527 12.2085 51.7584 12.1599 51.7866 12.1137C51.8205 12.1974 51.8258 12.1969 51.7923 12.2769C51.7784 12.3098 51.7605 12.3351 51.7384 12.3629L51.7229 13.5396H51.7637V13.093C51.8381 13.1833 51.8275 13.7591 51.805 13.9027C51.7981 13.9465 51.7756 13.989 51.7535 14.0269C51.7196 14.0312 51.6735 14.0287 51.6461 14.0491C51.575 13.7909 51.5909 13.4898 51.5893 13.2231L51.5852 11.8955L51.5746 7.91478L51.5713 5.56861C51.5713 5.17196 51.5362 4.73882 51.5958 4.34692Z" fill="#EE5F1E"/>
<path d="M55.491 10.9416L56.2578 10.9325C56.6619 10.9375 57.3021 10.9336 57.5979 11.2499C57.7748 11.4392 57.8794 11.6851 57.868 11.9449C57.8541 12.2675 57.6882 12.497 57.4549 12.7032C56.9201 12.9437 55.9053 12.8643 55.3161 12.813C55.2234 12.271 55.2544 11.6126 55.2896 11.0631C55.3525 10.9596 55.3774 10.9719 55.491 10.9416Z" fill="#FEFEFE"/>
<path d="M39.3064 20.3888L39.5605 20.3733L43.0839 20.3688L44.6404 20.3639C44.9554 20.3635 45.2941 20.3452 45.605 20.3974C45.8465 20.438 46.1047 20.5605 46.2824 20.7288C46.5104 20.9445 46.662 21.2542 46.7175 21.5603C46.7584 21.7854 46.738 22.0406 46.7384 22.2697L46.7375 23.5509L46.7429 28.4308C47.0113 28.537 47.3156 28.6364 47.5489 28.8082C47.9391 29.0958 48.1364 29.4607 48.1965 29.9351C48.2569 30.4123 48.2275 30.9315 48.2239 31.4129C48.221 31.7596 48.248 32.1596 48.1732 32.4981C48.1197 32.7405 47.9955 32.9954 47.8406 33.1899C47.5906 33.5029 47.1951 33.7323 46.7956 33.7749C46.3535 33.822 45.958 33.7335 45.6083 33.4525C45.1985 33.1233 44.9992 32.7067 44.9415 32.1937L44.9493 31.6313C44.4827 31.5668 44.008 31.5866 43.5382 31.5875L41.4366 31.5945L40.3653 31.6087C40.2452 31.6136 40.0753 31.6027 39.9625 31.6403C39.9074 31.6585 39.929 31.7457 39.9274 31.7996C39.918 32.1642 39.929 32.5133 39.7578 32.848C39.5556 33.2447 39.2206 33.5691 38.792 33.7095C38.3843 33.8431 37.8997 33.8001 37.5222 33.6052C37.13 33.4026 36.8256 33.0056 36.6978 32.5892C36.5956 32.256 36.6344 31.8134 36.6304 31.4642C36.6238 30.9176 36.5478 30.2027 36.69 29.6729C36.7644 29.3948 36.9421 29.1437 37.1549 28.9518C37.3376 28.7869 37.5488 28.6891 37.7739 28.5956C37.8364 28.5695 38.0836 28.4961 38.1199 28.4555C38.1849 28.3822 38.1485 24.0192 38.1477 23.5697L38.151 22.0968C38.1555 21.7656 38.1481 21.3656 38.3193 21.0715C38.5448 20.683 38.8815 20.4957 39.3064 20.3888Z" fill="url(#paint6_linear_111_5106)"/>
<path d="M42.1879 23.4739L42.5507 23.4675C42.7729 23.4896 43.0291 23.6376 43.166 23.8129C43.2983 23.9821 43.2828 24.2295 43.2861 24.4335L43.2914 25.5626C43.2922 26.5225 43.3727 27.544 43.2673 28.4957C43.1701 28.5586 42.9078 28.5424 42.7856 28.5486L41.5939 28.5236C41.5358 28.0881 41.553 27.6178 41.5546 27.1786L41.58 25.0524C41.5861 24.7253 41.522 24.1654 41.649 23.8795C41.7475 23.6592 41.9763 23.5552 42.1879 23.4739Z" fill="#FEFEFE"/>
<path d="M28.5165 4.27606L32.3168 4.25122L33.9535 4.24781C34.2432 4.24789 34.6297 4.21046 34.9026 4.31305C35.1432 4.40358 35.3352 4.48933 35.5187 4.67348C35.7025 4.85759 35.8222 5.0966 35.87 5.3507C35.9346 5.69384 35.9186 6.04619 35.9174 6.39359L35.9092 7.86175L35.9117 12.3652C36.1785 12.4476 36.4248 12.5162 36.6655 12.6644C37.0025 12.8717 37.2571 13.187 37.3465 13.5745C37.4483 14.0154 37.4111 14.527 37.4103 14.9794C37.409 15.4687 37.4442 16.0238 37.3404 16.5013C37.3024 16.6757 37.2158 16.8357 37.1173 16.9836C36.8742 17.35 36.4379 17.6044 36.0069 17.6824C35.5799 17.7597 35.2033 17.6344 34.8539 17.3925C34.3792 17.0633 34.2137 16.617 34.1141 16.0738L34.1308 15.509C33.0751 15.4176 31.9504 15.4937 30.8902 15.4999L29.7634 15.5078C29.5656 15.5097 29.3377 15.4865 29.1501 15.552C28.9998 15.7473 29.142 16.1962 29.0562 16.4553L28.9458 16.7475C28.74 17.181 28.3696 17.4852 27.9137 17.6337C27.494 17.7704 27.084 17.6949 26.6988 17.4952C26.3848 17.3324 26.0625 17.0123 25.9586 16.6701C25.8139 16.1932 25.8613 15.6297 25.8595 15.1356C25.8575 14.576 25.7489 13.6819 26.0509 13.1973C26.5377 12.4163 27.244 12.4739 27.2918 12.3081C27.3253 12.1919 27.3031 12.0118 27.3032 11.8896L27.303 11.0397L27.3078 7.44411C27.3075 6.81163 27.2541 6.12312 27.3266 5.49637C27.3438 5.34826 27.3879 5.19931 27.4629 5.06952C27.7143 4.63378 28.0336 4.39944 28.5165 4.27606Z" fill="#EE5F1E"/>
<path d="M31.3722 7.35338L31.6627 7.32947C31.8993 7.33207 32.1318 7.48914 32.2878 7.65332C32.3699 7.73971 32.4165 7.83995 32.4345 7.95748C32.5166 8.49289 32.4615 9.13081 32.4602 9.67524L32.4561 12.4057C32.2739 12.4655 32.0247 12.4466 31.8319 12.4548L30.7602 12.4173C30.7051 11.9872 30.7218 11.5344 30.721 11.1009L30.7394 9.04397C30.7484 8.67944 30.7063 8.13867 30.8305 7.80179C30.9167 7.56867 31.1647 7.45666 31.3722 7.35338Z" fill="#FEFEFE"/>
<path d="M21.9892 28.7631L21.9985 26.8225C22.0074 26.527 21.9957 26.1793 22.0781 25.8938C22.586 25.5941 23.0018 25.2247 23.1526 24.6329C23.2721 24.1639 23.2375 23.6888 22.9798 23.2656C22.7161 22.8325 22.3395 22.5271 21.8388 22.4076C21.3431 22.2893 20.8519 22.3817 20.4229 22.6497C20.0156 22.9041 19.7397 23.305 19.6429 23.7715C19.5429 24.2535 19.6225 24.7301 19.8985 25.1415C20.0513 25.3695 20.2643 25.5685 20.4799 25.736C20.552 25.792 20.7423 25.8988 20.7879 25.9657C20.8986 26.1276 20.8355 28.6148 20.8592 29.0175L19.807 27.9621C18.7623 26.9458 17.8302 25.9868 17.8379 24.4243C17.8431 23.3778 18.2642 22.3435 19.0168 21.611C19.7354 20.9115 20.8178 20.4314 21.8326 20.4479C23.1503 20.4693 24.1403 21.1308 25.0177 22.0488L25.4984 22.5661C26.5783 21.472 27.6088 20.4476 29.2652 20.4483C30.2812 20.4487 31.303 20.8926 32.0098 21.6083C32.8065 22.4148 33.1963 23.3742 33.1828 24.5006C33.1746 25.1628 32.9618 25.8799 32.5998 26.4388C32.248 26.9824 31.7774 27.4173 31.3206 27.8717L29.6753 29.5022L25.522 33.6178L22.916 31.0479C22.6491 30.7829 22.204 30.4539 22.0182 30.1402L21.9892 28.7631Z" fill="#EE5F1E"/>
<path d="M40.4575 5.00131C41.9728 4.01915 44.0372 3.78872 45.7875 4.15954C46.5241 4.31564 47.255 4.56719 47.8715 5.0076C48.9889 5.69107 49.7721 6.95173 50.0695 8.20224C50.4437 9.77798 50.3538 11.6586 49.4693 13.0651C48.6424 14.3797 47.4327 15.2242 45.9166 15.5649C44.0388 15.9867 42.0676 15.7744 40.4207 14.7495C39.2743 14.0361 38.4882 12.7802 38.1994 11.4832C37.8697 10.0033 37.9735 8.28149 38.7031 6.93131C39.0917 6.14321 39.7172 5.47513 40.4575 5.00131Z" fill="#EE5F1E"/>
<path d="M40.4573 5.00131C41.9726 4.01915 44.037 3.78872 45.7873 4.15954C46.5239 4.31564 47.2548 4.56719 47.8713 5.0076C47.8979 5.08128 47.9408 5.14121 47.9845 5.20564C47.9056 5.2734 47.8881 5.12322 47.821 5.11535C47.8043 5.11336 47.6687 5.20206 47.5837 5.2006C47.5571 5.04844 47.3385 5.06155 47.2315 4.93753C47.178 4.87545 47.1008 4.88755 47.0248 4.88252C46.9173 4.78731 46.8103 4.7306 46.6697 4.69978C46.6264 4.69032 46.6011 4.63353 46.5754 4.59772L46.6567 4.58757L46.6775 4.55712L46.577 4.52476L46.5321 4.53028L46.454 4.53552C46.3666 4.5501 46.2779 4.57823 46.1872 4.56634C46.0822 4.55253 46.0267 4.51331 45.9625 4.43533L46.0745 4.41503C46.0161 4.37333 45.9511 4.34126 45.8878 4.30716L45.8694 4.35685C45.8294 4.37926 45.8163 4.38165 45.7693 4.37962C45.7366 4.3782 45.7154 4.37772 45.6831 4.38515C45.6051 4.40293 45.563 4.40622 45.4837 4.3886C45.4363 4.37804 45.4045 4.36895 45.355 4.37069C45.268 4.37382 45.183 4.35916 45.0964 4.34808L45.0842 4.28308L45.2933 4.24082C45.212 4.2137 45.1548 4.2273 45.0719 4.24309L45.0384 4.24979L45.0024 4.19174C44.875 4.12994 44.7479 4.15426 44.6106 4.1554L43.8168 4.17144L44.3782 4.18967L44.3455 4.23802C44.1539 4.24127 43.8058 4.2925 43.6403 4.20469L43.6951 4.17144C43.5308 4.12532 43.2367 4.22998 43.0614 4.26104C42.9135 4.18455 42.6908 4.25612 42.5303 4.28308C42.603 4.2968 42.648 4.32132 42.7101 4.36091L42.6316 4.42842C42.4747 4.44097 42.4469 4.42757 42.3158 4.35413L42.203 4.40431C42.1295 4.39416 42.0948 4.39123 42.0229 4.41896C41.9828 4.47434 41.9869 4.48891 41.9841 4.5583C41.8815 4.59865 41.8035 4.65687 41.7156 4.72122C41.5355 4.73096 41.5236 4.77952 41.3516 4.68667C41.2519 4.72597 41.1612 4.76478 41.0697 4.82101C41.1539 4.82767 41.1898 4.81861 41.2638 4.77753L41.285 4.76535L41.283 4.85028C41.1191 4.90111 41.035 4.97439 40.9165 5.09464C40.7911 5.09009 40.7735 5.07442 40.6693 5.00208C40.5843 5.06281 40.5014 5.12131 40.4254 5.19297C40.338 5.27494 40.2244 5.31509 40.1272 5.38533C40.0193 5.46368 39.9262 5.56769 39.8338 5.66342L39.9053 5.67357C40.0022 5.57736 40.0569 5.48885 40.1942 5.46271C40.157 5.61377 39.9928 5.66838 39.927 5.83142C39.8796 5.84867 39.8232 5.85687 39.7942 5.89804C39.7493 5.96194 39.7145 6.00697 39.6496 6.05114L39.6447 6.14768C39.5891 6.16733 39.538 6.18467 39.4862 6.21349L39.507 6.2318L39.5683 6.22709C39.5058 6.33731 39.4147 6.37799 39.2933 6.41238L39.2721 6.34345L39.4253 6.1912L39.4049 6.1502C39.3334 6.18121 39.2398 6.29546 39.2128 6.36927L39.2055 6.39399C39.1765 6.48802 38.9853 6.71967 38.9224 6.81966C38.8982 6.85835 38.8905 6.88633 38.8819 6.9305L38.9465 7.04324C38.8958 7.11359 38.8431 7.16438 38.7553 7.18525C38.7299 7.19126 38.7087 7.18728 38.6821 7.18586C38.6915 7.10174 38.705 7.01592 38.703 6.93131C39.0915 6.14321 39.717 5.47513 40.4573 5.00131Z" fill="#EF7006"/>
<path d="M43.8181 7.31863C44.4338 7.26155 45.0139 7.35675 45.532 7.71024C46.0484 8.0628 46.3119 8.6196 46.4243 9.21555C46.573 10.0078 46.4684 10.9587 45.9887 11.6313C45.6333 12.1297 45.0515 12.3243 44.4755 12.4299C43.8957 12.486 43.2825 12.3854 42.7926 12.0591C42.2636 11.7067 41.9743 11.1503 41.8566 10.5403C41.7091 9.7782 41.8203 8.85978 42.264 8.21074C42.6378 7.66429 43.1881 7.43718 43.8181 7.31863Z" fill="#FEFEFE"/>
<path d="M52.7058 20.4119C53.4825 20.2036 54.2583 20.0818 55.0656 20.0936C56.7272 20.1178 58.3393 20.607 59.5143 21.8152C60.5815 22.9119 61.1101 24.5206 61.0779 26.0336C61.0444 27.6193 60.5578 29.1521 59.3807 30.266C58.0909 31.4869 56.3873 31.9011 54.6403 31.8546C53.8567 31.8337 52.8778 31.7017 52.1726 31.3518C51.8887 31.2108 51.6166 31.1015 51.3445 30.9301C50.3578 30.3078 49.5783 29.3731 49.1963 28.271C48.8245 27.1989 48.7351 26.0371 48.9018 24.9172C48.9553 24.556 49.0198 24.1908 49.1587 23.8509C49.1163 23.6947 49.4443 23.1239 49.5305 22.974C49.5918 22.7871 49.698 22.6459 49.8141 22.4887C50.3235 21.7766 50.938 21.2407 51.7073 20.8199C51.8548 20.7392 52.0113 20.6917 52.16 20.6185C52.3328 20.534 52.5244 20.4769 52.7058 20.4119Z" fill="url(#paint7_linear_111_5106)"/>
<path d="M49.1587 23.8508C49.1162 23.6946 49.4443 23.1239 49.5305 22.974L49.6253 23.0694C49.6102 23.2619 49.6335 23.5998 49.5575 23.7703L49.5473 23.6483L49.4786 23.7119L49.3843 23.693C49.3618 23.7228 49.2862 23.8046 49.2772 23.836C49.2572 23.9059 49.3299 23.9704 49.2678 24.032C49.2098 24.0898 49.1914 24.2213 49.1718 24.2992L49.1289 24.2574C49.1534 24.1182 49.1763 23.9925 49.1587 23.8508Z" fill="#EF7006"/>
<path d="M49.814 22.4886C50.3234 21.7766 50.9379 21.2407 51.7072 20.8199C51.8547 20.7392 52.0112 20.6916 52.1599 20.6185C52.3327 20.5339 52.5243 20.4769 52.7057 20.4119L52.961 20.4538C52.9394 20.5153 52.932 20.5044 52.8769 20.5326L53.0501 20.563L53.0415 20.614C52.9345 20.6372 52.7482 20.654 52.671 20.7308C52.6064 20.7946 52.425 20.8187 52.3343 20.8174C52.2869 20.8167 52.2498 20.7967 52.2109 20.7723C52.1799 20.7801 52.1006 20.7897 52.0773 20.8059C52.05 20.8252 52.0144 20.918 51.9883 20.928C51.9752 20.933 51.8951 20.8835 51.8743 20.8843C51.7885 20.8877 51.679 21.0501 51.5883 21.0924C51.5086 21.1296 51.4429 21.1668 51.375 21.2227L51.4997 21.2474L51.2958 21.3664L51.2067 21.3393L51.009 21.4509L50.9473 21.5449C50.8255 21.5543 50.7965 21.6111 50.7222 21.7008L50.6691 21.7673C50.6119 21.8383 50.5771 21.8744 50.4815 21.8846L50.4358 21.9637L50.4828 22.006L50.2274 22.3852L50.1992 22.3971C50.1122 22.4349 50.0885 22.4707 50.0195 22.5209L49.986 22.5338L50.0146 22.5782C49.9745 22.6496 49.9386 22.6778 49.8695 22.7211C49.8136 22.6368 49.8205 22.5879 49.814 22.4886Z" fill="#EE5F1E"/>
<path d="M54.7035 23.398C55.2473 23.3555 55.8912 23.5039 56.3394 23.8187C56.8909 24.2057 57.143 24.7997 57.2492 25.4406C57.3799 26.2259 57.2239 27.1109 56.7438 27.7632C56.3876 28.2472 55.818 28.4392 55.2461 28.5284C54.6986 28.6064 54.085 28.4765 53.6217 28.1762C53.1077 27.8428 52.8058 27.3386 52.6828 26.7509C52.5239 25.993 52.5921 24.9745 53.0391 24.3214C53.4366 23.7408 54.0388 23.5158 54.7035 23.398Z" fill="#FEFEFE"/>
<path d="M88.9841 20.1116C90.5762 20.0148 92.2836 20.3255 93.5513 21.3342C94.8137 22.3384 95.4368 23.696 95.6088 25.2733C95.7865 26.9056 95.3963 28.5676 94.3476 29.8572C93.2817 31.1672 91.7929 31.6496 90.1677 31.8257C89.6741 31.8443 89.1467 31.8748 88.656 31.8266C87.4381 31.7069 86.2783 31.2717 85.3296 30.5014C84.3033 29.6682 83.599 28.3304 83.4707 27.0189C83.295 25.2185 83.5009 23.4915 84.7086 22.057C85.7929 20.7692 87.3576 20.2624 88.9841 20.1116Z" fill="url(#paint8_linear_111_5106)"/>
<path d="M89.3083 23.3975C89.8476 23.3537 90.5229 23.5216 90.9519 23.8477C91.53 24.2873 91.7927 25.0143 91.8785 25.7118C91.9635 26.4057 91.7176 27.2495 91.2792 27.7962C90.9 28.2685 90.3514 28.4652 89.7688 28.5336C89.1923 28.6038 88.5807 28.4463 88.1047 28.1212C87.6439 27.8062 87.3632 27.3033 87.2664 26.7632C87.1189 25.9425 87.154 24.9534 87.6631 24.252C88.0528 23.7153 88.6767 23.4939 89.3083 23.3975Z" fill="#FEFEFE"/>
<path d="M12.6336 4.14882L12.9307 4.12393C13.6932 4.10379 14.4711 4.3868 15.0212 4.91125C16.3944 6.22063 15.8972 8.19687 15.9341 9.88568C15.9476 9.91 15.976 9.98007 15.9949 9.99521C16.1767 10.141 19.0081 10.0043 19.566 10.106C20.0017 10.1854 20.4718 10.4023 20.8169 10.6807C21.4725 11.2095 21.847 12.0212 21.9235 12.848C21.9872 13.5363 21.6618 14.3207 21.2224 14.8425C19.9436 16.3614 17.7932 15.7722 16.0562 15.9098C15.9638 15.991 15.928 16.0067 15.9058 16.1314C15.8696 16.335 15.9522 16.6279 15.9617 16.8394L15.9792 18.2117C15.9785 18.8925 15.9779 19.5233 15.6626 20.1477C15.2107 21.0426 14.5161 21.4649 13.5906 21.7751C13.5929 21.6263 13.5848 20.4912 13.6109 20.4552C13.641 20.4136 13.7761 20.3428 13.8251 20.3086C14.2534 20.0096 14.5662 19.7428 14.7543 19.2358C14.9334 18.7532 14.9095 18.4138 14.6945 17.9533C14.4342 17.3956 14.0365 17.1175 13.4743 16.9121C13.2007 16.8489 12.9623 16.8239 12.6837 16.8805C12.2066 16.9775 11.7654 17.2568 11.4973 17.6629C11.2335 18.0625 11.1411 18.6137 11.2457 19.079C11.4012 19.7708 11.9071 20.111 12.4774 20.465L12.4722 21.7631C11.8471 21.6193 11.3009 21.3114 10.8571 20.8463C10.0175 19.9664 10.0552 18.926 10.0601 17.7938L10.0807 16.016C10.0718 15.9991 10.0419 15.9268 10.03 15.919C9.92815 15.8518 9.61083 15.8803 9.48466 15.8798L7.88886 15.8759C7.04945 15.8737 6.15382 15.9015 5.43538 15.391C4.78361 14.9279 4.29776 14.2317 4.17037 13.439C4.04871 12.682 4.22618 11.8884 4.67898 11.2686C5.11237 10.6754 5.74122 10.2558 6.46726 10.1028C6.80824 10.031 7.17802 10.0415 7.52484 10.041L8.93986 10.0464C9.3096 10.0505 9.67963 10.0711 10.0464 10.0136C10.3028 8.54529 9.69241 6.76477 10.5681 5.45247C11.0628 4.71102 11.7705 4.32128 12.6336 4.14882Z" fill="#80A836"/>
</g>
<defs>
<linearGradient id="paint0_linear_111_5106" x1="15.9381" y1="37.6916" x2="13.6581" y2="28.0661" gradientUnits="userSpaceOnUse">
<stop stop-color="#646363"/>
<stop offset="1" stop-color="#7A7778"/>
</linearGradient>
<linearGradient id="paint1_linear_111_5106" x1="78.0683" y1="31.4237" x2="78.122" y2="20.5281" gradientUnits="userSpaceOnUse">
<stop stop-color="#FF8118"/>
<stop offset="1" stop-color="#F45F26"/>
</linearGradient>
<linearGradient id="paint2_linear_111_5106" x1="67.7773" y1="31.5871" x2="67.1792" y2="20.4078" gradientUnits="userSpaceOnUse">
<stop stop-color="#FF8218"/>
<stop offset="1" stop-color="#F25D24"/>
</linearGradient>
<linearGradient id="paint3_linear_111_5106" x1="101.731" y1="31.5109" x2="102.037" y2="20.5343" gradientUnits="userSpaceOnUse">
<stop stop-color="#FE811A"/>
<stop offset="1" stop-color="#F46025"/>
</linearGradient>
<linearGradient id="paint4_linear_111_5106" x1="67.3807" y1="4.2443" x2="67.8861" y2="15.1683" gradientUnits="userSpaceOnUse">
<stop stop-color="#F46E14"/>
<stop offset="1" stop-color="#F4572B"/>
</linearGradient>
<linearGradient id="paint5_linear_111_5106" x1="56.061" y1="4.16459" x2="56.6384" y2="15.334" gradientUnits="userSpaceOnUse">
<stop stop-color="#F46D13"/>
<stop offset="1" stop-color="#F65A2C"/>
</linearGradient>
<linearGradient id="paint6_linear_111_5106" x1="42.3153" y1="33.6623" x2="42.6007" y2="20.5183" gradientUnits="userSpaceOnUse">
<stop stop-color="#FF9314"/>
<stop offset="1" stop-color="#F45B24"/>
</linearGradient>
<linearGradient id="paint7_linear_111_5106" x1="54.8767" y1="31.6681" x2="54.9422" y2="20.2156" gradientUnits="userSpaceOnUse">
<stop stop-color="#FC8517"/>
<stop offset="1" stop-color="#F35C25"/>
</linearGradient>
<linearGradient id="paint8_linear_111_5106" x1="89.4227" y1="31.6362" x2="89.5667" y2="20.2124" gradientUnits="userSpaceOnUse">
<stop stop-color="#FD8517"/>
<stop offset="1" stop-color="#F45B25"/>
</linearGradient>
<clipPath id="clip0_111_5106">
<rect width="107" height="38" fill="white"/>
</clipPath>
</defs>
</svg>
