<svg width="12" height="16" viewBox="0 0 12 16" fill="none" xmlns="http://www.w3.org/2000/svg">
<g clip-path="url(#clip0_11_272)">
<path d="M5.99997 13.1429L9.65451 9.31429C11.6727 7.2 11.6727 3.77143 9.65451 1.65714C7.63633 -0.514286 4.36361 -0.514286 2.34542 1.6C0.327242 3.71429 0.327242 7.14286 2.34542 9.25714L5.99997 13.1429ZM5.99997 2.62857C7.30906 2.62857 8.34542 3.71429 8.34542 5.08571C8.34542 6.45714 7.30906 7.54286 5.99997 7.54286C4.69088 7.54286 3.65451 6.45714 3.65451 5.08571C3.65451 3.71429 4.69088 2.62857 5.99997 2.62857Z" fill="#92C03D"/>
<path d="M8.83636 11.0286C8.45454 10.9143 8.07273 11.2 7.96363 11.6C7.85454 12 8.12727 12.4 8.50909 12.5143C9.87273 12.8571 10.2545 13.3143 10.2545 13.3714C10.2 13.7143 8.72727 14.5143 6 14.5143C3.21818 14.5143 1.8 13.6571 1.74545 13.3714C1.74545 13.2571 2.12727 12.8 3.49091 12.5143C3.87273 12.4 4.09091 12 4.03636 11.6C3.92727 11.2 3.54545 10.9714 3.16363 11.0286C1.30909 11.4857 0.327271 12.2857 0.327271 13.3714C0.327271 15.2 3.27272 16 6 16C8.72727 16 11.6727 15.2 11.6727 13.3714C11.6727 12.3429 10.6909 11.4857 8.83636 11.0286Z" fill="#EF7006"/>
</g>
<defs>
<clipPath id="clip0_11_272">
<rect width="12" height="16" fill="white"/>
</clipPath>
</defs>
</svg>
