<svg width="194" height="70" viewBox="0 0 194 70" fill="none" xmlns="http://www.w3.org/2000/svg">
<g clip-path="url(#clip0_2_44)">
<path d="M39.9259 55.4541C39.7407 56.9749 39.672 57.2863 39.672 57.2863L39.263 56.8738C39.1255 56.7414 38.8824 56.7571 38.705 56.7101C38.5402 56.6664 38.4036 56.5545 38.2697 56.4528L38.1315 56.4615C38.0859 56.6014 38.0858 56.6665 38.0905 56.8132L38.0653 56.9749L38.1662 57.1368L38.1225 57.1742C37.9174 57.3595 37.9365 57.444 37.8585 57.6914L37.8186 57.7739V53.4348L39.9259 55.4541Z" fill="#6E6C6D"/>
<path d="M172.798 0.0263997C173.497 -0.00620715 174.167 0.144338 174.764 0.518793C175.487 0.972821 176.053 1.73407 176.236 2.57998C176.442 3.52932 176.312 4.38098 175.787 5.19563C175.19 6.12231 174.367 6.51785 173.326 6.73974C172.521 6.75343 171.805 6.64454 171.129 6.17279C170.291 5.58818 169.842 4.81766 169.676 3.81739C169.542 3.00656 169.813 2.02963 170.294 1.37218C170.93 0.504659 171.785 0.182254 172.798 0.0263997Z" fill="#EF7006"/>
<path d="M12.6268 54.4338C12.8609 54.3816 12.9591 54.4105 13.1852 54.4326C13.6128 54.4744 13.8746 54.3569 14.2999 54.5865L14.3065 54.6485C14.3845 55.4242 14.3429 56.2202 14.3797 57.0001C14.4664 58.84 14.9759 60.6405 15.9234 62.2215C17.6745 65.0813 20.1712 66.9891 23.4282 67.7714C24.6091 68.0548 25.7309 68.1917 26.9425 68.1184C29.1598 67.7946 31.1982 67.2142 33.0272 65.8509C35.8206 63.7673 37.3301 60.903 37.8503 57.4747L37.8902 57.3922C37.9682 57.1448 38 57.0246 38.0371 56.8376V56.7254V56.6506L38.0741 56.4637C38.0694 56.3169 38.1176 56.3022 38.1632 56.1624L38.3014 56.1537C38.4354 56.2553 38.5719 56.3673 38.7368 56.411C38.9141 56.4579 39.1572 56.4422 39.2948 56.5747L39.6708 56.8965C39.6833 56.9481 39.6904 56.9671 39.69 57.0267C39.6862 57.5141 39.5496 58.0771 39.4699 58.5597C38.9737 61.5626 37.642 63.9012 35.5531 66.0655C33.1439 68.5611 29.3982 69.9439 25.9875 69.9716C25.3924 69.9768 24.7925 69.8661 24.2051 69.7771C21.3378 69.3426 18.6612 68.0758 16.5956 65.9989C14.4712 63.8638 13.0104 61.1117 12.7023 58.0838C12.5807 56.8885 12.6334 55.6364 12.6268 54.4338Z" fill="url(#paint0_linear_2_44)"/>
<path d="M15.9234 62.2215C17.6746 65.0813 20.1712 66.9891 23.4283 67.7714C24.6091 68.0548 25.7309 68.1917 26.9425 68.1184C27.1054 68.1423 27.357 68.0675 27.4727 68.1565L27.2849 68.241L27.3148 68.354L27.1852 68.3913C27.0964 68.321 27.0378 68.2739 26.9273 68.2418C26.3437 68.4676 25.9562 68.3442 25.377 68.324C25.1249 68.3158 24.7692 68.3682 24.5371 68.2792L24.556 68.1864C24.4726 68.1625 24.3997 68.1378 24.3246 68.0944C24.1668 68.0025 23.9316 68.1445 23.7523 68.1266C23.5358 68.1042 23.4359 68.1169 23.2217 68.1662C23.1479 68.1288 23.1014 68.1087 23.018 68.1019C22.8138 68.0847 22.6277 68.0241 22.4578 67.9082C22.3303 67.8215 22.0726 67.915 21.926 67.8678C21.7728 67.8192 21.6691 67.6435 21.5341 67.5844C21.463 67.553 21.305 67.5492 21.2237 67.538C21.0527 67.5141 20.9756 67.4588 20.8359 67.3518C20.6577 67.2165 20.5097 67.1918 20.2967 67.1432L20.3337 67.0646C20.2129 66.9988 19.9828 66.9121 19.8897 66.8216C19.845 66.7782 19.803 66.6398 19.7563 66.6122C19.6841 66.5688 19.5293 66.5995 19.4511 66.5606C19.3294 66.5007 19.263 66.3557 19.1204 66.3026C18.986 66.2525 18.9614 66.0707 18.8526 65.9989C18.817 65.9757 18.6688 66.0206 18.6297 65.9982C18.4881 65.9167 18.3981 65.7245 18.2368 65.637C18.1136 65.5704 18.0331 65.4769 17.926 65.3902C17.482 65.0304 16.9952 64.4389 16.6421 63.9797C16.464 63.7479 16.3907 63.4263 16.1551 63.2565L16.1189 63.2318L16.3334 63.1944C16.2062 63.071 16.2546 63.0352 16.1802 62.9275C16.1085 62.8228 15.9897 62.7487 15.8665 62.7263L15.7897 62.7143C15.715 62.4301 15.7953 62.4772 15.9234 62.2215Z" fill="#676666"/>
<path d="M2.2225 37.527C1.7165 37.3974 1.12776 36.8596 0.798426 36.4681C0.191166 35.7459 -0.0151299 34.8895 0.0762034 33.953C0.151759 33.1787 0.579315 32.4434 1.17494 31.9582C1.85702 31.4026 2.76946 31.1277 3.64109 31.2385C4.5502 31.3539 5.20872 31.7288 5.76754 32.4673C6.28072 33.1454 6.56013 33.9938 6.43021 34.8466C6.29139 35.7579 5.73598 36.5756 5.00035 37.1068C4.73257 37.3003 4.45465 37.4564 4.20828 37.6801L4.14746 41.2281C4.13591 42.9701 4.08769 44.7384 4.68591 46.402C4.85235 46.8647 5.05865 47.3176 5.30361 47.7434L5.91013 48.7154C5.94228 48.7627 6.09887 48.9542 6.10258 48.9982C7.96946 51.1083 10.1964 52.3818 13.0377 52.5344C14.4872 52.6123 15.7643 52.3036 17.1098 51.7933C19.4472 50.6116 21.3018 48.8708 22.1524 46.3107C22.6132 44.9237 22.764 43.4391 22.8159 41.9853C22.8355 41.4378 22.8823 40.8659 22.8295 40.3202C23.4179 40.3582 23.961 40.3555 24.5466 40.2816C24.5749 41.4742 24.6154 42.7272 24.4941 43.9133C24.2271 46.5225 23.2455 48.8913 21.4378 50.7961C20.3469 51.9454 19.0169 52.8689 17.5618 53.4757C17.0294 53.6977 16.4788 53.8877 15.923 54.0407L14.7897 54.317C14.716 54.334 14.5124 54.3546 14.4546 54.3934C14.4056 54.4265 14.3399 54.5365 14.2999 54.5865C13.8746 54.3569 13.6127 54.4744 13.1852 54.4326C12.9591 54.4105 12.8609 54.3816 12.6267 54.4338C11.377 54.1776 10.1209 53.9206 8.94331 53.4092C5.7202 52.0093 3.11813 48.8248 2.55243 45.2999C2.42132 44.4831 2.4285 43.6342 2.41531 42.8087L2.39443 39.1433C2.39554 38.6692 2.53487 37.9013 2.2225 37.527Z" fill="#676666"/>
<path d="M156.115 7.86281C156.844 7.77187 157.522 7.87134 158.175 8.2152C158.959 8.6272 159.591 9.44417 159.847 10.2907C160.162 11.3308 159.99 12.7354 159.984 13.8355L159.97 18.788C159.973 20.9756 160.139 23.2484 159.976 25.4274C159.944 25.8546 159.851 26.2499 159.647 26.6298C159.081 27.6834 158.296 28.1989 157.179 28.5285C156.424 28.5957 155.847 28.5727 155.161 28.1953C154.304 27.7237 153.647 26.981 153.376 26.0267C153.092 25.0255 153.236 23.6969 153.237 22.66L153.245 17.2427L153.24 13.3093C153.239 12.5587 153.199 11.7784 153.267 11.031C153.315 10.5095 153.457 10.0184 153.714 9.56255C154.229 8.6524 155.149 8.13316 156.115 7.86281Z" fill="#EE5F1E"/>
<path d="M135.114 37.6419C136.066 37.5682 137.038 37.6035 137.993 37.6051L142.747 37.6126L146.19 37.6018C146.813 37.5996 147.487 37.5476 148.104 37.6254C148.595 37.6874 149.057 37.8454 149.452 38.1503C150.092 38.6445 150.518 39.4573 150.606 40.263C150.681 40.9532 150.357 41.6921 149.938 42.2217C148.766 43.7051 146.718 43.2545 145.069 43.4308C144.941 44.6804 145.039 46.0377 145.041 47.2991L145.051 54.9313C145.012 55.7243 144.761 56.4038 144.247 57.0119C143.712 57.6461 142.741 58.1324 141.916 58.1912C141.063 58.2518 140.069 57.8742 139.434 57.2985C138.96 56.8691 138.583 56.1934 138.446 55.5675C138.205 54.4722 138.354 53.0967 138.355 51.9628L138.332 43.3816C137.032 43.2949 135.539 43.5866 134.344 42.9647C133.642 42.5999 133.112 41.9051 132.893 41.1463C132.706 40.496 132.775 39.7763 133.112 39.188C133.604 38.3283 134.184 37.8978 135.114 37.6419Z" fill="url(#paint1_linear_2_44)"/>
<path d="M129.398 51.3534C130.025 52.2704 131.068 53.7806 131.164 54.8902C131.236 55.7158 130.835 56.6045 130.304 57.2171C129.804 57.7955 128.853 58.1718 128.104 58.2168C127.396 58.2594 126.536 57.8968 126.016 57.4185C125.373 56.8262 124.927 55.9156 124.487 55.1673L122.727 52.1819C122.524 51.8319 122.222 51.1672 121.914 50.9198C121.56 50.6354 120.668 50.781 120.226 50.8113C120.176 51.7588 120.217 52.7282 120.221 53.6771C120.226 55.0203 120.275 55.9854 119.35 57.0697C118.781 57.738 117.834 58.1555 116.971 58.2166C116.151 58.2746 115.21 57.8454 114.61 57.2962C114 56.7384 113.59 55.8252 113.557 55.0003L113.539 45.9145L113.535 42.4165C113.535 41.7015 113.484 40.9223 113.612 40.2199C113.723 39.6119 114.07 38.9499 114.495 38.5059C115.145 37.8267 116.063 37.4789 116.992 37.4895C117.819 37.4988 118.632 37.8619 119.207 38.4575C120.315 39.607 120.226 40.8047 120.215 42.2846L120.19 44.8725C120.687 44.9082 121.184 44.8938 121.682 44.8856C121.734 44.8847 121.989 44.9012 122.025 44.8796C122.095 44.8379 122.344 44.3154 122.397 44.2203L124.262 40.8869C124.686 40.1223 125.081 39.2363 125.658 38.5821C126.036 38.1542 126.431 37.8761 126.961 37.6705C127.74 37.368 128.562 37.4611 129.31 37.8019C130.034 38.1314 130.569 38.8054 130.841 39.5501C130.961 39.8803 131.105 40.3451 131.077 40.6969C130.987 41.8291 130.272 42.8522 129.691 43.7859C128.897 45.0606 127.941 46.3954 127.327 47.7599L127.885 48.8613L127.9 48.8993L129.398 51.3534Z" fill="url(#paint2_linear_2_44)"/>
<path d="M129.398 51.3534C129.412 51.4768 129.445 51.6128 129.407 51.7334L129.345 51.7028C129.267 51.6546 129.13 51.4977 129.11 51.4077C129.076 51.2525 129.03 51.201 128.918 51.084C128.851 51.0142 128.873 50.9676 128.87 50.8734C128.833 50.9625 128.79 51.0007 128.716 51.0622L128.577 50.8547L128.63 50.7799C128.605 50.5545 128.585 50.3889 128.426 50.2186L128.333 50.3678L128.21 50.3111C127.954 50.1581 127.709 49.6931 127.667 49.3964C127.65 49.276 127.699 49.2333 127.76 49.1346L127.733 49.0355C127.788 48.9847 127.84 48.9432 127.9 48.8993L129.398 51.3534Z" fill="#EF7006"/>
<path d="M134.223 10.5196C134.206 10.3044 134.346 9.9151 134.436 9.71033C134.772 8.9529 135.551 8.32716 136.31 8.04402C137.174 7.72131 138.047 7.78114 138.879 8.16988C139.636 8.52437 140.223 9.21607 140.505 10.0002C140.922 11.1705 140.789 12.5498 140.789 13.781C144.044 13.8779 147.735 13.5265 150.188 16.1403C151.39 17.4215 151.944 19.3819 151.897 21.1271C151.842 23.1176 151.45 25.0248 149.959 26.4243C147.556 28.682 144.238 28.5444 141.176 28.5553L137.059 28.5531C136.299 28.5231 135.351 27.8993 134.862 27.3473C134.564 27.0107 134.306 26.5755 134.227 26.1265C134.035 25.0419 134.098 23.8417 134.096 22.741L134.135 16.8653C134.147 14.998 134 13.0665 134.125 11.2099C134.141 10.9808 134.154 10.7391 134.223 10.5196Z" fill="#EE5F1E"/>
<path d="M134.223 10.5196C134.206 10.3044 134.346 9.9151 134.436 9.71033C134.772 8.9529 135.551 8.32716 136.31 8.04402C137.174 7.72131 138.047 7.78114 138.879 8.16988C139.636 8.52437 140.223 9.21607 140.505 10.0002L140.548 10.9562L140.463 10.9932C140.41 10.6975 140.218 10.6657 140.186 10.3579L140.352 10.3766C140.352 10.1166 140.25 10.1377 140.148 9.92085L140.025 9.84779L139.963 9.98323L139.951 9.94695C139.855 9.67256 139.624 9.58865 139.474 9.35315C139.428 9.28121 139.367 9.24509 139.297 9.19872L139.259 9.08287C139.107 9.00951 138.962 8.79861 138.87 8.77079C138.714 8.72315 138.627 8.68486 138.499 8.58143C138.118 8.27406 137.664 8.52018 137.26 8.24519L137.667 8.2078L137.558 8.07842L137.516 8.08724C137.417 8.10676 137.347 8.1188 137.248 8.0948C136.956 8.02375 136.546 8.18304 136.292 8.32873C136.224 8.36754 136.184 8.37846 136.112 8.3982C136.007 8.42632 135.97 8.45542 135.893 8.52721C135.693 8.71395 135.327 8.8363 135.204 9.10523C135.487 9.06433 135.482 8.78792 135.825 8.90294L135.779 9.02566C135.539 9.04982 135.542 9.2302 135.333 9.27313V9.31374C135.328 9.39511 135.302 9.46795 135.28 9.54565L135.23 9.57878C135.011 9.72903 134.935 9.8261 134.836 10.0692C134.484 10.3178 134.553 10.4218 134.41 10.7954C134.351 10.9481 134.373 11.0963 134.389 11.2557L134.508 11.2468C134.567 11.5119 134.553 11.763 134.573 12.0301C134.601 12.386 134.553 12.7829 134.553 13.1451C134.553 13.6377 134.596 14.1712 134.531 14.6577C134.496 14.9288 134.47 15.3385 134.524 15.6012C134.562 15.779 134.512 15.9728 134.506 16.1538L134.487 17.313C134.488 17.4702 134.458 17.6404 134.547 17.7705L134.444 17.9113C134.473 18.0054 134.51 18.0637 134.479 18.1588C134.4 18.4037 134.484 18.6581 134.4 18.9295L134.333 20.3793L134.291 13.4734C134.282 12.5402 134.371 11.4296 134.223 10.5196Z" fill="#EF7006"/>
<path d="M141.059 19.3323L141.226 19.3078C142.272 19.2478 143.978 19.1555 144.779 19.9211C145.087 20.2158 145.316 20.6752 145.323 21.1092C145.332 21.7061 145.05 22.1678 144.65 22.5824C143.534 23.1652 142.021 23.1457 140.793 22.9554C140.678 22.1521 140.731 21.2688 140.733 20.456C140.733 20.1649 140.684 19.7419 140.795 19.4744C140.821 19.4097 140.992 19.3618 141.059 19.3323Z" fill="#FEFEFE"/>
<path d="M178.62 37.5595L178.914 37.5336C180.087 37.4617 181.306 37.5197 182.484 37.5136C185.604 37.4974 189.313 37.2787 191.815 39.5149C193.294 40.8374 193.862 42.7191 193.97 44.6554C194.083 46.6699 193.654 48.726 192.289 50.2597C190.619 52.1356 188.054 52.604 185.684 52.7254L183.533 52.7655C183.273 52.7722 182.907 52.7403 182.662 52.8191C182.518 52.8652 182.464 52.9501 182.445 53.0983C182.411 53.354 182.473 53.6938 182.489 53.955C182.541 54.8578 182.515 55.6107 182.077 56.4263C181.628 57.2634 180.842 57.8196 179.947 58.0803C179.125 58.3198 178.28 58.1713 177.536 57.7606C176.805 57.3574 176.215 56.6775 175.985 55.8586C175.7 54.8406 175.833 53.558 175.837 52.5003L175.845 47.892L175.844 43.2987C175.844 42.3711 175.804 41.4206 175.885 40.4968C175.923 40.0665 176.048 39.6061 176.264 39.231C176.799 38.2994 177.619 37.8176 178.62 37.5595Z" fill="url(#paint3_linear_2_44)"/>
<path d="M182.839 43.0395C183.39 42.9819 183.991 43.0089 184.545 43.03C185.301 43.0588 186.273 43.1095 186.817 43.7249C187.176 44.1311 187.341 44.7619 187.31 45.2974C187.273 45.9515 187.063 46.3383 186.599 46.7708C185.401 47.4103 183.847 47.3046 182.525 47.179C182.398 46.2346 182.459 45.2109 182.458 44.2543C182.458 43.9519 182.402 43.4942 182.531 43.2192C182.589 43.0951 182.716 43.0852 182.839 43.0395Z" fill="#FEFEFE"/>
<path d="M115.913 8.10018C117.002 7.64159 118.653 7.83888 119.833 7.83506C121.464 7.8299 123.158 7.74951 124.778 7.94814C125.844 8.07902 126.87 8.29156 127.87 8.7052C129.376 9.32825 130.623 10.5276 131.253 12.0523C132.041 13.9574 132.106 16.919 131.31 18.8328C130.668 20.3747 129.296 21.6623 127.771 22.2838C126.063 22.9801 124.19 23.0736 122.37 23.089C121.858 23.0933 121.139 23.0032 120.65 23.1162C120.476 23.1565 120.443 23.2292 120.36 23.3707C120.368 24.8588 120.603 26.3095 119.453 27.4897C118.812 28.1473 117.893 28.5764 116.975 28.5672C116.043 28.5579 115.234 28.1079 114.591 27.4467C114.202 27.046 113.907 26.5215 113.802 25.9687C113.684 25.3526 113.722 24.6599 113.721 24.0324L113.724 20.9263L113.722 11.8162C113.736 10.8867 113.831 9.96707 114.404 9.20231C114.824 8.72502 115.304 8.30435 115.913 8.10018Z" fill="url(#paint4_linear_2_44)"/>
<path d="M115.913 8.10018L116.616 8.06892L116.586 8.14191L116.333 8.1891C116.458 8.26045 116.567 8.30682 116.706 8.34616L116.622 8.36201C115.964 8.49191 115.599 8.92807 115.078 9.29452L114.981 9.21742C115.078 9.04324 115.19 8.92358 115.333 8.78739L115.223 8.78276C115.067 8.93397 114.918 9.09237 114.742 9.21958C114.598 9.32384 114.501 9.53698 114.413 9.69029L114.339 9.64744L114.404 9.20231C114.824 8.72502 115.304 8.30435 115.913 8.10018Z" fill="#EF7006"/>
<path d="M121.124 13.3403C121.846 13.3016 122.636 13.334 123.352 13.4421C123.941 13.5309 124.542 13.7993 124.899 14.2977C125.21 14.7317 125.363 15.2755 125.264 15.8062C125.156 16.3796 124.821 16.8684 124.354 17.1958C123.757 17.4885 123.241 17.5544 122.586 17.5758C122.097 17.5916 120.756 17.7057 120.421 17.3878C120.297 16.9023 120.271 13.8912 120.444 13.5363C120.639 13.3773 120.883 13.3732 121.124 13.3403Z" fill="#FEFEFE"/>
<path d="M178.99 7.80852L179.687 7.8412C180.548 7.96482 181.269 8.45818 181.787 9.14652C182.175 9.66045 182.356 10.2206 182.436 10.8576C182.543 11.717 182.481 12.6343 182.476 13.4998L182.45 18.1458L182.464 23.0849C182.467 23.966 182.546 24.9497 182.414 25.8189C182.296 26.5948 181.796 27.3701 181.173 27.8334C180.453 28.3697 179.525 28.6878 178.627 28.537C177.482 28.3452 176.341 27.4072 175.987 26.2874C175.774 25.614 175.849 24.7167 175.849 24.015L175.893 20.0528C175.898 19.7652 175.983 19.1692 175.829 18.9583C175.411 19.1079 174.722 20.2237 174.425 20.6034L171.371 24.4609C170.523 25.5472 169.673 26.9294 168.609 27.7924C168.056 28.2402 167.479 28.4665 166.781 28.5717C165.707 28.5494 164.919 28.2672 164.13 27.4852C163.23 26.5924 163.199 25.3263 163.2 24.1352L163.236 15.6197L163.261 12.5099C163.274 11.7842 163.268 11.0321 163.414 10.3185C163.535 9.72521 163.787 9.29684 164.216 8.87429C164.842 8.25708 165.784 7.8412 166.666 7.86857C167.577 7.89684 168.447 8.311 169.062 8.98528C169.421 9.3794 169.664 9.8448 169.785 10.3638C169.987 11.2251 169.906 12.238 169.894 13.1171L169.785 17.6206C170.47 16.9607 171.053 16.0843 171.644 15.3313L175.053 10.9741C175.761 10.0588 176.436 9.00345 177.387 8.33486C177.873 7.99256 178.416 7.88689 178.99 7.80852Z" fill="#EE5F1E"/>
<path d="M93.5719 7.93954C93.643 7.89661 93.6941 7.86169 93.7778 7.84897C94.1771 7.7881 94.6778 7.84426 95.0852 7.84494L97.9852 7.85458L104.242 7.85772C105.308 7.85847 106.652 7.71017 107.679 7.96751C108.397 8.14722 108.873 8.48944 109.3 9.0923C109.622 9.54707 109.828 10.3453 109.739 10.8952C109.623 11.597 109.23 12.2472 108.65 12.6523C108.324 12.8811 107.973 13.0314 107.581 13.1048C106.944 13.224 106.207 13.1652 105.559 13.1679L101.781 13.1879C101.396 13.1943 100.842 13.1407 100.482 13.229C100.279 13.2788 100.224 13.5242 100.193 13.7007C100.097 14.2251 100.196 14.7564 100.316 15.2676C103.639 15.4816 107.559 14.7293 110.056 17.5374C111.271 18.9043 111.55 20.8503 111.441 22.6253C111.341 24.2489 110.83 25.6965 109.59 26.7956C108.723 27.5647 107.629 28.0349 106.507 28.2885C104.576 28.7245 102.368 28.548 100.391 28.5533C99.1223 28.5566 97.8134 28.6226 96.5489 28.5411C95.8097 28.4934 94.8667 28.0067 94.3793 27.4409C94.0371 27.0442 93.6897 26.4062 93.6386 25.88C93.5097 25.4043 93.5386 24.8495 93.5356 24.3584L93.5282 21.9127L93.5089 14.5798L93.503 10.2579C93.503 9.52725 93.4393 8.72936 93.5475 8.00745L93.5719 7.93954Z" fill="url(#paint5_linear_2_44)"/>
<path d="M93.5718 7.93954L93.6125 7.94709C94.8096 8.15866 96.2214 8.03138 97.4414 8.02697L104.87 8.034C104.571 8.11289 104.232 8.08081 103.924 8.08178L102.294 8.08306L95.9948 8.07535C95.4303 8.07543 94.5548 7.96228 94.0266 8.13279L93.9629 8.10265L94 8.2265L94.3518 8.2078L94.4074 8.11506L94.4881 8.14976C94.954 8.34234 95.8155 8.22874 96.3333 8.2265C96.4696 8.13451 96.5066 8.15418 96.6666 8.1891L96.7496 8.20967C96.9948 8.2677 97.3185 8.23831 97.5725 8.24138L97.5133 8.33045C97.0629 8.38706 96.5851 8.33322 96.1288 8.33194L93.9681 8.34331L93.9629 9.90994L93.9888 9.95518C94.1518 10.2987 93.8755 10.7677 94.0303 11.1681L93.9962 11.2272C93.8888 11.4413 93.9348 12.2439 93.9777 12.4893C93.994 12.5817 93.9985 12.6596 94.0007 12.7522C94.0074 12.9514 94.0066 13.2268 93.8881 13.3992C93.7777 13.5717 93.8214 13.9922 93.8155 14.2094L93.7548 14.1872L93.7333 11.9929C93.7296 11.8884 93.6659 11.8228 93.6629 11.7192C93.6466 11.1343 93.7948 8.77117 93.6296 8.41361C93.5696 8.28341 93.5629 8.14917 93.5474 8.00745L93.5718 7.93954Z" fill="#EF7006"/>
<path d="M93.5475 8.00745C93.563 8.14917 93.5697 8.28341 93.6297 8.41361C93.7949 8.77117 93.6467 11.1343 93.663 11.7192C93.666 11.8228 93.7297 11.8884 93.7334 11.9929L93.7549 14.1872L93.8156 14.2094C93.8215 13.9922 93.7778 13.5717 93.8882 13.3992L94.0571 13.8104L94.0363 13.8506C93.9682 13.9873 93.9512 14.0574 93.963 14.2094L94.0475 14.2887L93.9756 14.5616C93.8608 14.9644 94.1371 15.3739 93.9741 15.7603C93.9193 15.8904 93.9652 16.0255 93.9889 16.159C94.0067 16.2633 94.0052 16.3418 93.9838 16.4451C93.9386 16.666 93.9319 16.9935 94.0482 17.1908L93.963 17.3138L93.9749 17.3817C94.0119 17.6173 93.96 17.8916 93.9608 18.1327C93.9615 18.5601 94.0112 18.9986 93.9697 19.4249C93.9408 19.7276 94.0815 20.0732 93.9267 20.3415L93.9386 20.4008C93.9749 20.5976 93.946 20.8129 93.9623 21.0139C93.9897 21.3414 93.926 21.639 93.9815 21.9767L93.8963 22.1712C93.8245 22.0377 93.8386 21.857 93.8334 21.7067C93.7645 21.9613 93.7645 22.3255 93.8149 22.5855C93.8319 22.4893 93.8423 22.3997 93.8934 22.3147C93.9549 22.4688 93.9645 22.4679 93.9037 22.6153C93.8786 22.6759 93.846 22.7226 93.806 22.7736L93.7778 24.9412H93.8519V24.1186C93.9867 24.2851 93.9675 25.3457 93.9267 25.6103C93.9141 25.6908 93.8734 25.7692 93.8334 25.839C93.7719 25.847 93.6882 25.8423 93.6386 25.88C93.5097 25.4043 93.5386 24.8495 93.5356 24.3584L93.5282 21.9127L93.5089 14.5798L93.503 10.2579C93.503 9.52725 93.4393 8.72936 93.5475 8.00745Z" fill="#EE5F1E"/>
<path d="M100.61 20.1555L102 20.1388C102.733 20.148 103.893 20.1407 104.43 20.7235C104.75 21.0722 104.94 21.5251 104.919 22.0038C104.894 22.598 104.593 23.0207 104.17 23.4006C103.201 23.8435 101.361 23.6974 100.293 23.6028C100.124 22.6044 100.181 21.3917 100.244 20.3793C100.358 20.1887 100.404 20.2113 100.61 20.1555Z" fill="#FEFEFE"/>
<path d="M71.2659 37.5584L71.7266 37.5298L78.1148 37.5215L80.937 37.5126C81.5081 37.5118 82.1222 37.478 82.6859 37.5743C83.1237 37.649 83.5918 37.8746 83.914 38.1846C84.3274 38.582 84.6022 39.1526 84.7029 39.7165C84.777 40.131 84.74 40.6012 84.7407 41.0233L84.7392 43.3834L84.7488 52.3726C85.2355 52.5682 85.7874 52.7513 86.2103 53.0678C86.9177 53.5976 87.2755 54.2698 87.3844 55.1436C87.494 56.0227 87.4407 56.9792 87.434 57.866C87.4288 58.5047 87.4777 59.2415 87.3422 59.865C87.2451 60.3114 87.02 60.7811 86.7392 61.1393C86.2859 61.7159 85.5688 62.1385 84.8444 62.217C84.0429 62.3037 83.3259 62.1407 82.6918 61.6232C81.9488 61.0167 81.5874 60.2493 81.4829 59.3043L81.497 58.2683C80.6511 58.1494 79.7903 58.186 78.9385 58.1875L75.1281 58.2004L73.1859 58.2265C72.9681 58.2357 72.66 58.2156 72.4555 58.2849C72.3555 58.3184 72.3948 58.4789 72.3918 58.5783C72.3748 59.2499 72.3948 59.8931 72.0844 60.5096C71.7177 61.2403 71.1103 61.8378 70.3333 62.0966C69.594 62.3426 68.7155 62.2634 68.0311 61.9044C67.32 61.5312 66.7681 60.7998 66.5363 60.0328C66.3511 59.4191 66.4214 58.6037 66.414 57.9604C66.4022 56.9536 66.2644 55.6367 66.5222 54.6607C66.657 54.1484 66.9792 53.6858 67.3651 53.3323C67.6963 53.0285 68.0792 52.8484 68.4874 52.6761C68.6007 52.6282 69.0488 52.493 69.1148 52.418C69.2326 52.283 69.1666 44.2461 69.1651 43.4179L69.1711 40.7048C69.1792 40.0945 69.1659 39.3578 69.4763 38.816C69.8851 38.1004 70.4955 37.7554 71.2659 37.5584Z" fill="url(#paint6_linear_2_44)"/>
<path d="M76.4904 43.2415L77.1482 43.2297C77.5511 43.2703 78.0156 43.5429 78.2637 43.8659C78.5037 44.1776 78.4756 44.6334 78.4815 45.0092L78.4911 47.089C78.4926 48.8574 78.6386 50.739 78.4474 52.4921C78.2711 52.6079 77.7956 52.5781 77.5741 52.5897L75.4134 52.5435C75.3082 51.7413 75.3393 50.875 75.3423 50.0659L75.3882 46.1491C75.3993 45.5466 75.283 44.5153 75.5134 43.9886C75.6919 43.5827 76.1067 43.3912 76.4904 43.2415Z" fill="#FEFEFE"/>
<path d="M51.703 7.87687L58.5934 7.8311L61.5608 7.82482C62.086 7.82497 62.7867 7.75602 63.2815 7.945C63.7178 8.11177 64.066 8.26972 64.3986 8.60896C64.7319 8.94811 64.9489 9.38838 65.0356 9.85647C65.1526 10.4886 65.1237 11.1376 65.1215 11.7776L65.1067 14.4821L65.1111 22.7778C65.5949 22.9298 66.0415 23.056 66.4778 23.3291C67.0889 23.7109 67.5504 24.2917 67.7126 25.0056C67.8971 25.8178 67.8297 26.7601 67.8282 27.5935C67.826 28.4949 67.8897 29.5175 67.7015 30.3971C67.6326 30.7183 67.4756 31.0131 67.2971 31.2854C66.8563 31.9604 66.0652 32.4291 65.2837 32.5728C64.5097 32.7151 63.8267 32.4843 63.1934 32.0387C62.3326 31.4323 62.0326 30.6101 61.8519 29.6096L61.8823 28.5692C59.9682 28.4008 57.9289 28.541 56.0067 28.5524L53.9637 28.567C53.6052 28.5703 53.1919 28.5278 52.8519 28.6483C52.5792 29.0081 52.8371 29.835 52.6815 30.3123L52.4814 30.8506C52.1082 31.6492 51.4366 32.2096 50.61 32.4831C49.8492 32.7349 49.1059 32.5958 48.4074 32.2279C47.838 31.9279 47.2538 31.3384 47.0654 30.708C46.8029 29.8295 46.8889 28.7914 46.8857 27.8813C46.882 26.8505 46.6851 25.2034 47.2327 24.3106C48.1152 22.8721 49.396 22.9782 49.4826 22.6727C49.5432 22.4587 49.503 22.127 49.5031 21.9018L49.5029 20.3361L49.5115 13.7127C49.5111 12.5477 49.4143 11.2793 49.5457 10.1248C49.5768 9.85198 49.6568 9.57759 49.7927 9.33849C50.2486 8.53581 50.8276 8.10415 51.703 7.87687Z" fill="#EE5F1E"/>
<path d="M56.8807 13.5457L57.4074 13.5016C57.8363 13.5064 58.2578 13.7958 58.5407 14.0982C58.6896 14.2573 58.7741 14.442 58.8067 14.6585C58.9556 15.6448 58.8556 16.8199 58.8533 17.8228L58.8459 22.8526C58.5156 22.9628 58.0637 22.928 57.7141 22.943L55.7711 22.874C55.6711 22.0817 55.7015 21.2475 55.7 20.449L55.7333 16.6599C55.7496 15.9884 55.6733 14.9923 55.8985 14.3717C56.0548 13.9423 56.5044 13.7359 56.8807 13.5457Z" fill="#FEFEFE"/>
<path d="M39.8682 52.9846L39.8849 49.4098C39.9011 48.8655 39.88 48.225 40.0294 47.6991C40.9502 47.1469 41.7041 46.4665 41.9775 45.3763C42.1941 44.5124 42.1313 43.6372 41.6642 42.8577C41.1861 42.0599 40.5033 41.4973 39.5954 41.2771C38.6967 41.0591 37.806 41.2295 37.0283 41.7231C36.2898 42.1917 35.7895 42.9303 35.6141 43.7896C35.4328 44.6774 35.5771 45.5553 36.0774 46.3133C36.3545 46.7332 36.7407 47.0998 37.1316 47.4083C37.2624 47.5116 37.6073 47.7082 37.6901 47.8315C37.8907 48.1298 37.7764 52.7114 37.8194 53.4533L35.9116 51.509C34.0175 49.6369 32.3275 47.8703 32.3415 44.992C32.3509 43.0643 33.1143 41.159 34.4789 39.8097C35.7818 38.5212 37.7443 37.6368 39.5841 37.6672C41.9733 37.7066 43.7682 38.9252 45.359 40.6162L46.2306 41.569C48.1885 39.5536 50.0569 37.6667 53.06 37.6678C54.9023 37.6686 56.7549 38.4864 58.0363 39.8046C59.4808 41.2904 60.1874 43.0578 60.163 45.1326C60.1482 46.3526 59.7623 47.6735 59.106 48.703C58.4682 49.7044 57.6149 50.5054 56.7867 51.3425L53.8037 54.3461L46.2734 61.9276L41.5485 57.1934C41.0646 56.7054 40.2575 56.0992 39.9206 55.5213L39.8682 52.9846Z" fill="#EE5F1E"/>
<path d="M73.3525 9.213C76.1 7.40377 79.8429 6.97928 83.0162 7.66238C84.3518 7.94993 85.677 8.41331 86.7948 9.22459C88.8207 10.4836 90.2407 12.8059 90.78 15.1095C91.4585 18.0121 91.2955 21.4764 89.6918 24.0673C88.1925 26.489 85.9992 28.0447 83.2503 28.6723C79.8459 29.4493 76.2718 29.0582 73.2859 27.1702C71.2074 25.856 69.7822 23.5425 69.2585 21.1533C68.6607 18.4272 68.8488 15.2554 70.1718 12.7683C70.8762 11.3165 72.0103 10.0858 73.3525 9.213Z" fill="#EE5F1E"/>
<path d="M73.3525 9.213C76.1 7.40377 79.8429 6.97928 83.0163 7.66238C84.3518 7.94993 85.677 8.41331 86.7948 9.22459C86.8429 9.36033 86.9207 9.47071 87 9.5894C86.857 9.71422 86.8251 9.43758 86.7037 9.42308C86.6733 9.41941 86.4274 9.58282 86.2733 9.58013C86.2251 9.29983 85.8288 9.32398 85.6348 9.09551C85.5377 8.98116 85.3977 9.00345 85.26 8.99418C85.0651 8.8188 84.8711 8.71433 84.6162 8.65756C84.5377 8.64014 84.4918 8.53551 84.4451 8.46955L84.5925 8.45085L84.6303 8.39476L84.4481 8.33516L84.3666 8.34533L84.2251 8.35498C84.0666 8.38182 83.9059 8.43365 83.7414 8.41174C83.5511 8.38631 83.4503 8.31407 83.334 8.17041L83.537 8.13301C83.4311 8.05621 83.3133 7.99712 83.1985 7.9343L83.1651 8.02584C83.0925 8.06712 83.0688 8.07154 82.9837 8.0678C82.9244 8.06518 82.8859 8.06428 82.8274 8.07797C82.6859 8.11073 82.6096 8.11678 82.4659 8.08433C82.38 8.06488 82.3222 8.04813 82.2325 8.05134C82.0748 8.0571 81.9207 8.03011 81.7637 8.00969L81.7414 7.88996L82.1207 7.8121C81.9733 7.76215 81.8696 7.7872 81.7192 7.81629L81.6585 7.82863L81.5933 7.72169C81.3622 7.60786 81.1318 7.65266 80.8829 7.65475L79.4437 7.68429L80.4614 7.71787L80.4022 7.80694C80.0548 7.81293 79.4237 7.90731 79.1237 7.74554L79.2229 7.68429C78.9251 7.59934 78.3918 7.79214 78.074 7.84935C77.8059 7.70845 77.4022 7.8403 77.1111 7.88996C77.2429 7.91523 77.3244 7.9604 77.437 8.03332L77.2948 8.15769C77.0103 8.1808 76.96 8.15612 76.7222 8.02083L76.5177 8.11327C76.3844 8.09457 76.3214 8.08919 76.1911 8.14027C76.1185 8.24227 76.1259 8.26912 76.1207 8.39693C75.9348 8.47127 75.7933 8.57851 75.634 8.69705C75.3074 8.715 75.2859 8.80444 74.974 8.63341C74.7933 8.7058 74.6288 8.7773 74.4629 8.88088C74.6155 8.89314 74.6807 8.87646 74.8148 8.80078L74.8533 8.77834L74.8496 8.9348C74.5525 9.02843 74.4 9.16342 74.1851 9.38493C73.9577 9.37656 73.9259 9.34769 73.737 9.21442C73.5829 9.3263 73.4325 9.43407 73.2948 9.56607C73.1363 9.71706 72.9303 9.79102 72.754 9.9204C72.5585 10.0647 72.3896 10.2563 72.2222 10.4327L72.3518 10.4514C72.5274 10.2741 72.6266 10.1111 72.8755 10.0629C72.8081 10.3412 72.5103 10.4418 72.3911 10.7422C72.3051 10.7739 72.2029 10.789 72.1503 10.8649C72.0688 10.9826 72.0059 11.0655 71.8881 11.1469L71.8792 11.3247C71.7785 11.3609 71.6859 11.3929 71.5918 11.446L71.6296 11.4797L71.7407 11.471C71.6274 11.6741 71.4622 11.749 71.2422 11.8123L71.2037 11.6854L71.4814 11.4049L71.4444 11.3294C71.3148 11.3865 71.1451 11.597 71.0963 11.7329L71.0829 11.7785C71.0303 11.9517 70.6837 12.3784 70.5696 12.5626C70.5259 12.6339 70.5118 12.6854 70.4962 12.7668L70.6133 12.9745C70.5214 13.1041 70.4259 13.1976 70.2666 13.2361C70.2207 13.2471 70.1822 13.2398 70.134 13.2372C70.1511 13.0822 70.1755 12.9241 70.1718 12.7683C70.8762 11.3165 72.0103 10.0858 73.3525 9.213Z" fill="#EF7006"/>
<path d="M79.4459 13.4818C80.5622 13.3767 81.6141 13.552 82.5533 14.2032C83.4896 14.8526 83.9674 15.8783 84.1711 16.9761C84.4408 18.4355 84.2511 20.1872 83.3815 21.4263C82.7371 22.3442 81.6822 22.7028 80.6378 22.8973C79.5867 23.0006 78.4748 22.8153 77.5867 22.2142C76.6274 21.5652 76.103 20.5401 75.8896 19.4165C75.6222 18.0126 75.8237 16.3208 76.6282 15.1252C77.3059 14.1185 78.3037 13.7002 79.4459 13.4818Z" fill="#FEFEFE"/>
<path d="M95.56 37.6008C96.9682 37.2171 98.3748 36.9928 99.8385 37.0144C102.851 37.0591 105.774 37.9603 107.904 40.186C109.839 42.2062 110.798 45.1695 110.739 47.9567C110.679 50.8777 109.796 53.7012 107.662 55.7532C105.324 58.0023 102.235 58.7652 99.0674 58.6795C97.6467 58.6411 95.8719 58.3979 94.5934 57.7534C94.0786 57.4936 93.5852 57.2922 93.0919 56.9764C91.303 55.8301 89.8897 54.1084 89.1971 52.0781C88.523 50.1032 88.3608 47.9631 88.663 45.9001C88.76 45.2347 88.8771 44.562 89.1289 43.9358C89.0519 43.6481 89.6467 42.5967 89.803 42.3206C89.9141 41.9762 90.1067 41.7162 90.3171 41.4265C91.2408 40.1148 92.3548 39.1276 93.7497 38.3524C94.0171 38.2038 94.3008 38.1162 94.5704 37.9815C94.8837 37.8257 95.2311 37.7206 95.56 37.6008Z" fill="url(#paint7_linear_2_44)"/>
<path d="M89.1289 43.9358C89.0519 43.6481 89.6467 42.5967 89.803 42.3206L89.9748 42.4964C89.9474 42.851 89.9896 43.4734 89.8519 43.7874L89.8333 43.5627L89.7089 43.6799L89.5378 43.6452C89.4971 43.7 89.36 43.8507 89.3437 43.9085C89.3074 44.0373 89.4393 44.1562 89.3267 44.2696C89.2215 44.376 89.1882 44.6182 89.1526 44.7618L89.0748 44.6848C89.1193 44.4284 89.1608 44.1968 89.1289 43.9358Z" fill="#EF7006"/>
<path d="M90.317 41.4265C91.2407 40.1148 92.3548 39.1276 93.7496 38.3524C94.017 38.2038 94.3007 38.1162 94.5703 37.9815C94.8837 37.8257 95.2311 37.7206 95.56 37.6008L96.0229 37.678C95.9837 37.7914 95.9703 37.7714 95.8703 37.8232L96.1844 37.8793L96.1689 37.9732C95.9748 38.0159 95.637 38.0469 95.497 38.1884C95.38 38.3059 95.0511 38.3504 94.8866 38.348C94.8007 38.3466 94.7333 38.3097 94.6629 38.2648C94.6066 38.2792 94.4629 38.2969 94.4207 38.3266C94.3711 38.3622 94.3066 38.5331 94.2592 38.5516C94.2355 38.5609 94.0903 38.4697 94.0526 38.4712C93.897 38.4774 93.6985 38.7765 93.534 38.8545C93.3896 38.923 93.2703 38.9914 93.1474 39.0946L93.3733 39.14L93.0037 39.3592L92.8422 39.3093L92.4837 39.5148L92.3718 39.6881C92.1511 39.7054 92.0985 39.8099 91.9637 39.9752L91.8674 40.0977C91.7637 40.2285 91.7007 40.295 91.5274 40.3138L91.4444 40.4594L91.5296 40.5375L91.0666 41.236L91.0155 41.2578C90.8578 41.3275 90.8148 41.3935 90.6896 41.4858L90.6289 41.5097L90.6807 41.5915C90.6081 41.7231 90.5429 41.7749 90.4178 41.8547C90.3163 41.6994 90.3289 41.6093 90.317 41.4265Z" fill="#EE5F1E"/>
<path d="M99.1823 43.1016C100.168 43.0234 101.336 43.2966 102.148 43.8765C103.148 44.5894 103.605 45.6838 103.798 46.8643C104.035 48.3109 103.752 49.9413 102.882 51.1429C102.236 52.0344 101.203 52.3881 100.166 52.5524C99.1734 52.696 98.0608 52.4567 97.2208 51.9035C96.2889 51.2894 95.7415 50.3607 95.5186 49.2781C95.2304 47.8818 95.3541 46.0058 96.1645 44.8027C96.8852 43.7332 97.9771 43.3186 99.1823 43.1016Z" fill="#FEFEFE"/>
<path d="M161.336 37.0478C164.222 36.8695 167.318 37.4418 169.616 39.2998C171.905 41.1497 173.035 43.6505 173.347 46.5562C173.669 49.563 172.961 52.6247 171.06 55.0001C169.127 57.4134 166.428 58.302 163.481 58.6263C162.587 58.6607 161.63 58.7168 160.741 58.6281C158.533 58.4075 156.43 57.6057 154.71 56.1868C152.849 54.652 151.572 52.1875 151.339 49.7718C151.021 46.4552 151.394 43.2739 153.584 40.6313C155.55 38.2592 158.387 37.3255 161.336 37.0478Z" fill="url(#paint8_linear_2_44)"/>
<path d="M161.924 43.1006C162.901 43.02 164.126 43.3293 164.904 43.9299C165.952 44.7397 166.428 46.0789 166.584 47.3639C166.738 48.6421 166.292 50.1964 165.497 51.2036C164.81 52.0735 163.815 52.4359 162.758 52.5619C161.713 52.6913 160.604 52.4011 159.741 51.8022C158.906 51.2221 158.397 50.2956 158.221 49.3007C157.954 47.7889 158.018 45.9669 158.941 44.6748C159.647 43.6861 160.778 43.2783 161.924 43.1006Z" fill="#FEFEFE"/>
<path d="M22.9057 7.64256L23.4444 7.59672C24.8268 7.55963 26.2373 8.08096 27.2346 9.04705C29.7243 11.4591 28.8229 15.0995 28.8898 18.2105C28.9143 18.2553 28.9658 18.3843 29 18.4122C29.3296 18.6807 34.4632 18.429 35.4747 18.6163C36.2647 18.7625 37.117 19.1622 37.7428 19.675C38.9315 20.649 39.6104 22.1443 39.7491 23.6674C39.8645 24.9353 39.2747 26.3802 38.478 27.3415C36.1594 30.1395 32.2605 29.0541 29.1111 29.3075C28.9437 29.4571 28.8787 29.4861 28.8384 29.7157C28.7728 30.0908 28.9227 30.6304 28.9398 31.0199L28.9716 33.5479C28.9702 34.8019 28.9693 35.964 28.3976 37.1141C27.5783 38.7626 26.3188 39.5407 24.6408 40.1121C24.645 39.8379 24.6304 37.747 24.6777 37.6806C24.7322 37.604 24.9772 37.4736 25.0659 37.4107C25.8425 36.8599 26.4098 36.3684 26.7508 35.4344C27.0754 34.5454 27.0321 33.9201 26.6424 33.0719C26.1703 32.0444 25.4493 31.5323 24.4299 31.1539C23.934 31.0374 23.5017 30.9914 22.9966 31.0957C22.1315 31.2744 21.3316 31.7889 20.8455 32.5369C20.3672 33.273 20.1997 34.2884 20.3894 35.1455C20.6713 36.4199 21.5884 37.0467 22.6224 37.6987L22.6131 40.0899C21.4798 39.8251 20.4894 39.2578 19.6848 38.4011C18.1626 36.7801 18.2309 34.8637 18.2398 32.778L18.277 29.5032C18.261 29.4721 18.2067 29.3389 18.1852 29.3245C18.0005 29.2006 17.4252 29.2533 17.1964 29.2522L14.3031 29.245C12.7812 29.2411 11.1573 29.2922 9.85474 28.3519C8.67304 27.4988 7.79215 26.2163 7.56119 24.756C7.34059 23.3616 7.66237 21.8996 8.48334 20.758C9.26911 19.6652 10.4093 18.8922 11.7256 18.6105C12.3439 18.4782 13.0143 18.4976 13.6431 18.4965L16.2087 18.5065C16.879 18.514 17.5499 18.5519 18.215 18.4462C18.6799 15.7413 17.5731 12.4614 19.1607 10.044C20.0577 8.6782 21.3408 7.96025 22.9057 7.64256Z" fill="#80A836"/>
</g>
<defs>
<linearGradient id="paint0_linear_2_44" x1="28.8972" y1="69.4319" x2="24.6374" y2="51.731" gradientUnits="userSpaceOnUse">
<stop stop-color="#646363"/>
<stop offset="1" stop-color="#7A7778"/>
</linearGradient>
<linearGradient id="paint1_linear_2_44" x1="141.544" y1="57.8857" x2="141.645" y2="37.8149" gradientUnits="userSpaceOnUse">
<stop stop-color="#FF8118"/>
<stop offset="1" stop-color="#F45F26"/>
</linearGradient>
<linearGradient id="paint2_linear_2_44" x1="122.886" y1="58.1868" x2="121.767" y2="37.5952" gradientUnits="userSpaceOnUse">
<stop stop-color="#FF8218"/>
<stop offset="1" stop-color="#F25D24"/>
</linearGradient>
<linearGradient id="paint3_linear_2_44" x1="184.447" y1="58.0463" x2="185.02" y2="37.8267" gradientUnits="userSpaceOnUse">
<stop stop-color="#FE811A"/>
<stop offset="1" stop-color="#F46025"/>
</linearGradient>
<linearGradient id="paint4_linear_2_44" x1="122.167" y1="7.81842" x2="123.113" y2="27.9402" gradientUnits="userSpaceOnUse">
<stop stop-color="#F46E14"/>
<stop offset="1" stop-color="#F4572B"/>
</linearGradient>
<linearGradient id="paint5_linear_2_44" x1="101.643" y1="7.67159" x2="102.724" y2="28.245" gradientUnits="userSpaceOnUse">
<stop stop-color="#F46D13"/>
<stop offset="1" stop-color="#F65A2C"/>
</linearGradient>
<linearGradient id="paint6_linear_2_44" x1="76.7213" y1="62.0096" x2="77.2554" y2="37.7973" gradientUnits="userSpaceOnUse">
<stop stop-color="#FF9314"/>
<stop offset="1" stop-color="#F45B24"/>
</linearGradient>
<linearGradient id="paint7_linear_2_44" x1="99.4961" y1="58.336" x2="99.6187" y2="37.2392" gradientUnits="userSpaceOnUse">
<stop stop-color="#FC8517"/>
<stop offset="1" stop-color="#F35C25"/>
</linearGradient>
<linearGradient id="paint8_linear_2_44" x1="162.131" y1="58.2773" x2="162.4" y2="37.2335" gradientUnits="userSpaceOnUse">
<stop stop-color="#FD8517"/>
<stop offset="1" stop-color="#F45B25"/>
</linearGradient>
<clipPath id="clip0_2_44">
<rect width="194" height="70" fill="white"/>
</clipPath>
</defs>
</svg>
