<svg width="19" height="18" viewBox="0 0 19 18" fill="none" xmlns="http://www.w3.org/2000/svg">
<path d="M11.9834 1.5H7.4834C5.8334 1.5 4.4834 2.85 4.4834 4.5V13.5C4.4834 15.15 5.8334 16.5 7.4834 16.5H11.9834C13.6334 16.5 14.9834 15.15 14.9834 13.5V4.5C14.9834 2.85 13.6334 1.5 11.9834 1.5ZM13.4834 13.5C13.4834 14.325 12.8084 15 11.9834 15H7.4834C6.6584 15 5.9834 14.325 5.9834 13.5V4.5C5.9834 3.675 6.6584 3 7.4834 3H11.9834C12.8084 3 13.4834 3.675 13.4834 4.5V13.5Z" fill="#92C03D"/>
<path d="M10.4834 3.75H8.9834C8.5334 3.75 8.2334 4.05 8.2334 4.5C8.2334 4.95 8.5334 5.25 8.9834 5.25H10.4834C10.9334 5.25 11.2334 4.95 11.2334 4.5C11.2334 4.05 10.9334 3.75 10.4834 3.75Z" fill="#EF7006"/>
</svg>
