<svg width="92" height="85" viewBox="0 0 92 85" fill="none" xmlns="http://www.w3.org/2000/svg">
<g opacity="0.4" clip-path="url(#clip0_161_7180)">
<path d="M84.4341 9.30371H74.1958V11.1726C74.1958 11.5843 74.1509 11.9852 74.0704 12.3724C73.5222 15.0136 71.2061 17.0035 68.4373 17.0035H67.046C64.2778 17.0035 61.9617 15.0136 61.4129 12.3724C61.3324 11.9845 61.2875 11.5836 61.2875 11.1726V10.1971L61.2868 9.30371H37.0943V11.1726C37.0943 11.5843 37.0495 11.9852 36.969 12.3724C36.4208 15.0136 34.1047 17.0035 31.3358 17.0035H29.9446C27.1763 17.0035 24.8602 15.0136 24.3114 12.3724C24.231 11.9845 24.1861 11.5836 24.1861 11.1726V10.1971L24.1854 9.30371H20.8184C16.671 9.30371 13.2976 12.72 13.2976 16.9199V19.902L0.315905 66.9335C-0.169676 68.695 0.140044 70.491 1.16816 71.8632C2.30307 73.3787 4.19126 74.2476 6.34859 74.2476H13.2976V77.3805C13.2976 81.5805 16.671 84.9967 20.8183 84.9967H84.4337C88.581 84.9967 91.9544 81.5805 91.9544 77.3805V16.9207C91.9551 12.7207 88.5817 9.30445 84.4344 9.30445L84.4341 9.30371ZM6.34852 69.8946C5.55964 69.8946 4.90318 69.6465 4.59205 69.232C4.3749 68.9414 4.32862 68.5629 4.45535 68.105L16.4238 24.7449H84.1274L72.4829 66.9348C72.0549 68.4842 69.9546 69.896 68.0778 69.896L6.34852 69.8946ZM87.6566 77.3796C87.6566 79.1793 86.2106 80.643 84.4341 80.643H20.8188C19.0417 80.643 17.5963 79.1793 17.5963 77.3796V74.2467H68.0774C71.917 74.2467 75.6714 71.5486 76.6227 68.1051L87.6578 28.1246V77.3785L87.6566 77.3796Z" fill="#92C03D"/>
<path d="M29.9432 14.4991H31.3344C33.1464 14.4991 34.6202 13.0066 34.6202 11.1717V3.42219C34.6202 1.58718 33.1464 0.0947266 31.3344 0.0947266H29.9432C28.1312 0.0947266 26.6575 1.58724 26.6575 3.42219V11.1717C26.6582 13.0067 28.132 14.4991 29.9432 14.4991Z" fill="#92C03D"/>
<path d="M67.0458 14.4991H68.437C70.249 14.4991 71.7227 13.0066 71.7227 11.1717V3.42219C71.7227 1.58718 70.2489 0.0947266 68.437 0.0947266H67.0458C65.2338 0.0947266 63.76 1.58724 63.76 3.42219V11.1717C63.7614 13.0067 65.2353 14.4991 67.0458 14.4991Z" fill="#92C03D"/>
<path d="M40.3361 48.0451L30.4438 38.5607L24.2952 45.1401L40.4965 60.6703L63.5079 37.4499L57.1946 31.0342L40.3361 48.0451Z" fill="#92C03D"/>
</g>
<defs>
<clipPath id="clip0_161_7180">
<rect width="92" height="85" fill="white"/>
</clipPath>
</defs>
</svg>
