<svg width="85" height="85" viewBox="0 0 85 85" fill="none" xmlns="http://www.w3.org/2000/svg">
<g opacity="0.4">
<path d="M35.4167 4.72266C54.9768 4.72266 70.8333 17.5549 70.8333 33.3842C70.8333 49.2135 54.9768 62.0457 35.4167 62.0457C33.5383 62.0457 31.6945 61.9262 29.8951 61.6982C22.2874 69.2754 13.5022 70.6341 4.72222 70.8338V68.9793C9.46304 66.6658 13.2812 62.4521 13.2812 57.6362C13.2812 56.9643 13.2287 56.3047 13.1315 55.6593C5.12155 50.4045 0 42.3787 0 33.3842C0 17.5549 15.8566 4.72266 35.4167 4.72266ZM73.4896 68.966C73.4896 73.0939 76.1689 76.7059 80.2778 78.6887V80.2782C72.6688 80.1072 65.6842 78.9426 59.0912 72.4479C57.5314 72.6433 55.9338 72.7461 54.3056 72.7461C47.2615 72.7461 40.7728 70.8456 35.5927 67.6519C46.2673 67.6144 56.3453 64.1946 63.9876 58.0103C67.8399 54.8926 70.8786 51.2348 73.0199 47.1381C75.2898 42.7947 76.441 38.1672 76.441 33.3842C76.441 32.6133 76.4078 31.8468 76.3482 31.0845C81.7027 35.5067 85 41.534 85 48.1788C85 55.8884 80.5614 62.7675 73.6196 67.2717C73.5352 67.8245 73.4896 68.39 73.4896 68.966Z" fill="#EF7006"/>
</g>
</svg>
