<svg width="113" height="113" viewBox="0 0 113 113" fill="none" xmlns="http://www.w3.org/2000/svg">
<g opacity="0.4">
<path fill-rule="evenodd" clip-rule="evenodd" d="M79.4602 82.6738C82.2958 84.2982 84.3404 86.0462 84.3404 88.2603C84.3404 90.3472 82.4865 92.0175 79.9122 93.5819C74.5518 96.8341 65.8826 98.854 56.1328 98.854C46.383 98.854 37.7138 96.8341 32.3569 93.5819C29.7791 92.0175 27.9287 90.3472 27.9287 88.2603C27.9287 87.3209 28.3807 86.4523 29.0764 85.6224C30.0934 84.3971 31.5941 83.3059 33.4375 82.3242C35.1572 81.4096 35.814 79.2697 34.8959 77.55C33.9813 75.8267 31.8413 75.1734 30.1216 76.0916C24.0902 79.3015 20.8662 83.7544 20.8662 88.2603C20.8662 92.4165 23.557 96.5022 28.6915 99.6203C34.8853 103.381 44.8646 105.917 56.1328 105.917C67.4046 105.917 77.3803 103.381 83.5741 99.6203C88.7086 96.5022 91.4029 92.4165 91.4029 88.2603C91.4029 83.9521 88.4861 79.7076 82.9738 76.5471C81.2824 75.5795 79.1212 76.1622 78.1537 77.8537C77.1826 79.5451 77.7688 81.7063 79.4602 82.6738Z" fill="#EF7006"/>
<path fill-rule="evenodd" clip-rule="evenodd" d="M54.3531 87.5888C55.5891 88.4858 57.2629 88.4858 58.4988 87.5888C58.4988 87.5888 69.1173 79.8978 77.6099 68.5095C83.4895 60.6242 88.2778 50.991 88.2778 40.9269C88.2778 22.1583 76.0491 7.04102 56.426 7.04102C36.8028 7.04102 24.5706 22.1583 24.5706 40.9269C24.5706 50.991 29.3625 60.6242 35.242 68.5095C43.7346 79.8978 54.3531 87.5888 54.3531 87.5888ZM52.9653 35.291H45.9028C43.9571 35.291 42.3716 36.873 42.3716 38.8223C42.3716 40.7715 43.9571 42.3535 45.9028 42.3535H52.9653L52.9618 49.416C52.9618 51.3653 54.5438 52.9473 56.4931 52.9473C58.4423 52.9473 60.0243 51.3653 60.0243 49.416L60.0278 42.3535H67.0903C69.0396 42.3535 70.6216 40.7715 70.6216 38.8223C70.6216 36.873 69.0396 35.291 67.0903 35.291H60.0278V28.2285C60.0314 26.2828 58.4494 24.6973 56.5001 24.6973C54.5509 24.6973 52.9689 26.2793 52.9653 28.2285V35.291Z" fill="#EF7006"/>
</g>
</svg>
