<svg width="24" height="24" viewBox="0 0 24 24" fill="none" xmlns="http://www.w3.org/2000/svg">
<path d="M12 18.3494L16.5097 13.625C19.0001 11.016 19.0001 6.78524 16.5097 4.17625C14.0193 1.49674 9.98077 1.49674 7.49036 4.10574C4.99996 6.71473 4.99996 10.9455 7.49036 13.5545L12 18.3494ZM12 5.37498C13.6154 5.37498 14.8943 6.71473 14.8943 8.40705C14.8943 10.0994 13.6154 11.4391 12 11.4391C10.3846 11.4391 9.10576 10.0994 9.10576 8.40705C9.10576 6.71473 10.3846 5.37498 12 5.37498Z" fill="#92C03D"/>
<path d="M15.5001 15.7403C15.0289 15.5993 14.5578 15.9519 14.4232 16.4455C14.2885 16.939 14.6251 17.4326 15.0962 17.5737C16.7789 17.9967 17.2501 18.5609 17.2501 18.6314C17.1828 19.0545 15.3655 20.0416 12.0001 20.0416C8.56734 20.0416 6.81732 18.9839 6.75001 18.6314C6.75001 18.4903 7.22117 17.9262 8.90388 17.5737C9.37504 17.4326 9.64427 16.939 9.57696 16.4455C9.44234 15.9519 8.97119 15.6698 8.50003 15.7403C6.21155 16.3044 5 17.2916 5 18.6314C5 20.8878 8.63464 21.875 12.0001 21.875C15.3655 21.875 19.0001 20.8878 19.0001 18.6314C19.0001 17.3621 17.7886 16.3044 15.5001 15.7403Z" fill="#EF7006"/>
</svg>
