<svg width="24" height="24" viewBox="0 0 24 24" fill="none" xmlns="http://www.w3.org/2000/svg">
<path d="M12.4074 10.8503L20.8431 5.10024C20.5501 4.9432 20.2073 4.85742 19.8574 4.85742H4.14346C3.82922 4.85742 3.52915 4.92885 3.25781 5.05735L11.5935 10.8503C11.8435 11.0217 12.1576 11.0217 12.4078 10.8503L12.4074 10.8503Z" fill="#EF7006"/>
<path d="M21.8211 6.15757L13.214 12.0289C12.8497 12.2788 12.4283 12.4075 11.9997 12.4075C11.5783 12.4075 11.1498 12.279 10.7783 12.0218L2.2144 6.07178C2.07872 6.35031 2.00012 6.67172 2.00012 7.00033V17.0001C2.00012 17.3215 2.07155 17.6357 2.20723 17.9071L6.97854 14.6071C7.29996 14.3785 7.74987 14.4643 7.97133 14.7857C8.19996 15.1071 8.11419 15.557 7.79277 15.7785L3.22879 18.9356C3.50749 19.0715 3.81458 19.1429 4.14314 19.1429H19.857C20.1856 19.1429 20.4927 19.0715 20.7714 18.9358L16.2074 15.7786C15.886 15.5572 15.8002 15.1145 16.0289 14.7858C16.2503 14.4644 16.693 14.3786 17.0216 14.6073L21.793 17.9073C21.9286 17.6358 22.0001 17.3215 22.0001 17.0001V7.00032C22.0001 6.70026 21.9358 6.41454 21.8215 6.15757H21.8211Z" fill="#92C03D"/>
</svg>
