<svg width="100" height="100" viewBox="0 0 100 100" fill="none" xmlns="http://www.w3.org/2000/svg">
<g opacity="0.4" clip-path="url(#clip0_161_7204)">
<path fill-rule="evenodd" clip-rule="evenodd" d="M50.5299 22.9601C42.8199 22.9601 36.5699 29.2101 36.5699 36.9301C36.5699 44.6401 42.8199 50.8901 50.5299 50.8901C58.2399 50.8901 64.4899 44.6401 64.4899 36.9301C64.4899 29.2101 58.2399 22.9601 50.5299 22.9601ZM26.4099 46.4401C19.8299 46.4401 14.4999 41.1101 14.4999 34.5301C14.4999 27.9501 19.8299 22.6201 26.4099 22.6201C30.9799 22.6201 34.9399 25.1801 36.9399 28.9501C35.5699 31.2901 34.7799 34.0101 34.7799 36.9301C34.7799 38.7301 35.0799 40.4601 35.6399 42.0701C33.4499 44.7401 30.1299 46.4401 26.4099 46.4401ZM73.5899 46.4401C80.1699 46.4401 85.4999 41.1101 85.4999 34.5301C85.4999 27.9501 80.1699 22.6201 73.5899 22.6201C69.3899 22.6201 65.6899 24.7901 63.5699 28.0801C65.2899 30.6001 66.2899 33.6501 66.2899 36.9301C66.2899 39.0401 65.8699 41.0601 65.1099 42.9001C67.2699 45.0901 70.2699 46.4401 73.5899 46.4401ZM73.5899 48.7301C85.1699 48.7301 94.5599 58.1201 94.5599 69.7001H75.0399C72.7399 62.3701 67.2399 56.4501 60.1799 53.5801C63.8099 50.5601 68.4899 48.7301 73.5899 48.7301ZM26.4099 48.7301C14.8299 48.7301 5.43994 58.1201 5.43994 69.7001H26.0299C28.2499 62.6201 33.4499 56.8501 40.1699 53.8801C36.4899 50.6801 31.6799 48.7301 26.4099 48.7301ZM50.5299 53.5001C63.7199 53.5001 74.4099 64.1901 74.4099 77.3901H26.6499C26.6499 64.1901 37.3399 53.5001 50.5299 53.5001Z" fill="#92C03D"/>
</g>
<defs>
<clipPath id="clip0_161_7204">
<rect width="100" height="100" fill="white"/>
</clipPath>
</defs>
</svg>
