<svg width="55" height="55" viewBox="0 0 55 55" fill="none" xmlns="http://www.w3.org/2000/svg">
<path d="M27.5006 48.9797C22.5614 48.9797 10.3937 39.352 5.83718 28.3793C5.69261 28.0311 5.6362 27.6525 5.67296 27.2773C5.70972 26.902 5.83852 26.5416 6.04793 26.2281C6.25733 25.9145 6.54088 25.6575 6.87343 25.4797C7.20598 25.302 7.57724 25.2091 7.9543 25.2092L17.1075 25.2082L21.0106 19.3537C21.2484 18.9968 21.5817 18.7137 21.9724 18.5368C22.3632 18.36 22.7958 18.2964 23.2209 18.3533C23.6461 18.4102 24.0467 18.5853 24.3772 18.8587C24.7077 19.1321 24.9548 19.4928 25.0904 19.8998L28.1922 29.2052L30.1773 26.2287C30.3866 25.9149 30.6701 25.6575 31.0027 25.4795C31.3353 25.3015 31.7067 25.2083 32.0839 25.2082H38.9589C39.5667 25.2082 40.1496 25.4497 40.5794 25.8794C41.0091 26.3092 41.2506 26.8921 41.2506 27.4999C41.2506 28.1077 41.0091 28.6906 40.5794 29.1204C40.1496 29.5501 39.5667 29.7916 38.9589 29.7916H33.3103L29.4073 35.6461C29.1694 36.003 28.8362 36.2861 28.4454 36.463C28.0546 36.6398 27.6221 36.7034 27.1969 36.6465C26.7718 36.5896 26.3711 36.4145 26.0406 36.1411C25.7101 35.8677 25.463 35.507 25.3275 35.1L22.2257 25.7946L20.2406 28.7711C20.0313 29.0849 19.7478 29.3423 19.4152 29.5203C19.0826 29.6983 18.7112 29.7915 18.3339 29.7916L11.6468 29.7927C16.4763 38.1458 25.3677 44.2958 27.5095 44.3965C29.2058 44.3159 36.4836 39.6363 41.5661 32.5588C44.603 28.3291 47.8234 21.8894 45.9211 15.2348C45.4335 13.551 44.4315 12.0618 43.0555 10.9757C41.6795 9.88956 39.9982 9.26092 38.2472 9.17775C36.3186 9.1239 34.4265 9.71094 32.8671 10.847C31.3076 11.9831 30.1688 13.6041 29.6288 15.4563C29.4585 15.8815 29.1647 16.2459 28.7854 16.5026C28.4061 16.7593 27.9586 16.8965 27.5005 16.8965C27.0425 16.8965 26.595 16.7593 26.2157 16.5026C25.8363 16.2459 25.5426 15.8815 25.3722 15.4563C24.8296 13.6056 23.6902 11.9863 22.1313 10.8507C20.5725 9.71509 18.6819 9.12689 16.7539 9.17775C15.0029 9.26092 13.3217 9.88955 11.9456 10.9757C10.5696 12.0618 9.56761 13.551 9.07996 15.2348C8.77948 16.2887 8.59561 17.3724 8.53166 18.4664C8.51507 18.7673 8.43929 19.062 8.30864 19.3336C8.17799 19.6051 7.99504 19.8482 7.77028 20.049C7.54552 20.2497 7.28336 20.4042 6.99882 20.5035C6.71428 20.6027 6.41295 20.6449 6.11209 20.6275C5.81123 20.6101 5.51676 20.5336 5.24553 20.4022C4.9743 20.2709 4.73166 20.0873 4.53149 19.862C4.33133 19.6367 4.17757 19.3742 4.07904 19.0894C3.98051 18.8046 3.93913 18.5031 3.95728 18.2023C4.03934 16.7712 4.27875 15.3535 4.67118 13.9748C5.42249 11.3718 6.96866 9.06878 9.0934 7.38785C11.2181 5.70692 13.8152 4.73219 16.5212 4.60001C18.6494 4.48993 20.771 4.91799 22.6899 5.84463C24.6089 6.77127 26.2634 8.16661 27.5006 9.90173C28.7347 8.16342 30.3886 6.76568 32.3084 5.83868C34.2281 4.91167 36.3512 4.48556 38.48 4.60001C41.186 4.73219 43.783 5.70692 45.9077 7.38785C48.0325 9.06878 49.5786 11.3718 50.3299 13.9748C52.8275 22.723 48.6515 30.7908 44.7082 36.0198C39.5923 42.8019 31.3902 48.9797 27.5006 48.9797Z" fill="#FFBD98"/>
</svg>
