<svg width="55" height="55" viewBox="0 0 55 55" fill="none" xmlns="http://www.w3.org/2000/svg">
<g clip-path="url(#clip0_99_5319)">
<path d="M8.09003 25.2314C8.44065 24.8205 8.79455 24.4063 9.11994 23.9882C9.37398 23.7017 9.55052 23.355 9.63276 22.981C9.71501 22.6071 9.70023 22.2183 9.58984 21.8517C9.20447 20.6461 9.0419 19.3805 9.1101 18.1167C9.43222 13.0212 12.1048 1.10667 29.919 0.523372C36.9567 0.298599 42.4198 2.15133 46.1577 6.04682C51.5887 11.7059 51.378 19.6418 51.3174 20.7788C51.3623 21.699 51.2243 25.525 46.6853 31.4987C42.6197 36.8498 46.7095 47.137 46.7511 47.2399C46.9147 47.6425 46.9116 48.0936 46.7426 48.4939C46.5736 48.8943 46.2524 49.2111 45.8498 49.3746C45.4472 49.5382 44.9962 49.5351 44.5958 49.3661C44.1955 49.1971 43.8787 48.8759 43.7151 48.4733C43.5156 47.9818 38.8802 36.3556 44.0763 29.5168C48.1982 24.0917 48.0461 20.9656 48.0474 20.9656C48.0363 20.8653 48.0344 20.7642 48.0419 20.6635C48.0471 20.5894 48.5311 13.2519 43.7938 8.31572C40.727 5.11949 36.0965 3.59314 30.0258 3.79892C15.4416 4.27537 12.7104 13.1038 12.3804 18.3225C12.3378 19.1937 12.454 20.0653 12.7235 20.8949C12.9868 21.7646 13.0315 22.6858 12.8536 23.577C12.6757 24.4681 12.2806 25.3016 11.7034 26.0034C11.3521 26.4556 10.9661 26.9085 10.5827 27.3581C9.93193 28.1209 8.72049 29.5405 8.73786 29.9927C8.75357 30.0174 8.77252 30.0398 8.79422 30.0595L10.9786 31.3158C11.2971 31.4991 11.5448 31.7842 11.6819 32.1252C11.8189 32.4662 11.8373 32.8434 11.7342 33.1961C11.6008 33.6509 11.3269 34.5547 11.0362 35.307C11.1417 35.387 11.2558 35.4656 11.3584 35.5286C11.5453 35.6438 11.7074 35.7952 11.8352 35.9739C11.9629 36.1525 12.0538 36.3549 12.1024 36.5691C12.1511 36.7833 12.1565 37.005 12.1184 37.2213C12.0804 37.4376 11.9995 37.6442 11.8807 37.8289C11.8594 37.8617 11.8378 37.9003 11.8168 37.9403C12.4779 38.4835 12.944 39.2273 13.1446 40.0591C13.3452 40.8908 13.2694 41.7653 12.9286 42.5502C12.8636 42.7491 12.8505 42.9613 12.8905 43.1668C12.9305 43.3722 13.0224 43.564 13.1573 43.7239C13.2931 43.8955 13.4738 44.026 13.6794 44.1008C13.885 44.1755 14.1074 44.1916 14.3216 44.1473C15.3302 44.0005 18.5989 42.9729 23.0658 41.398C23.3129 41.3144 23.5763 41.2904 23.8344 41.3279C24.0925 41.3654 24.3381 41.4633 24.5512 41.6138C24.7643 41.7643 24.9388 41.963 25.0605 42.1937C25.1822 42.4244 25.2476 42.6806 25.2515 42.9414L25.2646 47.8508C25.2647 48.2846 25.0927 48.7007 24.7865 49.0079C24.4802 49.3151 24.0646 49.4883 23.6308 49.4895C23.197 49.4907 22.7804 49.3199 22.4724 49.0144C22.1644 48.7089 21.9901 48.2937 21.9878 47.8599L21.9808 45.2445C19.0879 46.2354 16.0604 47.2059 14.7961 47.3894C14.0212 47.5096 13.2284 47.4258 12.4958 47.1463C11.7632 46.8667 11.1161 46.4011 10.6183 45.7952C10.1206 45.1893 9.78931 44.4642 9.65722 43.6912C9.52513 42.9183 9.59678 42.1243 9.8651 41.3875C10.0647 40.8626 10.0414 40.6974 9.34507 40.1404C8.95766 39.8278 8.67156 39.4074 8.5229 38.9323C8.37424 38.4572 8.36968 37.9487 8.5098 37.471C7.08308 36.1072 7.58803 34.9099 7.80627 34.5409C7.96019 34.2023 8.09294 33.8545 8.20374 33.4995L7.02279 32.8205C6.94802 32.7772 6.87661 32.7284 6.80913 32.6744C6.43952 32.3952 6.13128 32.0429 5.90354 31.6395C5.6758 31.2361 5.53343 30.7902 5.48528 30.3295C5.31455 28.484 6.72554 26.8305 8.09003 25.2314Z" fill="#FFBD98"/>
<path d="M23.4895 37.5477L15.8054 38.4806C15.6329 38.0406 15.4147 37.62 15.1545 37.2255C15.1835 36.775 15.1451 36.3226 15.0404 35.8834C14.9333 35.402 14.7474 34.9417 14.4901 34.521C14.5438 34.3532 14.5908 34.1922 14.631 34.0445C14.8936 33.1582 14.885 32.2136 14.6064 31.3322C14.3277 30.4508 13.7917 29.6729 13.0674 29.0986C13.423 28.6825 13.7653 28.2664 14.0874 27.857C14.7072 27.0709 15.1904 26.1861 15.5168 25.2397C17.765 26.5014 22.2412 28.6288 28.8784 29.9844C30.9405 30.3996 32.803 31.4964 34.1663 33.0983C35.5296 34.7002 36.3145 36.7142 36.3947 38.8161C36.5356 42.4937 37.0255 46.6881 38.3945 49.4932H29.5025V42.8762C29.5025 42.1168 29.3414 41.3661 29.0299 40.6736C28.7183 39.9811 28.2633 39.3626 27.6949 38.859C27.1266 38.3553 26.4579 37.978 25.7329 37.752C25.008 37.5259 24.2433 37.4563 23.4895 37.5477Z" fill="#FFBD98"/>
</g>
<defs>
<clipPath id="clip0_99_5319">
<rect width="46.8085" height="50" fill="white" transform="matrix(-1 0 0 1 51.8086 0)"/>
</clipPath>
</defs>
</svg>
