<svg width="55" height="55" viewBox="0 0 55 55" fill="none" xmlns="http://www.w3.org/2000/svg">
<g clip-path="url(#clip0_99_5323)">
<path d="M27.5 10C9.125 10 3 28.4337 3 28.4337C3 28.4337 8.83789 43.7952 27.5 43.7952C46.1621 43.7952 52 28.4337 52 28.4337C52 28.4337 45.875 10 27.5 10ZM27.5 40.7229C12.1875 40.7229 9.125 28.4337 9.125 28.4337C9.125 28.4337 12.2832 16.1446 27.5 16.1446C42.7168 16.1446 45.875 28.4337 45.875 28.4337C45.875 28.4337 42.8125 40.7229 27.5 40.7229ZM27.5 19.2169C26.5654 19.2169 25.6846 19.3984 24.8352 19.6594C26.4069 20.39 27.5 21.9756 27.5 23.8253C27.5 26.3695 25.4424 28.4337 22.9062 28.4337C21.0625 28.4337 19.4819 27.3371 18.7536 25.7605C18.4934 26.6125 18.3125 27.4962 18.3125 28.4337C18.3125 33.5252 22.4277 37.6506 27.5 37.6506C32.5752 37.6506 36.6875 33.5252 36.6875 28.4337C36.6875 23.3453 32.5752 19.2169 27.5 19.2169Z" fill="#FFBD98"/>
</g>
<defs>
<clipPath id="clip0_99_5323">
<rect width="49" height="34" fill="white" transform="translate(3 10)"/>
</clipPath>
</defs>
</svg>
