<svg width="55" height="55" viewBox="0 0 55 55" fill="none" xmlns="http://www.w3.org/2000/svg">
<g clip-path="url(#clip0_99_5327)">
<path d="M29.0595 18.5254V2.10596H26.9408V18.5254L24.3984 20.856V23.8221L28.0001 20.4322L31.6018 23.8221V20.856L29.0595 18.5254Z" fill="#FFBD98"/>
<path d="M18.8907 33.6737L18.2551 34.2034L20.3737 36.8517L18.6788 38.1229L16.5602 35.3686L14.7593 36.6398L14.0178 42.2542L11.8991 41.9364L12.2169 39.8178L7.23813 41.4068L6.60254 39.3941L12.5347 37.5932L12.8525 35.4746L16.878 32.5085V29.8602H15.0771L11.6873 32.6144L10.3102 31.0254L14.2297 27.7415H17.4076L24.3991 20.8559V17.572C24.3991 16.4068 23.7636 15.3474 22.5983 14.7118C21.3271 14.0763 19.7381 14.0763 18.5729 14.9237C2.36525 25.7288 3.10677 38.2288 3.10677 38.6525V48.6102C3.10677 49.6695 3.63643 50.7288 4.58982 51.2585C5.22542 51.6822 5.96694 51.8941 6.70847 51.8941C7.23813 51.8941 7.87372 51.7881 8.40338 51.5763L22.4924 45.0085C23.6576 44.4788 24.5051 43.3135 24.5051 42.0424V23.822L18.9966 29.3305V33.6737H18.8907Z" fill="#FFBD98"/>
<path d="M37.3224 14.9236C36.1571 14.1821 34.5681 14.0762 33.2969 14.7118C32.2376 15.3474 31.4961 16.4067 31.4961 17.5719V20.8558L38.4876 27.7414H41.6656L45.5851 31.0253L44.208 32.6143L40.8181 29.8601H39.0173V32.5084L43.0427 35.4745L43.3605 37.5931L49.3986 39.4999L48.763 41.5126L43.7842 39.9236L44.102 42.0423L41.9834 42.3601L41.2419 36.7457L39.441 35.4745L37.3224 38.2287L35.6275 36.9575L37.7461 34.3092L37.1105 33.7796V29.4364L31.602 23.8219V42.0423C31.602 43.3135 32.3436 44.3728 33.6147 45.0084L47.7037 51.5762C48.2334 51.7881 48.763 51.894 49.3986 51.894C50.1402 51.894 50.8817 51.6821 51.5173 51.2584C52.4707 50.6228 53.0003 49.6694 53.0003 48.6101V38.7584C52.8944 38.2287 53.6359 25.7287 37.3224 14.9236Z" fill="#FFBD98"/>
</g>
<defs>
<clipPath id="clip0_99_5327">
<rect width="50" height="50" fill="white" transform="translate(3 2)"/>
</clipPath>
</defs>
</svg>
