<svg width="55" height="55" viewBox="0 0 55 55" fill="none" xmlns="http://www.w3.org/2000/svg">
<g clip-path="url(#clip0_99_5331)">
<path d="M49.5732 22.1539C51.6312 19.0593 49.9981 16.8701 49.2954 16.1439C49.8608 13.6393 48.7409 9.14722 45.5007 9.14722C42.4285 9.14722 41.4909 13.2894 41.2822 14.5034C40.3962 14.882 39.6644 15.541 39.203 16.3758C38.7417 17.2105 38.5774 18.173 38.7363 19.1101C36.4081 20.63 35.6246 23.1715 36.094 25.7908C33.3345 26.156 32.367 28.7143 32.3954 31.4748C31.0523 30.7363 29.5392 30.3486 28.0004 30.3486C26.4617 30.3486 24.9486 30.7363 23.6055 31.4748C23.6339 28.7149 22.6668 26.1561 19.9069 25.7908C20.3742 23.1831 19.6043 20.6374 17.2646 19.1101C17.4235 18.173 17.2592 17.2105 16.7979 16.3758C16.3365 15.541 15.6047 14.882 14.7188 14.5034C14.51 13.2894 13.5724 9.14722 10.5002 9.14722C9.96774 9.15035 9.44422 9.28207 8.97564 9.53079C8.50705 9.77952 8.10775 10.1376 7.81282 10.5737C6.74656 12.2281 6.35133 14.2163 6.70549 16.1439C6.00283 16.8701 4.36977 19.0593 6.42769 22.1539C3.9842 25.0403 3.66462 28.497 6.4223 31.1908C5.62995 32.2114 4.03049 34.8814 6.16635 37.7582C5.5373 38.7841 5.20835 39.9608 5.21575 41.1588C5.22315 42.3568 5.5666 43.5295 6.20827 44.5477C7.82297 47.043 11.1893 47.2456 14.0376 46.4088C19.2655 47.7931 22.6039 44.4572 22.1896 40.7244C24.2854 40.9008 26.3689 40.2696 28.0005 38.9639C29.6322 40.2694 31.7156 40.9006 33.8113 40.7243C33.3964 44.4626 36.7376 47.7922 41.9632 46.4088C42.9412 46.696 47.6449 47.8668 49.7928 44.5477C50.4344 43.5294 50.7778 42.3567 50.7852 41.1587C50.7926 39.9608 50.4636 38.7841 49.8346 37.7582C51.9704 34.8814 50.371 32.2114 49.5786 31.1908C52.3426 28.4909 52.0102 25.0325 49.5732 22.1539ZM15.7824 38.3432C15.0857 38.1037 14.4652 37.6882 13.9833 37.1383C13.5015 36.5884 13.1751 35.9235 13.037 35.2104C12.4257 35.1394 11.8506 34.8874 11.3881 34.4879C10.7946 35.5116 9.88399 37.8706 11.7941 40.7163C11.8347 40.7768 11.8629 40.8447 11.8769 40.916C11.8909 40.9872 11.8904 41.0605 11.8756 41.1316C11.8608 41.2028 11.832 41.2703 11.7906 41.3304C11.7493 41.3906 11.6963 41.4421 11.6347 41.4821C11.5731 41.5221 11.5041 41.5497 11.4317 41.5635C11.3592 41.5773 11.2847 41.5769 11.2124 41.5623C11.1401 41.5478 11.0714 41.5193 11.0103 41.4787C10.9492 41.438 10.8968 41.3859 10.8561 41.3253C9.05319 38.6393 9.18466 35.7377 10.6516 33.564C9.49704 31.4752 10.1525 28.4212 11.5611 27.5226C11.623 27.483 11.6922 27.4558 11.7649 27.4426C11.8375 27.4293 11.912 27.4303 11.9843 27.4454C12.0565 27.4605 12.125 27.4894 12.1859 27.5306C12.2468 27.5718 12.2988 27.6243 12.3389 27.6853C12.3791 27.7462 12.4067 27.8144 12.4201 27.8858C12.4335 27.9573 12.4324 28.0306 12.417 28.1017C12.4015 28.1727 12.372 28.24 12.3301 28.2998C12.2881 28.3597 12.2346 28.4107 12.1726 28.4502C11.1927 29.0751 10.7394 31.7969 11.7861 33.2739C12.0552 33.6705 12.4653 33.9538 12.9359 34.0684C12.9421 33.4217 13.1413 32.7911 13.5088 32.2548C13.8763 31.7186 14.3958 31.3003 15.0029 31.052C15.0712 31.0236 15.1445 31.0087 15.2187 31.0082C15.2928 31.0078 15.3663 31.0218 15.4349 31.0494C15.5036 31.077 15.566 31.1177 15.6185 31.1691C15.6711 31.2206 15.7128 31.2818 15.7412 31.3491C15.7696 31.4165 15.7842 31.4887 15.7841 31.5617C15.784 31.6346 15.7692 31.7068 15.7406 31.7741C15.712 31.8414 15.6702 31.9024 15.6175 31.9537C15.5648 32.0051 15.5023 32.0456 15.4336 32.073C14.9459 32.2839 14.5457 32.6517 14.2988 33.116C14.0519 33.5803 13.9731 34.1135 14.0752 34.6277C14.123 35.2156 14.34 35.7779 14.7009 36.2488C15.0618 36.7197 15.5516 37.0797 16.113 37.2867C16.2545 37.3306 16.3727 37.4277 16.4417 37.5569C16.5107 37.6862 16.525 37.837 16.4813 37.9765C16.4377 38.116 16.3397 38.2329 16.2087 38.3016C16.0778 38.3703 15.9245 38.3853 15.7824 38.3432ZM42.8033 36.2773C42.5401 36.8408 42.12 37.3194 41.5918 37.6578C41.0635 37.9963 40.4487 38.1807 39.8183 38.1897C39.6693 38.1897 39.5263 38.1315 39.421 38.0279C39.3156 37.9242 39.2564 37.7836 39.2564 37.637C39.2564 37.4904 39.3156 37.3498 39.421 37.2462C39.5263 37.1425 39.6693 37.0843 39.8183 37.0843C41.7487 37.0843 43.0712 34.3274 41.5752 31.6078C41.505 31.4789 41.4896 31.328 41.5323 31.188C41.575 31.0479 41.6724 30.9303 41.8031 30.8607C41.9338 30.7911 42.0873 30.7753 42.2298 30.8168C42.3723 30.8582 42.4924 30.9535 42.5637 31.0817C43.2832 32.3457 43.5056 33.8256 43.1885 35.2402C44.0137 35.5744 45.7162 33.9915 45.1007 31.7321C45.063 31.5908 45.0838 31.4406 45.1584 31.3143C45.2331 31.188 45.3555 31.0959 45.4989 31.0581C45.6423 31.0203 45.7952 31.0399 45.924 31.1126C46.0528 31.1853 46.1471 31.3052 46.1864 31.446C47.0301 34.5436 44.575 36.9377 42.8033 36.2773ZM45.7682 28.9315C45.6191 28.9315 45.4762 28.8733 45.3708 28.7697C45.2654 28.666 45.2062 28.5254 45.2062 28.3788C45.2062 28.2322 45.2654 28.0916 45.3708 27.988C45.4762 27.8843 45.6191 27.8261 45.7682 27.8261C47.462 27.8261 46.9704 24.6774 45.7427 23.7779C45.6232 23.6904 45.5439 23.5597 45.5224 23.4147C45.5008 23.2696 45.5387 23.1221 45.6277 23.0045C45.7167 22.887 45.8496 22.809 45.997 22.7878C46.1445 22.7666 46.2945 22.8038 46.414 22.8914C48.4468 24.3805 48.766 28.9315 45.7682 28.9315Z" fill="#FFBD98"/>
</g>
<defs>
<clipPath id="clip0_99_5331">
<rect width="48" height="38" fill="white" transform="translate(4 9)"/>
</clipPath>
</defs>
</svg>
