<svg width="55" height="55" viewBox="0 0 55 55" fill="none" xmlns="http://www.w3.org/2000/svg">
<path d="M47.342 10.3529C41.9611 5.87967 34.0158 5.59802 28.3496 9.7212C27.4007 10.4143 26.5335 11.2128 25.7647 12.1015H20.7608C19.6097 12.1003 18.5062 11.6425 17.6922 10.8286C16.8783 10.0146 16.4205 8.91108 16.4192 7.76002V3.50659H8.89067V7.76002C8.89419 10.9071 10.1459 13.9242 12.3712 16.1496C14.5965 18.3749 17.6137 19.6266 20.7608 19.6301H22.2483C21.8519 22.4454 22.1562 25.3579 21.3227 28.123C20.2206 31.7784 17.7167 34.7169 14.5144 36.7351C13.2514 37.4103 12.2633 38.5047 11.7201 39.8299C8.57423 40.1385 5.6554 41.6055 3.53064 43.9458C1.40587 46.2861 0.22686 49.3326 0.222656 52.4936H5.86918C5.87197 50.7672 6.50488 49.1012 7.64908 47.8084C8.79328 46.5156 10.3701 45.685 12.0833 45.4725C12.1965 45.663 12.32 45.8472 12.4532 46.0242C15.1187 49.5434 20.2483 48.5769 24.042 48.058C32.9521 46.8396 42.2323 42.9581 47.9545 35.7684C50.9856 31.9601 52.9892 27.1709 52.8286 22.2485C52.6811 17.7395 50.8308 13.2866 47.342 10.3529ZM42.7245 25.6924C39.6643 25.6836 38.1306 26.963 36.5966 28.2424C35.0629 29.5215 33.5289 30.8009 30.4684 30.7923C27.8923 30.7848 26.4043 29.8709 25.0866 28.8148C25.6333 26.7929 25.7366 24.8138 25.8123 23.0559C25.8823 21.4369 25.9487 19.9086 26.3616 18.6389C27.1312 16.3022 28.6138 14.2654 30.6011 12.8151C32.5826 11.3802 34.9702 10.6151 37.4166 10.6309C40.1439 10.6206 42.7893 11.563 44.8959 13.2952C47.3804 15.3851 48.884 18.6987 49.0036 22.3739C49.0438 24.1855 48.7505 25.989 48.1383 27.6945C46.8128 26.6278 45.3214 25.6997 42.7245 25.6924Z" fill="#FFBD98"/>
</svg>
