<svg width="56" height="55" viewBox="0 0 56 55" fill="none" xmlns="http://www.w3.org/2000/svg">
<g clip-path="url(#clip0_101_5339)">
<path d="M21.6261 17.8727C21.0511 17.4148 20.3996 16.8958 19.9409 16.0754C19.1138 14.5966 18.8703 2.78167 18.8242 0H14.8404V16.3934C14.8404 17.1199 14.5325 17.8305 13.9955 18.343C13.6412 18.6813 13.2188 19.2355 13.2188 19.9536C13.2188 20.6762 13.6174 21.1989 13.9725 21.5212C14.1355 20.7803 14.4334 20.1244 14.8455 19.6482C15.3833 19.0268 16.1061 18.6985 16.9362 18.6985C18.1995 18.6985 18.9883 19.3065 19.4276 19.8165C20.0747 20.5677 20.4148 21.6644 20.2736 22.5452C20.1869 23.086 20.022 23.4884 19.8249 23.8268C20.6214 23.7789 21.6412 23.6104 22.096 23.1451C22.8785 22.3444 23.2353 20.4402 22.8301 19.2267C22.6506 18.6886 22.1759 18.3105 21.6261 17.8727Z" fill="#FFBD98"/>
<path d="M20.5843 29.2763C21.1717 28.3531 21.6789 27.5558 21.6789 26.7266C21.6789 25.578 21.084 24.885 20.8081 24.625C20.2368 24.7238 19.6892 24.7452 19.3279 24.7452C19.2694 24.7452 19.2164 24.7446 19.1683 24.7437C19.0672 24.8771 18.9662 25.016 18.8699 25.1682C18.7425 25.3697 18.6295 25.6179 18.5097 25.8805C18.1511 26.6671 17.7048 27.6461 16.5908 27.6461C15.3191 27.6461 14.4016 26.47 13.9836 24.3218C13.5239 24.7 12.9512 25.4325 12.9512 26.7365C12.9512 28.1514 13.5021 29.1209 14.0853 30.1472C14.4632 30.8121 14.854 31.4996 15.0866 32.3132C15.7023 34.4678 15.5446 48.1196 14.8834 49.9127C14.6712 50.4879 14.3839 51.0127 14.1307 51.4757C13.5683 52.5034 13.2688 53.1122 13.6521 53.6737C13.9887 54.1668 14.7784 54.1126 15.3815 53.9803C16.0673 53.8296 16.7662 53.9468 17.3492 54.3096C18.3189 54.9132 19.6386 55.4293 20.4206 54.4613C21.1745 53.5279 20.7123 52.5511 19.8617 51.0532C19.447 50.323 19.0181 49.5679 18.8321 48.7776C18.3417 46.6918 18.3559 34.5444 19.1632 32.044C19.5129 30.96 20.0822 30.0654 20.5843 29.2763Z" fill="#FFBD98"/>
<path d="M16.5906 26.7443C17.082 26.7443 17.3302 26.2776 17.6806 25.5092C17.8075 25.2307 17.9388 24.9428 18.0989 24.6895C18.2616 24.4319 18.4255 24.2199 18.5842 24.0152C18.5855 24.0135 18.5867 24.0119 18.5881 24.0102C18.5906 24.0071 18.5931 24.0038 18.5956 24.0005C18.9651 23.5246 19.2567 23.1487 19.3761 22.4036C19.4581 21.8922 19.2929 21.0476 18.7366 20.4018C18.4215 20.036 17.8536 19.6001 16.9371 19.6001C16.3726 19.6001 15.9016 19.8138 15.537 20.2352C14.8898 20.983 14.5968 22.3987 14.8081 23.758C15.0986 25.628 15.765 26.7443 16.5906 26.7443Z" fill="#FFBD98"/>
<path d="M14.211 32.559C14.0081 31.8486 13.6604 31.2371 13.2926 30.5896C13.019 30.1081 12.7415 29.619 12.5174 29.0793C12.1688 29.4036 11.7219 29.9633 11.5892 30.7869C11.4584 31.5993 11.7976 32.2693 12.1905 33.0453C12.4914 33.6394 12.8024 34.2535 12.9431 35.0013C13.2478 36.6173 13.2379 46.2249 12.7127 47.9983C12.5232 48.6379 12.2471 49.2073 11.9801 49.7579C11.5622 50.6196 11.2013 51.3638 11.3815 52.0111C11.5424 52.5897 12.1561 52.7952 12.588 52.8682C12.6689 52.2561 13.0028 51.6449 13.3308 51.0456C13.5808 50.5886 13.8395 50.1161 14.0288 49.603C14.614 48.0159 14.7589 34.4761 14.211 32.559Z" fill="#FFBD98"/>
<path d="M44.6046 49.7579C44.3375 49.2072 44.0615 48.6378 43.8721 47.9983C43.3468 46.2248 43.3369 36.6172 43.6416 35.0012C43.7823 34.2534 44.0935 33.6393 44.3942 33.0452C44.7871 32.2693 45.1263 31.5992 44.9955 30.7868C44.8634 29.9663 44.4155 29.4043 44.0673 29.0793C43.8433 29.619 43.5658 30.108 43.2922 30.5895C42.9244 31.237 42.5768 31.8485 42.3738 32.5589C41.8259 34.4761 41.9708 48.0158 42.5562 49.603C42.7454 50.1161 43.004 50.5887 43.2542 51.0456C43.5821 51.6448 43.916 52.2559 43.9969 52.868C44.4283 52.7949 45.0424 52.5896 45.2034 52.0111C45.3834 51.3638 45.0225 50.6196 44.6046 49.7579Z" fill="#FFBD98"/>
<path d="M36.3111 22.5452C36.17 21.6644 36.51 20.5677 37.1571 19.8165C37.5964 19.3065 38.3852 18.6985 39.6484 18.6985C40.4785 18.6985 41.2014 19.027 41.7391 19.6482C42.1516 20.1248 42.4496 20.7814 42.6124 21.5231C42.9677 21.2017 43.3658 20.6797 43.3658 19.9536C43.3658 19.2355 42.9434 18.6814 42.5889 18.343C42.0521 17.8306 41.7441 17.1199 41.7441 16.3935V0H37.7603C37.7143 2.78167 37.4707 14.5966 36.6437 16.0754C36.1851 16.8958 35.5334 17.4148 34.9586 17.8727C34.4088 18.3106 33.934 18.6887 33.7545 19.2266C33.3493 20.4401 33.706 22.3443 34.4885 23.145C34.9433 23.6104 35.9632 23.779 36.7598 23.8269C36.5626 23.4885 36.3976 23.086 36.3111 22.5452Z" fill="#FFBD98"/>
<path d="M41.7019 49.9125C41.0407 48.1195 40.883 34.4676 41.4987 32.3131C41.7313 31.4995 42.122 30.812 42.5 30.147C43.0832 29.1207 43.6341 28.1512 43.6341 26.7363C43.6341 25.4355 43.0602 24.7019 42.6014 24.323C42.1833 26.4704 41.2657 27.646 39.9944 27.646C38.8804 27.646 38.4341 26.667 38.0755 25.8804C37.9557 25.6176 37.8426 25.3696 37.7153 25.1681C37.6191 25.0159 37.518 24.8769 37.4169 24.7436C37.3688 24.7445 37.3158 24.7451 37.2573 24.7451C36.896 24.7451 36.3484 24.7238 35.7769 24.6248C35.5003 24.8851 34.9062 25.5768 34.9062 26.7264C34.9062 27.5557 35.4135 28.353 36.0008 29.2762C36.503 30.0653 37.0722 30.9599 37.4221 32.0438C38.2295 34.5443 38.2437 46.6917 37.7532 48.7775C37.5672 49.5679 37.1384 50.3229 36.7236 51.0531C35.873 52.551 35.4108 53.5278 36.1648 54.4612C36.9467 55.4292 38.2666 54.9129 39.2361 54.3095C39.8191 53.9467 40.5177 53.8297 41.2038 53.9801C41.8072 54.1125 42.5968 54.1667 42.9332 53.6736C43.3165 53.112 43.017 52.5032 42.4546 51.4755C42.2012 51.0125 41.9141 50.4878 41.7019 49.9125Z" fill="#FFBD98"/>
<path d="M39.6483 19.6001C38.7316 19.6001 38.1637 20.036 37.8488 20.4018C37.2925 21.0476 37.1272 21.8922 37.2092 22.4036C37.3286 23.1487 37.6203 23.5246 37.9898 24.0005C38.152 24.2096 38.3197 24.4258 38.4863 24.6895C38.6463 24.9428 38.7778 25.2307 38.9047 25.5091C39.255 26.2776 39.5033 26.7442 39.9946 26.7442C40.8203 26.7442 41.4866 25.6279 41.7774 23.7579C41.9886 22.3986 41.6956 20.9829 41.0485 20.2351C40.6838 19.8138 40.2127 19.6001 39.6483 19.6001Z" fill="#FFBD98"/>
</g>
<defs>
<clipPath id="clip0_101_5339">
<rect width="34" height="55" fill="white" transform="translate(11.334)"/>
</clipPath>
</defs>
</svg>
