<svg width="56" height="55" viewBox="0 0 56 55" fill="none" xmlns="http://www.w3.org/2000/svg">
<g clip-path="url(#clip0_101_5343)">
<path d="M23.2969 2.5936C14.4725 6.09694 7.99805 17.6082 7.99805 31.2761C7.99805 41.0221 14.6595 49.1959 23.6752 51.5295C24.1192 51.6466 24.584 51.6603 25.0341 51.5698C25.4842 51.4792 25.9076 51.2867 26.2717 51.007C26.6358 50.7274 26.931 50.368 27.1346 49.9565C27.3382 49.545 27.4448 49.0923 27.4462 48.6332V40.4986H23.3448C22.9481 40.4986 22.5675 40.341 22.287 40.0605C22.0064 39.7799 21.8488 39.3994 21.8488 39.0026C21.8488 38.6058 22.0064 38.2253 22.287 37.9448C22.5675 37.6642 22.9481 37.5066 23.3448 37.5066H27.4462V34.3889H23.3448C22.1212 34.3889 20.9477 34.875 20.0825 35.7403C19.2172 36.6055 18.7312 37.779 18.7312 39.0026C18.7312 40.2262 19.2172 41.3997 20.0825 42.265C20.9477 43.1302 22.1212 43.6163 23.3448 43.6163C23.7416 43.6163 24.1221 43.7739 24.4027 44.0545C24.6832 44.335 24.8408 44.7155 24.8408 45.1123C24.8408 45.5091 24.6832 45.8896 24.4027 46.1701C24.1221 46.4507 23.7416 46.6083 23.3448 46.6083C21.3277 46.6083 19.3931 45.807 17.9668 44.3806C16.5404 42.9543 15.7391 41.0198 15.7391 39.0026C15.7391 36.9855 16.5404 35.0509 17.9668 33.6246C19.3931 32.1982 21.3277 31.3969 23.3448 31.3969H27.4462V25.8551H20.2306C18.8308 25.8567 17.4889 26.4135 16.4991 27.4033C15.5094 28.3932 14.9527 29.7352 14.9512 31.1349C14.9512 31.5317 14.7936 31.9122 14.513 32.1928C14.2325 32.4733 13.8519 32.6309 13.4552 32.6309C13.0584 32.6309 12.6779 32.4733 12.3973 32.1928C12.1168 31.9122 11.9592 31.5317 11.9592 31.1349C11.9621 29.4211 12.4968 27.7504 13.4895 26.3534C14.4822 24.9564 15.884 23.9019 17.5015 23.3354C16.0193 21.8079 15.1903 19.7632 15.1903 17.6348C15.1903 17.238 15.3479 16.8575 15.6285 16.5769C15.909 16.2964 16.2895 16.1388 16.6863 16.1388C17.0831 16.1388 17.4636 16.2964 17.7441 16.5769C18.0247 16.8575 18.1823 17.238 18.1823 17.6348C18.184 19.021 18.7354 20.3499 19.7156 21.3301C20.6959 22.3102 22.0249 22.8615 23.411 22.863H27.4462V16.563C25.6143 16.476 23.8861 15.6878 22.6194 14.3616C21.3527 13.0354 20.6445 11.2729 20.6416 9.43893C20.6416 9.24247 20.6803 9.04794 20.7555 8.86643C20.8306 8.68493 20.9408 8.52001 21.0798 8.38109C21.2187 8.24217 21.3836 8.13198 21.5651 8.0568C21.7466 7.98161 21.9411 7.94292 22.1376 7.94292C22.3341 7.94292 22.5286 7.98161 22.7101 8.0568C22.8916 8.13198 23.0565 8.24217 23.1954 8.38109C23.3343 8.52001 23.4445 8.68493 23.5197 8.86643C23.5949 9.04794 23.6336 9.24247 23.6336 9.43893C23.6368 10.4781 24.0307 11.4781 24.7369 12.2405C25.4432 13.0028 26.4103 13.4717 27.4462 13.5541V5.35846C27.4462 3.22107 25.2834 1.80468 23.2969 2.5936Z" fill="#FFBD98"/>
<path d="M34.5868 2.59324C32.6003 1.80456 30.4375 3.22096 30.4375 5.35832V13.554C31.4735 13.4717 32.4408 13.0028 33.1471 12.2405C33.8535 11.4781 34.2474 10.478 34.2506 9.43869C34.2506 9.04193 34.4082 8.66141 34.6887 8.38085C34.9693 8.1003 35.3498 7.94268 35.7466 7.94268C36.1433 7.94268 36.5239 8.1003 36.8044 8.38085C37.085 8.66141 37.2426 9.04193 37.2426 9.43869C37.2397 11.2727 36.5315 13.0354 35.2647 14.3616C33.9978 15.6878 32.2695 16.476 30.4375 16.5629V22.863H34.4731C35.8593 22.8614 37.1882 22.3101 38.1684 21.33C39.1485 20.3498 39.6998 19.0209 39.7014 17.6347C39.7014 17.238 39.859 16.8575 40.1395 16.5769C40.4201 16.2963 40.8006 16.1387 41.1974 16.1387C41.5941 16.1387 41.9747 16.2963 42.2552 16.5769C42.5358 16.8575 42.6934 17.238 42.6934 17.6347C42.6934 19.7631 41.8645 21.8078 40.3824 23.3353C41.9999 23.9019 43.4016 24.9564 44.3943 26.3534C45.387 27.7504 45.9216 29.4211 45.9245 31.1349C45.9245 31.5316 45.7669 31.9121 45.4864 32.1927C45.2058 32.4733 44.8253 32.6309 44.4285 32.6309C44.0317 32.6309 43.6512 32.4733 43.3707 32.1927C43.0901 31.9121 42.9325 31.5316 42.9325 31.1349C42.931 29.7352 42.3744 28.3932 41.3848 27.4034C40.3951 26.4136 39.0533 25.8568 37.6536 25.855H30.4375V31.3969H34.5394C36.5565 31.3969 38.491 32.1982 39.9174 33.6245C41.3437 35.0509 42.145 36.9854 42.145 39.0026C42.145 41.0197 41.3437 42.9542 39.9174 44.3806C38.491 45.8069 36.5565 46.6082 34.5394 46.6082C34.1426 46.6082 33.7621 46.4506 33.4815 46.1701C33.201 45.8895 33.0433 45.509 33.0433 45.1122C33.0433 44.7155 33.201 44.335 33.4815 44.0544C33.7621 43.7738 34.1426 43.6162 34.5394 43.6162C35.763 43.6162 36.9365 43.1301 37.8017 42.2649C38.6669 41.3997 39.153 40.2262 39.153 39.0026C39.153 37.7789 38.6669 36.6054 37.8017 35.7402C36.9365 34.875 35.763 34.3889 34.5394 34.3889H30.4375V37.5065H34.5394C34.9361 37.5065 35.3166 37.6642 35.5972 37.9447C35.8777 38.2253 36.0354 38.6058 36.0354 39.0026C36.0354 39.3993 35.8777 39.7798 35.5972 40.0604C35.3166 40.341 34.9361 40.4986 34.5394 40.4986H30.4375V48.6334C30.4389 49.0925 30.5456 49.5451 30.7492 49.9566C30.9528 50.3681 31.248 50.7274 31.6121 51.0071C31.9762 51.2867 32.3995 51.4792 32.8496 51.5697C33.2997 51.6603 33.7645 51.6465 34.2084 51.5294C43.2242 49.1958 49.8856 41.022 49.8856 31.276C49.8856 17.6081 43.4115 6.09683 34.5868 2.59324Z" fill="#FFBD98"/>
</g>
<defs>
<clipPath id="clip0_101_5343">
<rect width="42.5532" height="50" fill="white" transform="translate(7.66602 2)"/>
</clipPath>
</defs>
</svg>
