<svg width="55" height="55" viewBox="0 0 55 55" fill="none" xmlns="http://www.w3.org/2000/svg">
<path d="M26.4624 4.6678C26.4479 4.30198 26.2598 3.96511 25.9539 3.7605C25.6232 3.55589 25.2161 3.51042 24.8461 3.64063C24.3914 3.7977 24.0648 4.20074 24.0049 4.67814C23.9801 8.58232 24.0173 12.4887 23.9925 16.3908C23.9987 17.9389 23.4924 19.4456 22.5499 20.6733C21.8947 21.5806 21.0039 22.2895 19.9746 22.7235C19.0859 22.9323 18.1703 23.0026 17.2609 22.9364C16.3474 22.9674 15.4587 22.6471 14.7766 22.0394C13.7412 21.0598 13.0364 19.7846 12.7553 18.3874C12.5796 17.9782 12.6003 17.5111 12.8091 17.1164C12.9599 16.9014 13.1997 16.7671 13.4601 16.7464C13.7226 16.7257 13.9789 16.8229 14.1628 17.011C14.5307 17.3499 14.4191 17.8852 14.5493 18.3193V18.3213C14.7787 19.456 15.469 20.4439 16.4549 21.0537C16.8745 21.2955 17.387 21.3223 17.8314 21.1281C18.4287 20.8015 18.9744 20.3819 19.4435 19.888C20.8035 18.375 21.3718 16.3103 20.9791 14.3139C20.6898 12.6294 19.7556 11.1228 18.3729 10.1183C17.0522 9.19854 15.4732 8.71907 13.8632 8.75214C13.0013 8.79554 12.1498 8.95881 11.3334 9.23576C9.34725 9.9736 7.63799 11.3067 6.44338 13.0552C5.3046 14.659 4.3828 16.4076 3.70487 18.2532C3.26051 19.4003 2.90915 20.5784 2.64873 21.7813C2.09069 24.681 1.98322 27.6532 2.32837 30.586C2.54745 32.2333 2.967 33.8454 3.57673 35.3893C4.16784 36.8174 4.96356 38.1526 5.94118 39.3534C6.78652 40.393 7.81578 41.2672 8.97731 41.9348C10.205 42.6416 11.598 43.0116 13.0138 43.0095C14.3923 42.9868 15.7295 42.53 16.8353 41.7054C17.9658 40.8167 18.7905 39.5931 19.1873 38.2104C19.5593 36.9228 19.5593 35.5587 19.1873 34.2711C18.8876 33.153 18.3317 32.1196 17.5628 31.2557C16.548 31.4313 15.6613 32.0369 15.126 32.9153C14.7334 33.5002 14.4709 34.1637 14.3551 34.8602C14.32 35.1867 14.1092 35.4698 13.8074 35.6001C13.3941 35.7571 12.929 35.5753 12.7306 35.1805C12.5921 34.8064 12.6066 34.391 12.774 34.0272C13.1936 32.4854 14.1278 31.1358 15.4216 30.1974C16.2793 29.6828 17.259 29.41 18.2614 29.4058C19.642 29.286 21.0143 29.7241 22.0725 30.6211C23.046 31.4995 23.6867 32.6879 23.8851 33.9838C23.9988 34.7713 24.0381 35.5649 24.0029 36.3586C23.9947 41.3954 23.9988 46.4342 24.0133 51.4708C24.0153 52.0309 24.3563 52.5331 24.8772 52.7397C25.2141 52.8638 25.5882 52.8286 25.894 52.6426C26.202 52.4566 26.4066 52.1425 26.4542 51.787C26.4707 48.726 26.4748 45.6653 26.4645 42.6044C26.4707 29.96 26.4686 17.3129 26.4624 4.66843L26.4624 4.6678ZM24.0215 29.4075C22.7628 27.8801 20.8572 27.0369 18.8792 27.1299C18.005 27.1299 17.1307 27.1237 16.2585 27.1319H16.2565C15.5889 27.2497 14.9668 27.5556 14.4666 28.0124C13.8135 28.5705 13.0964 29.0458 12.3295 29.4302C11.6185 29.7485 10.9076 30.0751 10.1821 30.3562H10.1801C9.93205 30.4223 9.66543 30.3706 9.45875 30.2177C9.25207 30.0627 9.12806 29.825 9.11772 29.5666C9.08879 29.0417 9.44841 28.5766 9.96307 28.4712C10.5604 28.3059 11.1349 28.0661 11.6723 27.7602C12.3337 27.3634 12.9703 26.9232 13.5779 26.4457C13.1976 26.3651 12.8422 26.2039 12.5321 25.9704C11.7178 25.3297 10.9489 24.6311 10.2297 23.885C9.96926 23.5936 9.52698 23.5212 9.32444 23.1678C9.02476 22.7937 9.05576 22.2542 9.39265 21.9153C9.7316 21.5784 10.2711 21.5495 10.6451 21.8471C11.5566 22.6056 12.3213 23.5233 13.2452 24.2673C13.7309 24.6559 14.2848 24.9535 14.8779 25.1457C15.6633 25.2904 16.4632 25.3359 17.2589 25.2801C18.4142 25.3751 19.5758 25.2739 20.698 24.9824C21.8534 24.5835 22.8909 23.8994 23.7114 22.9942C23.8416 22.8557 23.947 22.6986 24.0277 22.5291C23.9967 24.8212 24.0235 27.1154 24.0215 29.4075Z" fill="#FFBD98"/>
<path d="M52.9198 26.5698C52.8909 25.0466 52.7359 23.5254 52.4569 22.027C52.1448 20.481 51.6818 18.9702 51.0783 17.5131C50.5678 16.2751 49.9519 15.0847 49.2388 13.952C48.5382 12.8297 47.6825 11.8129 46.6987 10.9324C45.378 9.78329 43.7473 9.04958 42.0112 8.82429C40.9985 8.69202 39.9671 8.76643 38.9833 9.04544C37.8011 9.3658 36.7223 9.99205 35.8583 10.8622C34.1408 12.6293 33.5353 15.1983 34.2855 17.5463C34.7733 18.9993 35.7633 20.2331 37.0757 21.0268C37.2968 21.1942 37.5675 21.2768 37.8445 21.2644C38.4728 21.1921 39.0494 20.878 39.4545 20.3902C40.0229 19.7453 40.4156 18.9641 40.5913 18.1229C40.5933 17.8191 40.6533 17.5174 40.769 17.2362C40.8785 17.0192 41.0728 16.856 41.3043 16.7857C41.5378 16.7154 41.7879 16.7423 41.9987 16.8642C42.3336 17.0709 42.5051 17.4636 42.4286 17.848C42.2137 19.1728 41.6681 20.4191 40.8455 21.4773C40.1448 22.3413 39.1114 22.8683 38.0015 22.9324C37.3195 22.9262 36.6354 22.9572 35.9533 22.8931H35.9554C34.8869 22.7009 33.9113 22.1697 33.1714 21.3761C31.9665 20.1566 31.2369 18.5487 31.1088 16.8395C31.0633 16.2008 31.0799 15.5601 31.0757 14.9194C31.0778 11.5278 31.0778 8.13845 31.0737 4.74638V4.74845C31.0427 4.35576 30.8318 4.00231 30.5053 3.78533C30.1767 3.56831 29.7695 3.51458 29.3975 3.63652C28.9262 3.80186 28.6121 4.24414 28.61 4.74223C28.6245 20.2682 28.6265 35.7941 28.6121 51.3174V51.3194C28.5935 51.5737 28.6141 51.8299 28.6741 52.078C28.8725 52.5492 29.3396 52.8509 29.8522 52.8344C30.3627 52.8179 30.8132 52.4893 30.9806 52.0056C31.0716 51.708 31.1046 51.398 31.0757 51.088C31.084 45.8176 31.0861 40.5493 31.0778 35.2811H31.0799C31.084 34.8904 31.1191 34.5019 31.1832 34.1154C31.3733 32.8071 31.9933 31.6001 32.9441 30.6845C33.7481 29.9446 34.7794 29.5023 35.8686 29.4258C37.2616 29.2584 38.6691 29.585 39.8472 30.3476C40.8413 31.1123 41.6039 32.1375 42.0524 33.3073C42.2467 33.7372 42.3831 34.1899 42.4596 34.6549C42.503 35.0662 42.2653 35.4568 41.8788 35.6056C41.6432 35.6862 41.3828 35.6635 41.1657 35.5395C40.9467 35.4175 40.7937 35.2067 40.7421 34.9608C40.6242 34.2209 40.339 33.516 39.9112 32.9022C39.4441 32.1313 38.7063 31.565 37.8403 31.317C37.7266 31.2963 37.6026 31.2302 37.491 31.2839H37.4889C37.3111 31.4513 37.1541 31.6436 37.0259 31.8523C36.5072 32.6273 36.1207 33.483 35.8788 34.3841C35.4944 35.7441 35.5296 37.1888 35.978 38.5281C36.3893 39.7227 37.1127 40.785 38.0717 41.6055C39.0927 42.4157 40.3307 42.9014 41.6287 42.9965C42.9907 43.0709 44.3486 42.7857 45.5659 42.1739C47.5583 41.1674 49.2118 39.5986 50.3258 37.6662C50.9375 36.701 51.4336 35.6676 51.8056 34.5867C52.6303 31.997 53.0066 29.2851 52.9198 26.5698ZM45.4606 30.3252C45.1919 30.4327 44.886 30.4058 44.64 30.2549C43.9622 29.9635 43.2863 29.6721 42.6208 29.3517C41.7982 28.8888 41.019 28.3494 40.2977 27.7396C39.8678 27.3759 39.3325 27.1651 38.7724 27.1361C37.7948 27.1279 36.8172 27.132 35.8417 27.1361H35.8396C34.8352 27.1299 33.8452 27.38 32.9647 27.8657C32.2165 28.2522 31.5676 28.804 31.0632 29.4778C31.0735 27.3263 31.0673 25.1727 31.0715 23.0212C31.0694 22.8476 31.057 22.674 31.0343 22.5025C31.7659 23.4883 32.7435 24.2654 33.8679 24.7553C34.49 25.0425 35.1596 25.212 35.8437 25.2554C36.9206 25.3174 38.0015 25.2596 39.0804 25.2926C40.1551 25.2802 41.1864 24.871 41.976 24.1435C42.6952 23.5028 43.3669 22.8104 44.08 22.1614C44.328 21.9423 44.5781 21.6571 44.9377 21.655C45.2064 21.6344 45.473 21.7294 45.6673 21.9175C45.8616 22.1035 45.967 22.366 45.9566 22.6368C45.905 23.0915 45.6177 23.4842 45.2023 23.6722C44.884 23.8603 44.5988 24.0959 44.3548 24.3729C44.0118 24.7201 43.6377 25.0363 43.2843 25.3732C42.7924 25.863 42.1992 26.2392 41.5461 26.4748C42.3066 27.1113 43.1416 27.6529 44.0303 28.0931C44.576 28.401 45.289 28.3721 45.7355 28.8516C45.9339 29.0686 46.0166 29.3683 45.9628 29.6576C45.9091 29.947 45.7231 30.1929 45.4606 30.3252Z" fill="#FFBD98"/>
</svg>
