<svg width="25" height="24" viewBox="0 0 25 24" fill="none" xmlns="http://www.w3.org/2000/svg">
<path d="M12.666 1C10.4904 1 8.36369 1.64514 6.55475 2.85383C4.74581 4.06253 3.33591 5.78049 2.50335 7.79048C1.67078 9.80047 1.45295 12.0122 1.87738 14.146C2.30182 16.2798 3.34947 18.2398 4.88785 19.7782C6.42622 21.3166 8.38624 22.3642 10.52 22.7886C12.6538 23.2131 14.8656 22.9952 16.8755 22.1627C18.8855 21.3301 20.6035 19.9202 21.8122 18.1113C23.0209 16.3023 23.666 14.1756 23.666 12C23.6626 9.08367 22.5026 6.28778 20.4404 4.22563C18.3782 2.16347 15.5823 1.00344 12.666 1ZM12.666 21C10.886 21 9.14593 20.4722 7.66589 19.4832C6.18585 18.4943 5.03229 17.0887 4.3511 15.4442C3.66992 13.7996 3.49169 11.99 3.83895 10.2442C4.18622 8.49836 5.04339 6.89471 6.30206 5.63604C7.56073 4.37737 9.16438 3.5202 10.9102 3.17293C12.656 2.82567 14.4656 3.0039 16.1102 3.68508C17.7547 4.36627 19.1603 5.51983 20.1492 6.99987C21.1382 8.47991 21.666 10.22 21.666 12C21.6631 14.3861 20.714 16.6735 19.0268 18.3607C17.3396 20.0479 15.0521 20.9971 12.666 21Z" fill="#92C03D"/>
<path d="M13.666 11.586V6C13.666 5.73478 13.5607 5.48043 13.3731 5.29289C13.1856 5.10536 12.9312 5 12.666 5C12.4008 5 12.1464 5.10536 11.9589 5.29289C11.7714 5.48043 11.666 5.73478 11.666 6V12C11.6661 12.2652 11.7715 12.5195 11.959 12.707L14.959 15.707C15.1476 15.8892 15.4002 15.99 15.6624 15.9877C15.9246 15.9854 16.1754 15.8802 16.3608 15.6948C16.5462 15.5094 16.6514 15.2586 16.6537 14.9964C16.656 14.7342 16.5552 14.4816 16.373 14.293L13.666 11.586Z" fill="#EF7006"/>
</svg>
