<svg width="21" height="20" viewBox="0 0 21 20" fill="none" xmlns="http://www.w3.org/2000/svg">
<path fill-rule="evenodd" clip-rule="evenodd" d="M2.99935 11.6665C3.45959 11.6665 3.83268 12.0396 3.83268 12.4998V15.8332C3.83268 16.0542 3.92048 16.2661 4.07676 16.4224C4.23304 16.5787 4.445 16.6665 4.66602 16.6665H16.3327C16.5537 16.6665 16.7657 16.5787 16.9219 16.4224C17.0782 16.2661 17.166 16.0542 17.166 15.8332V12.4998C17.166 12.0396 17.5391 11.6665 17.9993 11.6665C18.4596 11.6665 18.8327 12.0396 18.8327 12.4998V15.8332C18.8327 16.4962 18.5693 17.1321 18.1005 17.6009C17.6316 18.0698 16.9957 18.3332 16.3327 18.3332H4.66602C4.00297 18.3332 3.36709 18.0698 2.89825 17.6009C2.42941 17.1321 2.16602 16.4962 2.16602 15.8332V12.4998C2.16602 12.0396 2.53911 11.6665 2.99935 11.6665Z" fill="white"/>
<path fill-rule="evenodd" clip-rule="evenodd" d="M5.74408 7.74408C6.06951 7.41864 6.59715 7.41864 6.92259 7.74408L10.5 11.3215L14.0774 7.74408C14.4028 7.41864 14.9305 7.41864 15.2559 7.74408C15.5814 8.06951 15.5814 8.59715 15.2559 8.92259L11.0893 13.0893C10.7638 13.4147 10.2362 13.4147 9.91074 13.0893L5.74408 8.92259C5.41864 8.59715 5.41864 8.06951 5.74408 7.74408Z" fill="white"/>
<path fill-rule="evenodd" clip-rule="evenodd" d="M10.4993 1.6665C10.9596 1.6665 11.3327 2.0396 11.3327 2.49984V12.4998C11.3327 12.9601 10.9596 13.3332 10.4993 13.3332C10.0391 13.3332 9.66602 12.9601 9.66602 12.4998V2.49984C9.66602 2.0396 10.0391 1.6665 10.4993 1.6665Z" fill="white"/>
</svg>
